<?xml version="1.0" encoding="UTF-8"?>
<svg id="Calque_1" xmlns="http://www.w3.org/2000/svg" version="1.1" viewBox="0 0 144 144">
  <!-- Generator: Adobe Illustrator 29.0.0, SVG Export Plug-In . SVG Version: 2.1.0 Build 186)  -->
  <path d="M38.2,116.2V27.5h40.2c15.9.8,27.5,15.2,24.5,31-.7,3.6-2.3,6.9-4.2,10,9.9,8.7,12.1,23.7,5,34.9-4.8,7.7-13,12.4-22.1,12.9h-43.4ZM60.4,64.1h13.4c3.4,0,7-4.2,7.3-7.4.4-4.6-3-9.6-7.8-9.6h-12.8v17.1ZM60.4,96.7h16.3c1.2,0,3.4-1,4.4-1.7,5.3-3.8,4.8-12-1-15.1s-2.2-1-2.7-1h-17v17.8Z"/>
</svg>