<svg xmlns="http://www.w3.org/2000/svg" width="52.883" height="43.558" viewBox="0 0 52.883 43.558">
  <g id="arrow" transform="translate(42.684) rotate(70)">
    <path id="Tracé_3320" data-name="Tracé 3320" d="M11.121,10.432c-.169.118-.343.233-.505.354C8.978,12,7.356,13.232,5.7,14.439a19.778,19.778,0,0,1-2.048,1.322,4.442,4.442,0,0,1-2.7.45c-.83-.1-1.058-.325-.9-.874A3.714,3.714,0,0,1,1.121,13.7C2.352,12.53,3.572,11.348,4.9,10.225c2.869-2.42,5.812-4.8,8.713-7.207A22.9,22.9,0,0,1,17.387.728,7.839,7.839,0,0,1,22.472.171a1.786,1.786,0,0,1,1.589,1.063c1.38,3.685,2.812,7.363,4.21,11.046.5,1.318.957,2.644,1.428,3.967a2.421,2.421,0,0,1,.1.442c.082.523-.063.73-.815.93a9.074,9.074,0,0,1-4.72,0,2.555,2.555,0,0,1-.872-.458A11.7,11.7,0,0,1,21,14.578c-.688-.96-1.392-1.914-2.095-2.87-.105-.143-.241-.276-.459-.523-.224.7-.422,1.283-.591,1.866a33.514,33.514,0,0,0-1.362,11.43,27.552,27.552,0,0,0,3.021,11.375A20.233,20.233,0,0,0,25.5,42.83c.669.5,1.406.952,2.1,1.434a3.319,3.319,0,0,1,.6.506c.186.213.1.4-.246.489a4.16,4.16,0,0,1-1.242.158,16.422,16.422,0,0,1-2.43-.335,17.13,17.13,0,0,1-5.881-2.648,19.4,19.4,0,0,1-5.24-5.377,23.788,23.788,0,0,1-3.541-8.562,30.533,30.533,0,0,1-.407-9.381,34.813,34.813,0,0,1,1.865-8.155c.057-.159.109-.318.163-.478l-.124-.049" transform="translate(0 -0.001)"/>
  </g>
</svg>
