<svg id="Groupe_4135" data-name="Groupe 4135" xmlns="http://www.w3.org/2000/svg" xmlns:xlink="http://www.w3.org/1999/xlink" width="46.64" height="44.72" viewBox="0 0 46.64 44.72">
  <defs>
    <clipPath id="clip-path">
      <rect id="Rectangle_1593" data-name="Rectangle 1593" width="46.64" height="44.72" fill="none"/>
    </clipPath>
  </defs>
  <g id="Groupe_4134" data-name="Groupe 4134" clip-path="url(#clip-path)">
    <path id="Tracé_3350" data-name="Tracé 3350" d="M78.258,35.191a.462.462,0,0,1,.532.441c.092.054.219.046.282.148.156.25.42.409.554.679.022.045.077.071.116.107.1.1.273.133.278.32,0,.02.03.043.052.049a.5.5,0,0,1,.254.188,10.128,10.128,0,0,0,1.042,1.044,3.952,3.952,0,0,1,.585.6,1.761,1.761,0,0,0,.2.2,2.109,2.109,0,0,1,.219.232c.235.325.491.631.748.936.017.02.046.036.051.06.057.251.28.348.444.5.224.209.449.417.667.633a2,2,0,0,0,.422.365.34.34,0,0,1,.193.245l0-.012c-.041,0-.094.009-.121-.012-.095-.073-.18-.158-.27-.236s-.162-.137-.247-.2c-.013-.01-.049.011-.075.017,0,.026-.007.061.007.076.17.187.346.368.515.556.1.109.193.222.28.34a.259.259,0,0,1,.03.221l-.639-.581a.985.985,0,0,1-.252-.018.623.623,0,0,1-.239-.143,2.184,2.184,0,0,0-.562-.382,1.727,1.727,0,0,1-.381-.291c-.148-.134-.284-.281-.424-.42-.019-.066.092-.123.027-.192a2.688,2.688,0,0,0-.524-.411c-.057.08.015.116,0,.174-.021.029-.05.041-.071.019a2.35,2.35,0,0,0-.434-.352,1.612,1.612,0,0,1-.441-.4.3.3,0,0,0-.2-.117c.041.165.215.2.288.331a2.741,2.741,0,0,0,.234.371,1.141,1.141,0,0,0,.267.24,6.488,6.488,0,0,1,.922.823c.077.074.155.147.237.214a2.589,2.589,0,0,1,.253.2,1.8,1.8,0,0,1,.175.262V42a1.335,1.335,0,0,1-.492-.339c-.051-.042-.081-.111-.137-.145a6.723,6.723,0,0,1-.854-.658c-.121-.1-.254-.193-.371-.3-.183-.173-.423-.274-.617-.463a.15.15,0,0,0,.052.174,17.475,17.475,0,0,0,1.412,1.3,4.514,4.514,0,0,1,.758.7c-.025.018-.052.048-.064.044a.412.412,0,0,1-.1-.06.188.188,0,0,0-.191-.048.263.263,0,0,1-.308-.065c-.138-.143-.339-.217-.444-.4-.01-.017-.051-.023-.077-.019s-.062.034-.061.045c0,.054,0,.123.034.156q.482.506.976,1a.6.6,0,0,1,.183.257c-.036.007-.072.025-.089.015a1.224,1.224,0,0,1-.232-.154c-.136-.128-.26-.268-.392-.4a2.376,2.376,0,0,0-.41-.378c-.078-.048-.127-.136-.2-.2-.05-.042-.112-.1-.173-.092a.325.325,0,0,1-.283-.126c-.118-.126-.24-.249-.349-.382a6.389,6.389,0,0,0-.8-.712c-.023.008-.044.01-.049.019-.046.072-.1.118-.176.073a.147.147,0,0,1-.067-.179c.033-.134.109-.174.217-.106.055.035.108.073.178.121.011-.1-.056-.122-.088-.167a1.86,1.86,0,0,0-.132-.2c-.044-.047-.116-.066-.163-.11-.108-.1-.208-.206-.312-.31-.207-.207-.463-.359-.669-.568a.927.927,0,0,0-.266-.178,1,1,0,0,1-.4-.324c-.092-.131-.263-.186-.316-.353-.009-.027-.069-.043-.108-.043a.527.527,0,0,1-.36-.166c-.1-.085-.195-.18-.289-.273a.447.447,0,0,0-.2-.127.14.14,0,0,1-.093-.068.787.787,0,0,0-.362-.356,1.283,1.283,0,0,1-.149-.131c-.157-.145-.312-.29-.47-.434a.232.232,0,0,0-.1-.064.217.217,0,0,0-.119.023.1.1,0,0,0-.021.116c.091.078.18.158.276.23a1.817,1.817,0,0,1,.469.521.236.236,0,0,1-.113.152c-.026-.006-.06,0-.078-.02-.294-.249-.6-.484-.871-.76a.642.642,0,0,0-.156-.125,2.9,2.9,0,0,1-.645-.536c-.346-.332-.668-.691-1.035-1-.256-.215-.472-.467-.722-.685s-.481-.461-.72-.693-.481-.462-.717-.7c-.13-.13-.295-.234-.339-.438a.124.124,0,0,0-.089-.074.6.6,0,0,1-.3-.2c-.55-.562-1.135-1.089-1.671-1.667-.344-.371-.734-.7-1.1-1.046-.417-.393-.835-.784-1.248-1.181-.336-.323-.666-.652-1-.981a.071.071,0,0,1-.011-.108.115.115,0,0,1,.12-.017c.01.008.028.012.032.023A.612.612,0,0,0,65.95,28a.656.656,0,0,1,.18.157c.418.413.831.83,1.253,1.239.21.2.444.384.655.587a17.488,17.488,0,0,1,1.322,1.278,1.827,1.827,0,0,0,.2.2,5.965,5.965,0,0,1,.655.644,4.592,4.592,0,0,0,.5.456c.129.114.289.2.371.359.016.033.061.049.094.072a2.319,2.319,0,0,1,.5.46.807.807,0,0,0,.136.146,10.637,10.637,0,0,1,.894.859,1.184,1.184,0,0,0,.145.138,14.813,14.813,0,0,1,1.416,1.292c.089.08.179.161.274.235a.193.193,0,0,0,.114.029.117.117,0,0,0,.072-.047c.015-.02.027-.062.017-.075a1.72,1.72,0,0,0-.132-.146c-.1-.1-.235-.166-.3-.3-.024-.05-.076-.068-.143-.025-.029.019-.059,0-.051-.038a.139.139,0,0,0-.035-.151c-.1-.086-.231-.136-.305-.256-.023-.037-.094-.047-.147-.056a.181.181,0,0,1-.154-.115c-.1-.268-.343-.4-.5-.617-.034-.045-.152-.031-.174-.077a.228.228,0,0,0-.26-.145c-.03,0-.087-.048-.082-.071.031-.153-.058-.23-.139-.32a13.34,13.34,0,0,0-1.084-1.064.34.34,0,0,0-.22-.092h.012a.222.222,0,0,0-.055-.192c-.344-.334-.69-.665-1.05-.983a12.443,12.443,0,0,1-.989-.93c-.314-.345-.653-.666-.98-1-.374-.38-.745-.762-1.148-1.111a.306.306,0,0,1-.061-.051,5.388,5.388,0,0,0-.815-.82c-.065-.064-.15-.114-.151-.239.044,0,.092-.007.117.012.075.055.136.128.211.183.142.1.23.261.357.373a1.278,1.278,0,0,1,.356.371.1.1,0,0,0,.055.053c.208.04.308.215.433.345.452.469.947.893,1.408,1.353l.293.292c.013-.1-.045-.128-.084-.167-.311-.311-.625-.618-.935-.93a.914.914,0,0,1-.294-.375.143.143,0,0,0-.082-.079.937.937,0,0,1-.308-.251,6.023,6.023,0,0,1-.7-.768.279.279,0,0,0-.056-.057c-.208-.168-.366-.386-.56-.566-.234-.218-.435-.467-.664-.688-.211-.2-.409-.421-.629-.614-.111-.1-.209-.2-.311-.308-.291-.292-.578-.589-.864-.886a1,1,0,0,1-.176-.217,2.156,2.156,0,0,0-.408-.491c-.476-.485-.94-.982-1.43-1.451-.443-.424-.857-.876-1.308-1.291-.3-.279-.563-.6-.893-.857a5.216,5.216,0,0,0-.934-.917.5.5,0,0,1-.091-.078,4.779,4.779,0,0,0-.786-.777c-.029-.027-.068-.051-.08-.087a.438.438,0,0,0-.21-.231c-.136-.086-.269-.177-.261-.38a.2.2,0,0,0-.08-.134,5.234,5.234,0,0,0-.554-.573.982.982,0,0,1-.182-.219.709.709,0,0,0,.046-.159.1.1,0,0,0-.114-.09.758.758,0,0,1-.435-.021c-.059-.02-.069-.093-.027-.205-.068-.076-.187-.094-.213-.224a.986.986,0,0,0-.127-.26.214.214,0,0,0-.195.011c-.074.026-.1-.032-.129-.071.028-.052.062-.108.036-.161a.593.593,0,0,0-.281-.308c-.049.026-.068.064-.053.1.031.081.112.1.185.133.1.041.118.131.124.23a1.878,1.878,0,0,1-.627-.54,3.168,3.168,0,0,1-.19-.3c.117-.068.235.059.331-.089-.056-.177-.2-.212-.392-.171-.1.117-.179.049-.265.016a.047.047,0,0,0-.039.016c-.01.024-.025.06-.015.074a4.549,4.549,0,0,0,.554.629c.237.234.468.474.7.713.268.277.546.546.8.839.3.343.638.641.943.974s.617.663.937.984a5.32,5.32,0,0,1,.727.794,3.672,3.672,0,0,1,.508.448,1.09,1.09,0,0,1,.266.3.378.378,0,0,1-.377-.2.434.434,0,0,0-.216-.221.447.447,0,0,1-.118-.106c-.6-.6-1.214-1.195-1.8-1.815a1.322,1.322,0,0,0-.169-.169,2.927,2.927,0,0,1-.5-.517,1.7,1.7,0,0,0-.535-.475l.006,0c-.005-.027,0-.063-.018-.079-.212-.219-.375-.483-.6-.687a.7.7,0,0,1-.157-.178.512.512,0,0,0-.163-.166.621.621,0,0,1-.191-.2c-.075-.145-.281-.17-.3-.358-.08-.047-.162-.091-.241-.141a1.849,1.849,0,0,0-.215-.1c-.06-.028-.064-.143-.115-.2a4.656,4.656,0,0,0-.374-.35c-.026-.022-.082-.008-.122-.016-.073-.014-.13-.054-.124-.135.013-.174-.117-.268-.169-.405a.049.049,0,0,0-.027-.028.472.472,0,0,1-.282-.341.763.763,0,0,0-.122,0,.164.164,0,0,1-.209-.084c-.049-.11-.09-.224-.137-.343a1.57,1.57,0,0,1-.516-.264c-.136.008-.138-.1-.163-.192v.009a.2.2,0,0,0-.167-.238.592.592,0,0,1-.422-.264,1.12,1.12,0,0,0-.289-.257.778.778,0,0,1-.333-.41c-.1-.035-.184-.083-.292-.038a.581.581,0,0,0-.277-.394c.013.154.142.209.178.325.006.021.041.03.064.044a.24.24,0,0,0,.038.015,1.48,1.48,0,0,0,.375.353,7.139,7.139,0,0,1,.839.96c.046.081.112.15.163.228a.2.2,0,0,0,.12.1,1.069,1.069,0,0,1,.6.506,1.386,1.386,0,0,0,.4.44c.085.051.1.184.213.225a1.606,1.606,0,0,1,.229.154,1.33,1.33,0,0,1,.445.449.426.426,0,0,0,.238.2.2.2,0,0,1,.127.233l0-.009c.009.055.02.11-.051.149a.77.77,0,0,1-.306-.242,2.956,2.956,0,0,0-.447-.456c-.182-.156-.349-.33-.519-.5-.472-.471-.942-.945-1.414-1.416-.189-.188-.382-.373-.573-.559q-.559-.546-1.117-1.092a.457.457,0,0,1-.189-.345.279.279,0,0,0-.063-.144c-.037-.056-.084-.1-.124-.157a.134.134,0,0,1,0-.16.421.421,0,0,1,.1-.079c-.032-.112-.159-.123-.238-.19A.623.623,0,0,0,48.294,10a.3.3,0,0,1-.192-.193A1.029,1.029,0,0,0,47.98,9.6c-.146-.209-.289-.419-.443-.621a3.12,3.12,0,0,0-.343-.39,4.083,4.083,0,0,1-.489-.526.673.673,0,0,0-.152-.126c-.045-.032-.112,0-.136.066s-.007.146-.09.192a.245.245,0,0,1-.19-.188.8.8,0,0,0-.1-.266,1.723,1.723,0,0,1-.268-.678,4.646,4.646,0,0,0-.419-1.151.365.365,0,0,1-.041-.115,4,4,0,0,0-.317-.882c-.078-.173-.147-.35-.221-.525a.276.276,0,0,1,.043-.287.384.384,0,0,0,.1-.326.653.653,0,0,1,.026-.211,1.324,1.324,0,0,1,.03-.171c.051-.174-.026-.34.048-.515a2.145,2.145,0,0,0,.124-.515.3.3,0,0,1,.275-.26c.143-.024.286-.039.43-.069a.957.957,0,0,1,.373.04,1.482,1.482,0,0,1,.223.079,1.664,1.664,0,0,1,.263-.061c.082-.005.137.082.206.066s.064-.053.055-.086a2.073,2.073,0,0,0-.209-.485.2.2,0,0,1,.04-.275c.143-.114.089-.237.094-.356l.361-.543a1.423,1.423,0,0,1,.656-.3,3.286,3.286,0,0,1,.759.8c.209.278.413.56.623.837a.872.872,0,0,0,.324.295c.057-.026.038-.062.02-.091q-.311-.493-.624-.985c-.021-.034-.039-.07-.066-.118.016-.061.029-.133.053-.2a.909.909,0,0,0,.085-.5.162.162,0,0,1,.19-.078.214.214,0,0,0,.239-.034.217.217,0,0,1,.208-.029c.065.02.123.07.19.072a1.551,1.551,0,0,1,.773.338,2.517,2.517,0,0,0,.469.236,1.629,1.629,0,0,1,.569.373,2.665,2.665,0,0,0,.656.461c.305.148.569.352.86.516l.012.225c.075.085.152.176.235.263.065.069.029.195.122.249a1.389,1.389,0,0,1,.195.14c.174.146.348.291.516.444.206.188.395.394.615.567a.326.326,0,0,1,.051.061,2.352,2.352,0,0,0,.593.566,1.087,1.087,0,0,1,.2.138,1.456,1.456,0,0,1,.225.281c.057.1.169.125.24.2s.177.162.262.246a.373.373,0,0,1,.06.1.042.042,0,0,1,0,.037c-.024.017-.055.042-.075.038a.215.215,0,0,1-.108-.047c-.317-.286-.63-.576-.947-.862-.465-.421-.939-.831-1.433-1.22-.063-.05-.135-.088-.2-.134a6.71,6.71,0,0,1-.844-.613.213.213,0,0,0-.19-.064c-.007.024-.026.056-.018.068a1.446,1.446,0,0,0,.368.415,2.038,2.038,0,0,1,.572.554.244.244,0,0,0,.056.057c.133.111.274.213.4.334a4.407,4.407,0,0,0,.393.339,6.573,6.573,0,0,1,.5.456,10.942,10.942,0,0,0,.932.82c.127.1.232.22.35.328.147.135.292.274.447.4.373.3.7.657,1.057.976a3.327,3.327,0,0,1,.41.375,4.466,4.466,0,0,0,.39.4.808.808,0,0,0,.18.158,2.912,2.912,0,0,1,.7.589,1.689,1.689,0,0,1,.454.5c.216.121.33.344.5.506s.36.319.521.5c.286.317.613.591.922.882a4.6,4.6,0,0,0,.637.6,2.044,2.044,0,0,1,.338.339c.092.1.175.2.274.291.537.482,1.03,1.008,1.547,1.51s1.057,1.019,1.583,1.532,1.048,1.026,1.569,1.542c.085.084.148.189.231.275.139.142.237.321.427.416.092.046.15.148.223.225.182.2.406.344.6.521.248.223.482.462.729.687.167.153.349.29.52.439.151.132.3.269.441.407.271.257.541.516.813.773a.462.462,0,0,0,.1.046,1.227,1.227,0,0,0-.115-.148,1.98,1.98,0,0,1-.36-.428.916.916,0,0,0-.225-.225,4.449,4.449,0,0,1-.353-.324.445.445,0,0,1-.073-.142.127.127,0,0,1,.084-.136.832.832,0,0,1,.168,0,.137.137,0,0,1,.07.038c.361.316.732.622,1.079.953.666.636,1.332,1.274,1.971,1.937a10.851,10.851,0,0,1,.9.967,5.427,5.427,0,0,0,.418.43c.247.262.484.534.737.79a13.837,13.837,0,0,0,1.139,1.126c.106-.069-.041-.1.011-.173a.3.3,0,0,1,.1.018.681.681,0,0,1,.158.12q.5.545.994,1.1c.232.258.45.529.691.777.363.373.686.783,1.047,1.157.139.144.286.279.426.421.065.066.122.14.185.208.108.116.184.265.343.33a.169.169,0,0,1,.081.085.632.632,0,0,0,.272.336c.043.023.065.083.092.129a4.51,4.51,0,0,0,.962,1.12.364.364,0,0,1,.146.231c.009.062.07.11.114.159a13.857,13.857,0,0,1,.863,1.1c.016.022.027.047.044.068q.438.521.877,1.041c.137.163.27.331.409.493.173.2.349.4.525.605a1.275,1.275,0,0,1,.135.147,11.368,11.368,0,0,0,.837,1.074.921.921,0,0,1,.107.168c.009.018-.011.054-.018.082l.011,0a.782.782,0,0,1-.249-.2c-.138-.18-.291-.348-.437-.522s-.3-.373-.458-.554a5.481,5.481,0,0,0-.562-.568c-.171-.147-.316-.324-.474-.487-.12-.125-.244-.246-.362-.373a1.07,1.07,0,0,1-.174-.218c-.071-.134-.211-.187-.3-.323-.019.065-.039.1-.03.112.1.111.2.218.294.327a1.949,1.949,0,0,1,.258.3,2.613,2.613,0,0,0,.38.463q.394.426.785.855c.17.188.325.391.5.569.435.434.844.892,1.241,1.36.026.031.053.06.081.088.359.358.648.779.987,1.155a1.488,1.488,0,0,1,.248.365,4.7,4.7,0,0,0,.65.96c.02.025.029.071-.032.107a5.554,5.554,0,0,0-1.082-1.214l-.32-.064c-.037.135.146.149.11.294a1.838,1.838,0,0,1-.478-.431,2.265,2.265,0,0,0-.237-.272c-.107-.116-.232-.22-.141-.452-.15.1-.246.127-.323.047s-.117-.144-.175-.216v.012a.329.329,0,0,0-.012-.083c-.01-.023-.03-.058-.048-.057-.178.013-.2-.22-.377-.2a.677.677,0,0,0-.085.02.211.211,0,0,0,.012.2c.03.058.092.1.083.179-.028.006-.067.026-.078.016-.318-.3-.632-.611-.949-.915-.3-.286-.6-.569-.9-.855-.115-.111-.227-.225-.34-.338a1.473,1.473,0,0,0-.109-.117c-.26-.21-.486-.454-.706-.668a.577.577,0,0,0-.322-.007c-.083.017-.175.086-.178.126a.156.156,0,0,0,.071.139,2.409,2.409,0,0,1,.344.387c.034.041.06.089.092.131a.337.337,0,0,0,.056.056q.154.127.311.251s.021-.008.032-.013c-.01-.067-.088-.1-.065-.184a.129.129,0,0,1,.155.021c.074.076.135.163.206.242a6.54,6.54,0,0,1,.555.63,5.923,5.923,0,0,0,.515.609,3.8,3.8,0,0,1,.458.5c.047.076.142.119.212.181q.224.2.444.4a.241.241,0,0,1,.071.227l-.026,0,.027-.008a1.322,1.322,0,0,1,.167.111.522.522,0,0,1,.09.128c.019.031-.007.106-.037.113a.146.146,0,0,1-.081,0,.911.911,0,0,1-.281-.221c-.082-.086-.174-.163-.3-.278a1.369,1.369,0,0,0,.338.53.558.558,0,0,1,.215.333.138.138,0,0,1-.193.009c-.2-.137-.392-.276-.59-.412a.314.314,0,0,0-.111-.048.132.132,0,0,0-.074.026.047.047,0,0,0-.014.04.583.583,0,0,0,.085.179c.209.222.426.437.639.655.036.037.069.078.1.117-.032.028-.058.063-.071.06a.383.383,0,0,1-.294-.185c-.017-.036-.013-.086-.037-.115a.265.265,0,0,0-.1-.053c-.025-.01-.057-.01-.076-.026s-.049-.062-.079-.087-.049-.059-.111-.01c.032.04.065.078.093.12s.023.057-.066.131a.738.738,0,0,1-.4-.547c-.084-.017-.154-.026-.22-.044a.223.223,0,0,1-.154-.118c-.022-.048-.031-.1-.091-.124-.091-.034-.136-.113-.194-.188-.1-.133-.231-.247-.331-.387-.058-.081-.179-.112-.271-.166s-.128-.134-.252-.1c-.044.01-.1-.033-.14-.065a2.391,2.391,0,0,1-.177-.174c-.015-.068.069-.069.1-.108a.091.091,0,0,0,.015-.119c-.034-.039-.089-.06-.121-.1-.051-.066-.133-.087-.193-.136s-.076-.143-.131-.2a2.845,2.845,0,0,0-.305-.243c-.043-.032-.089-.056-.1-.116-.027-.129-.133-.2-.214-.283a.448.448,0,0,0-.373-.132v.005c.02-.12-.061-.177-.132-.235a3.677,3.677,0,0,1-.425-.363c-.114-.128-.273-.215-.345-.382-.157-.071-.221-.227-.319-.352-.065-.083-.135-.161-.2-.238.189-.231.189-.231.014-.419l-.026-.03c-.022-.028.005-.094.048-.1a.912.912,0,0,1,.126-.013,1.728,1.728,0,0,0-.365-.474.076.076,0,0,0-.071.014.084.084,0,0,0-.015.075c.058.1.185.148.2.282a.108.108,0,0,1-.146-.028,1.254,1.254,0,0,0-.389-.337c-.043-.019-.063-.08-.091-.124-.014-.022-.015-.065-.034-.071-.256-.075-.314-.353-.511-.49a.282.282,0,0,1-.135-.32c.008-.031-.065-.071-.1-.107l-.094.108c-.207-.085-.157-.283-.148-.462-.062-.083-.158-.027-.255-.033a.732.732,0,0,0-.27-.263.526.526,0,0,1-.3-.309c-.016-.048-.071-.078-.1-.122-.071-.108-.237-.128-.254-.285l-.261-.132,0-.191V30.9c-.006-.025,0-.062-.02-.073a.243.243,0,0,0-.113-.039.208.208,0,0,1-.209-.158.21.21,0,0,0-.251-.16.129.129,0,0,1-.08-.011,1.062,1.062,0,0,1-.38-.35.638.638,0,0,0-.235-.251.606.606,0,0,1-.174-.164.629.629,0,0,0-.267-.233.227.227,0,0,1-.119-.1c-.06-.139-.2-.168-.317-.225a.987.987,0,0,1-.087-.055.686.686,0,0,0-.51-.5,1.2,1.2,0,0,0-.148-.066.639.639,0,0,1-.363-.234c-.083-.094-.079-.11.073-.224-.1-.221-.326-.3-.489-.453a.157.157,0,0,0-.2-.017.066.066,0,0,1-.1-.032.124.124,0,0,0-.151-.1.222.222,0,0,1-.249-.165.059.059,0,0,0-.1-.026c-.018.015-.016.054-.026.081a.183.183,0,0,1-.026.037.21.21,0,0,1-.191-.178c-.01-.037-.009-.083-.059-.09-.2-.029-.248-.176-.262-.354a.145.145,0,0,0-.046-.106c-.122-.073-.087-.257-.216-.327-.069-.038-.122-.1-.189-.142-.115-.071-.125-.105-.032-.2.042-.042.111-.055.128-.124a1.2,1.2,0,0,0-.321-.281c-.174-.122-.349-.242-.517-.37a.963.963,0,0,1-.229-.221,1.1,1.1,0,0,0-.373-.356,3.376,3.376,0,0,1-.389-.282.666.666,0,0,1-.129-.149,1.089,1.089,0,0,0-.327-.34,1.425,1.425,0,0,1-.313-.36,1.68,1.68,0,0,1-.106-.169.754.754,0,0,0-.395-.112c-.152.011-.221-.074-.272-.2-.1-.242-.116-.248-.413-.32a.441.441,0,0,0,0,.07.068.068,0,0,0,.022.033l.932.934c.019.019.047.029.062.05.345.48.809.848,1.19,1.294.061.071.113.149.171.222a.467.467,0,0,0,.105.117,2.893,2.893,0,0,1,.527.49c.383.391.767.781,1.182,1.139.091.078.171.168.256.253q.62.625,1.239,1.251a1.38,1.38,0,0,1,.177.217,2.972,2.972,0,0,0,.522.642c-.022.071-.06.093-.1.073a.257.257,0,0,1-.087-.08.812.812,0,0,0-.295-.266.313.313,0,0,1-.159-.173.246.246,0,0,0-.293-.165c-.077.01-.087-.065-.028-.148.074-.1.056-.2-.036-.234-.06-.024-.141.1-.179,0-.032-.085-.105-.115-.173-.158a1.9,1.9,0,0,1-.153-.128c-.114-.092-.132-.09-.364.023.086.119.169.236.255.35a.292.292,0,0,0,.086.08,1.194,1.194,0,0,1,.319.3c.246.3.554.536.783.849.276.111.362.421.6.574.063.04.086.133.133.2a.3.3,0,0,0,.11.109.885.885,0,0,1,.276.225,3.556,3.556,0,0,0,.331.291,2.172,2.172,0,0,1,.626.667.377.377,0,0,0,.078.09c.4.375.744.8,1.132,1.183.616.609,1.206,1.245,1.858,1.819.17.15.322.319.5.494,0,.03.074-.05.018-.027a.1.1,0,0,1-.013-.034c-.011-.1-.04-.189-.15-.217a.267.267,0,0,1-.21-.222.3.3,0,0,0-.123-.2.22.22,0,0,1-.09-.129c-.029-.157-.166-.231-.23-.357a1,1,0,0,0-.261-.3,3.665,3.665,0,0,1-.268-.295c-.2-.215-.4-.429-.6-.645.071-.075.1-.01.129.007a.91.91,0,0,1,.283.278c.055.074.118.156.23.146.148-.013.074.113.117.2a2.807,2.807,0,0,1,1.07.781,2.369,2.369,0,0,0,.173.167c.248.224.5.443.744.671a10.948,10.948,0,0,1,1.074,1.132,7.98,7.98,0,0,0,.9.966c.14.124.272.256.414.378.2.174.327.421.534.59a2.72,2.72,0,0,0,.486.581c.226.244.447.492.669.739.553.615,1.1,1.237,1.646,1.858.013.015.009.047.016.092a1.5,1.5,0,0,1-.31-.268c-.326-.295-.647-.6-.968-.9a1.142,1.142,0,0,1-.168-.171,4.934,4.934,0,0,0-.862-.824c-.08-.07-.163-.137-.239-.211-.317-.305-.631-.613-.947-.918a.515.515,0,0,0-.1-.06c-.017.029-.047.063-.042.073a1.136,1.136,0,0,0,.114.162,2.3,2.3,0,0,1,.387.456,3.366,3.366,0,0,1,.614.679,2.712,2.712,0,0,0,.3.266.26.26,0,0,1,.1.21c-.024,0-.053,0-.068-.009-.095-.074-.19-.148-.279-.228-.269-.24-.533-.484-.8-.721-.08-.07-.185-.11-.267-.178-.164-.135-.327-.274-.479-.423-.306-.3-.617-.591-.9-.909-.311-.349-.7-.617-.983-.995a7.841,7.841,0,0,1-.723-.747c-.075-.075-.138-.162-.208-.243a1.318,1.318,0,0,0-.442-.4c-.068-.031-.107-.114-.16-.173.018-.168-.217-.161-.2-.328-.087-.06-.173-.122-.262-.18s-.179-.072-.185-.193a.065.065,0,0,0-.053-.047c-.128,0-.2-.085-.271-.159a.451.451,0,0,0-.247-.13.341.341,0,0,0-.017-.12.77.77,0,0,0-.264-.283.079.079,0,0,0-.07.017c-.017.018-.035.059-.027.075a.429.429,0,0,0,.108.159,2.269,2.269,0,0,0,.279.15c-.006.026-.025.065-.015.077.042.05.083.113.141.132.211.068.289.26.411.413a1.405,1.405,0,0,0,.392.585l.007.028ZM65.411,17.226v0Zm18.978,20.8-.02,0,.022-.01.069.072a.1.1,0,0,0,0,.111c.018.028.04.033.065.008.006-.006,0-.029,0-.037-.024-.028-.051-.054-.076-.08.012-.052-.009-.07-.059-.062m.545.939c0-.046-.017-.067-.061-.066a1.024,1.024,0,0,0-.084-.068c-.028-.018-.05-.01-.053.015a.045.045,0,0,0,.011.033c.034.038.073.064.128.01l.072.074-.01.026Zm-7.9-3.436,0-.015.009.018Zm.293.145c.02.023.033.059.078.04,0,0,0-.025-.007-.025a.616.616,0,0,0-.072,0c-.039-.015-.051-.01-.033.011a.288.288,0,0,0,.033-.023M63.575,24.045l0-.03.009.03a.069.069,0,0,0,.014.107.041.041,0,0,0,.07-.013c.007-.011.01-.035,0-.039-.032-.021-.067-.037-.1-.054M80.562,39.6c-.016-.02-.032-.04-.05-.058s-.026-.021-.034-.017c-.025.014-.024.039.009.055a.245.245,0,0,0,.076.01ZM66.223,21.066a.688.688,0,0,0-.081,0c-.044,0-.054.023-.025.043.006,0,.025,0,.038-.01l.078-.036.017-.009ZM76.89,33.3a.2.2,0,0,0-.1-.161.046.046,0,0,0-.039.006c-.012.008-.027.025-.026.036,0,.092.029.109.166.108l.015-.008ZM47.013,2.873c0,.024-.052.071.019.067L47,2.874c.037-.127-.019-.178-.138-.2a.251.251,0,0,0,.15.195m7.04,10.188,0,.029-.009-.027a.088.088,0,0,0-.009-.108c-.024-.027-.052-.051-.1-.028-.009,0-.021.024-.019.031a.113.113,0,0,0,.032.062.556.556,0,0,0,.1.041M80.065,33.182a.879.879,0,0,0,.062.136c.01.015.047.014.072.011.04,0,.043-.062.007-.1a.136.136,0,0,0-.142-.04l-.146-.1c.016.024.024.051.043.061a.546.546,0,0,0,.1.032m.257-.261-.205-.173c.006.02.005.036.013.044.055.052.086.14.193.118l.026,0-.027.016m-5.255-8.805c-.084-.052-.075-.219-.263-.174.086.077.143.161.266.161.015.033.028.069.078.034,0,0,0-.03-.007-.03a.589.589,0,0,0-.073.009m1.665,11.131a1.017,1.017,0,0,0,.074.14c.012.017.048.018.075.02.008,0,.026-.018.032-.03a.072.072,0,0,0-.028-.1.73.73,0,0,0-.163-.023c.023-.044.03-.1-.01-.111a.258.258,0,0,1-.184-.132.788.788,0,0,0-.288-.322,1.937,1.937,0,0,1-.178-.158c-.01-.008-.044.012-.087.025a.414.414,0,0,0,.113.16,3.49,3.49,0,0,0,.644.534M46.851,5.086a.607.607,0,0,1,.228.321.833.833,0,0,0,.089.178,3.053,3.053,0,0,0,.571.654c.01.01.043,0,.077-.006a.638.638,0,0,0-.045-.113c-.095-.145-.2-.282-.288-.432-.146-.256-.273-.524-.418-.78a5.128,5.128,0,0,1-.433-.766.323.323,0,0,0-.228-.223.721.721,0,0,0,.025.177c.127.283.26.562.388.845a.736.736,0,0,1,.032.16c-.029-.038-.052-.084-.117-.08.011.069.066.066.119.068M75.414,33.762l-.008-.014.017.018a.255.255,0,0,1-.335-.114c-.031-.055-.067-.106-.1-.159H75c-.067.018-.1-.019-.139-.06-.069-.08.041-.165.027-.246-.115-.08-.139-.267-.324-.266a1.594,1.594,0,0,0-.412-.3c-.032-.18-.193-.2-.361-.237.112-.206-.058-.18-.156-.23l-.036-.285c-.15-.107-.233-.288-.411-.366a2.5,2.5,0,0,0-.305-.364.326.326,0,0,0-.3-.1c-.336-.336-.7-.646-1.036-.989a.756.756,0,0,0-.15-.132,6.061,6.061,0,0,1-.9-.731,1.239,1.239,0,0,1-.337-.389.668.668,0,0,0-.33-.283.261.261,0,0,0-.123-.019c-.02,0-.045.028-.062.047a.041.041,0,0,0,0,.041c.137.126.28.247.414.375.4.377.787.759,1.184,1.135.251.238.514.465.763.706.7.678,1.394,1.362,2.091,2.043.258.252.533.487.774.753s.567.444.792.729a.09.09,0,0,0,.146.014.834.834,0,0,1-.165-.172.522.522,0,0,0-.166-.166.233.233,0,0,1-.063-.229m-5.26-8.011a2.268,2.268,0,0,0-.427-.294,2.187,2.187,0,0,1-.335-.22c-.039-.03-.089-.1-.075-.133a.2.2,0,0,0-.076-.254.458.458,0,0,1-.176-.258.221.221,0,0,0-.168-.16,1.251,1.251,0,0,1-.623-.417,3.175,3.175,0,0,0-.332-.286c-.031-.025-.121,0-.151.044a1.189,1.189,0,0,1-.105.147.178.178,0,0,1-.236.023c-.037-.038-.053-.1-.1-.125a1.8,1.8,0,0,1-.632-.6.386.386,0,0,0-.132-.084c-.01-.006-.036,0-.04,0-.016.022-.04.054-.036.073a.517.517,0,0,0,.187.254,3.244,3.244,0,0,1,.417.368,4.655,4.655,0,0,0,.389.454c.084.086.168.171.251.257.111.115.226.226.33.348.285.336.63.611.943.918a.633.633,0,0,0,.327.151,2.03,2.03,0,0,0,.276.018c-.01.1.161.067.139.2-.033.046-.12.029-.115.131.033.022.071.066.12.075a.881.881,0,0,0,.255,0,.221.221,0,0,1,.219.085c.091.141.256.186.368.3s.222.23.346.33a4.5,4.5,0,0,0,.4.269c.017.011.047,0,.085,0a.435.435,0,0,0-.039-.112c-.03-.042-.076-.072-.109-.112-.114-.143-.247-.273-.2-.505.018-.09-.088-.146-.2-.145-.146,0-.2-.02-.205-.131a.254.254,0,0,0-.094-.206c-.053-.047-.057-.146-.084-.222,0-.009-.019-.012-.04-.023-.069.021-.143.125-.236.053.023-.063.048-.129.069-.2.011-.036-.033-.065-.084-.053a.431.431,0,0,0-.081.039Zm2.089-2.122c.058.053.138.086.15.179.006.049,0,.081-.064.083a.092.092,0,0,0-.1.067.094.094,0,0,0,.016.076c.247.26.492.523.747.776.473.469.964.919,1.423,1.4.083.087.165.175.256.253.141.122.269.256.4.391a5.053,5.053,0,0,0,.7.668c.148.049.288-.094.4,0a.247.247,0,0,1-.019.082c-.046.072-.075.136.017.172.057.022.067.077.088.127a.492.492,0,0,0,.262.231l.059-.084c.087.035.176.061.2.176a.667.667,0,0,0,.278.43,1.465,1.465,0,0,1,.217.233,1.548,1.548,0,0,0,.464.435.266.266,0,0,1,.116.109c.137.255.391.4.565.619a.893.893,0,0,0,.283.221.446.446,0,0,1,.205.179c.05.091.171.118.207.234a.465.465,0,0,0,.344.309.262.262,0,0,1,.174.152.777.777,0,0,0,.4.376.551.551,0,0,1,.329.329.1.1,0,0,0,.083.069.34.34,0,0,1,.143.069c.2.194.4.394.6.592.053.054.031.129.025.217a1.013,1.013,0,0,1,.5.3,7.674,7.674,0,0,1,.889.8.6.6,0,0,0,.058.054q.036.033.07-.008c0-.014,0-.033,0-.041-.291-.311-.6-.606-.865-.942-.132-.167-.26-.339-.405-.494s-.312-.29-.466-.436c-.067-.064-.127-.138-.19-.206a3.425,3.425,0,0,1-.243-.316,2.748,2.748,0,0,0-.331-.285c-.418-.411-.83-.827-1.244-1.242a.243.243,0,0,0-.228-.067c-.021,0-.043-.023-.064-.036l.023-.131a.73.73,0,0,0-.067-.093c-.057-.058-.08-.143-.128-.2s-.166-.078-.249-.12c-.12-.061-.255-.114-.309-.245a.709.709,0,0,0-.372-.348,1.8,1.8,0,0,1-.205-.124c-.1-.068-.188-.142-.275-.209,0-.081.106-.051.121-.139a2.659,2.659,0,0,0-.434-.388,1.776,1.776,0,0,1-.358-.314c-.089-.1-.146-.224-.228-.329s-.215-.154-.291-.272a1.749,1.749,0,0,0-.488-.407.093.093,0,0,0-.118,0,.15.15,0,0,1-.2-.006,1.364,1.364,0,0,1-.2-.184s.009-.025.015-.037c.075-.063.132.023.2,0,.006-.011.016-.022.016-.032a.3.3,0,0,0-.168-.26.647.647,0,0,1-.329-.282c-.014-.033-.058-.052-.092-.072-.093-.054-.19-.1-.283-.157a.233.233,0,0,0-.2,0c-.045.015-.074-.021-.086-.063s-.023-.079-.034-.119v.013c.005-.014.017-.03.015-.041-.03-.144-.063-.289-.217-.341a.571.571,0,0,1-.218-.16.175.175,0,0,0-.147-.046h.012a3.028,3.028,0,0,1-.591-.458.1.1,0,0,1-.024-.074.183.183,0,0,1,.034-.078c.006-.009.026-.014.039-.016.1-.015.16.131.329.011a.871.871,0,0,1-.467-.415l-.34-.162-.125.051a.19.19,0,0,1-.14-.061c-.1-.1-.215-.188-.327-.275-.025-.02-.071-.015-.109-.021a.216.216,0,0,0,.079.226,1.028,1.028,0,0,0,.167.1.277.277,0,0,1,.142.178c.011.042.056.054.1.029a.142.142,0,0,0,.053-.066,1.007,1.007,0,0,0,.035-.125m-15.01-7.7c-.095-.052-.181-.09-.257-.141s-.947-.9-1-.971c-.017-.021-.03-.044-.047-.065A11.108,11.108,0,0,0,54.9,13.69a1.411,1.411,0,0,1-.444-.4.337.337,0,0,0-.1-.072.235.235,0,0,0-.078-.024.051.051,0,0,0-.04.012c-.015.022-.038.062-.03.071.2.232.395.47.608.69.661.679,1.324,1.356,2,2.023q1.293,1.283,2.6,2.548c.817.785,1.678,1.525,2.466,2.341.584.6,1.186,1.192,1.777,1.789.169.171.329.35.5.523a.375.375,0,0,0,.1.055c.049-.033.076-.078.06-.114a1.663,1.663,0,0,0-.444-.56,3.282,3.282,0,0,0-.43-.293.823.823,0,0,1-.4-.5,1.326,1.326,0,0,1-.333-.259c-.083-.127-.257-.152-.306-.31a.2.2,0,0,0-.113-.1.507.507,0,0,1-.258-.244.568.568,0,0,0-.305-.236c-.019-.044-.037-.08-.051-.118-.051-.146-.117-.274-.288-.309a.133.133,0,0,1-.084-.077A.636.636,0,0,0,61,19.816a.885.885,0,0,1-.337-.334,1.922,1.922,0,0,0-.531-.535,1.434,1.434,0,0,1-.469-.466.505.505,0,0,0-.14-.14c-.051-.043-.121-.068-.16-.12a5.284,5.284,0,0,0-.547-.526,4.907,4.907,0,0,1-.823-.923.7.7,0,0,0-.226-.223,1.463,1.463,0,0,1-.529-.619M75.786,32.19a.444.444,0,0,0-.05-.145,1.456,1.456,0,0,0-.556-.5A.42.42,0,0,1,75,31.39c-.063-.083-.114-.194-.2-.236-.192-.09-.29-.269-.433-.4a1.06,1.06,0,0,1-.286-.318.136.136,0,0,0-.1-.062.3.3,0,0,1-.267-.217.134.134,0,0,0-.117-.094c-.146-.032-.025-.171-.085-.281a1.4,1.4,0,0,0-.2-.194,1.492,1.492,0,0,0-.229-.076,1.417,1.417,0,0,1-.244-.141.274.274,0,0,1-.1-.169c-.033-.139-.041-.135-.233-.1.008.024.009.054.024.07.24.249.476.5.726.743q1.025.982,2.021,1.994a1.825,1.825,0,0,0,.266.241.694.694,0,0,1,.33.53.293.293,0,0,0,.154.225c.1.064.2.135.3.2a.327.327,0,0,0,.248.012c.067-.016.125-.133.078-.176-.118-.106-.167-.27-.3-.361-.178-.119-.353-.241-.569-.388M64.73,23.639c-.012.088-.029.125-.018.139a3.666,3.666,0,0,0,.258.3q.689.7,1.384,1.385c.34.338.674.682,1.024,1.009.515.481,1.042.95,1.537,1.452a6.369,6.369,0,0,0,.515.438.082.082,0,0,0,.078-.008.2.2,0,0,0,.053-.112.119.119,0,0,0-.058-.1c-.138-.043-.2-.155-.288-.256a1.673,1.673,0,0,0-.448-.394,2.819,2.819,0,0,1-.273-.17,1.9,1.9,0,0,1-.575-.548c-.047-.082-.077-.188-.174-.21-.126-.029-.116-.179-.22-.218a.628.628,0,0,1-.307-.3,1.116,1.116,0,0,0-.355-.373c-.109-.072-.207-.157-.32-.227a1.521,1.521,0,0,1-.275-.284c-.027-.029-.055-.058-.084-.085-.444-.421-.9-.831-1.308-1.289-.035-.039-.074-.074-.147-.147M50.956,10.055c-.1-.214-.164-.373-.24-.526a.264.264,0,0,0-.179-.149.275.275,0,0,1-.187-.14,5.336,5.336,0,0,0-.34-.483c-.136-.2-.287-.384-.425-.581a.705.705,0,0,0-.167-.167,2.807,2.807,0,0,1-.266-.239c-.135-.128-.263-.264-.405-.383a.38.38,0,0,1-.146-.18c-.014-.047-.068-.077-.105-.113s-.1-.06-.114-.106c-.08-.224-.3-.335-.4-.545-.022-.048-.088-.031-.2.047.026.043.054.085.078.129.058.1.076.239.225.262a.082.082,0,0,1,.058.052c.053.19.263.267.3.469a.884.884,0,0,0,.519.415.344.344,0,0,1,.26.223c.1.217.2.444.456.534a.368.368,0,0,0,.088.387c.029.028.055.058.084.086.26.248.519.5.781.743.086.08.18.151.318.267M65.45,24.917a1.013,1.013,0,0,0-.08-.129q-.465-.495-.932-.988a1.5,1.5,0,0,1-.159-.178,2.7,2.7,0,0,0-.369-.419c-.163-.158-.317-.324-.477-.485-.432-.435-.863-.872-1.3-1.3-.072-.071-.132-.167-.267-.178a.4.4,0,0,0,.054.112c.1.1.222.193.317.3s.179.267.286.385.265.224.379.353c.193.221.369.457.552.686a.623.623,0,0,0,.275.224.348.348,0,0,1,.18.151c.116.215.342.333.456.548a.231.231,0,0,0,.085.084,2.3,2.3,0,0,1,.568.558,1.061,1.061,0,0,0,.433.273m.215.178a.921.921,0,0,0,.474.62c.035.016.053.059.083.085.142.12.218.3.38.406s.242.279.4.382c.076.049.114.147.184.2a16.413,16.413,0,0,1,1.369,1.278c.074.076.153.148.232.22.043.039.063.033.121-.035a1.744,1.744,0,0,0-.238-.266,2.283,2.283,0,0,1-.477-.418,1.531,1.531,0,0,1-.5-.505,2.713,2.713,0,0,0-.213-.238q-.528-.516-1.061-1.026c-.249-.238-.5-.471-.757-.707m8.721,7.189a.509.509,0,0,0,.06.1c.224.228.448.457.677.679.086.083.186.151.279.226.03.024.072.043.086.077.1.22.309.326.461.491.024.026.075.027.115.035.008,0,.025-.015.033-.026s.014-.03.01-.034c-.035-.038-.073-.074-.11-.111-.1-.1-.241-.186-.3-.314-.073-.156-.234-.21-.317-.351a2.533,2.533,0,0,0-.877-.8.088.088,0,0,0-.118.036m-12.9-10.408c.113.156.153.362.328.475.076.049.123.137.193.2a1.438,1.438,0,0,0,.3.255c.125.058.13.223.229.314.253.234.493.482.739.724a.066.066,0,0,0,.039.01c.012,0,.032,0,.038-.005s.041-.058.035-.066a5.479,5.479,0,0,0-.72-.793,4.75,4.75,0,0,1-.453-.443,7.683,7.683,0,0,0-.731-.666M49.082,5.456c-.012-.116.036-.207-.026-.278s-.11-.155-.209-.176a.187.187,0,0,0-.117.042.1.1,0,0,0-.023.079.24.24,0,0,0,.049.107c.1.109.2.215.3.32a2.524,2.524,0,0,0,.337.334c.122.087.157.249.3.313.036.017.068.039.114.065.009-.051.033-.1.019-.126a.657.657,0,0,0-.138-.192,1.449,1.449,0,0,1-.292-.424,1.043,1.043,0,0,1-.048-.11c-.1-.057-.165,0-.26.045m15.837,19.98c.026.153.159.194.225.292a2.823,2.823,0,0,0,.82.86.621.621,0,0,1,.086.083c.269.255.537.51.808.763.016.015.052.011.09.017a.349.349,0,0,0-.052-.111,11.433,11.433,0,0,1-.923-.939c-.078-.09-.172-.166-.259-.249-.23-.221-.46-.442-.692-.661a.5.5,0,0,0-.1-.055m11.446,8.751,1.352,1.334c.046.045.086.023.147-.084,0-.013,0-.031-.008-.038a.682.682,0,0,1-.2-.245c-.112-.019-.2-.068-.2-.2a1.858,1.858,0,0,0-.293-.2,1.109,1.109,0,0,1-.353-.25c-.117-.123-.235-.245-.358-.361-.027-.025-.074-.013-.09.044m-6.048-3.46a1.294,1.294,0,0,0,.108.139q.877.863,1.758,1.723s.019,0,.053,0c-.659-.616-1.232-1.293-1.919-1.861m4.722,4.606c.027-.037.055-.06.055-.081a.093.093,0,0,0-.036-.066,10.407,10.407,0,0,1-1.2-1.111,2.249,2.249,0,0,0-.272-.232c-.024-.02-.05-.006-.074.056.528.442,1.017.945,1.522,1.434M71.384,23.023l.07-.242c-.08-.05-.213-.022-.25-.117-.044-.114-.145-.148-.236-.2s-.172-.167-.293-.192a.088.088,0,0,0-.034.118c.087.154.258.229.356.365a.94.94,0,0,0,.386.272M51.992,12.911c-.007.079-.014.1-.008.1.066.063.134.124.2.186.038.034.093.06.11.105.08.211.272.316.42.462a.045.045,0,0,0,.036,0,.159.159,0,0,0,.024-.074.12.12,0,0,0-.04-.066c-.242-.221-.453-.474-.743-.719M70.426,31.48a8.57,8.57,0,0,0,1.145,1.131,13.135,13.135,0,0,0-1.145-1.131m1.883.132a5.712,5.712,0,0,0-.564-.535.043.043,0,0,0-.04,0c-.014.02-.037.054-.03.064a3.188,3.188,0,0,0,.543.566c.018.017.075-.026.091-.093M70,29.345a1.548,1.548,0,0,0-.082-.188.386.386,0,0,0-.1-.119,3.517,3.517,0,0,1-.518-.437.376.376,0,0,0-.1-.057.049.049,0,0,0-.041.012c-.009.009-.016.035-.011.04a1.29,1.29,0,0,1,.2.193,1.773,1.773,0,0,0,.284.274,2.323,2.323,0,0,0,.379.282m-6.773-11.07c.1.1.2.206.308.307a1.863,1.863,0,0,0,.178.155.084.084,0,0,0,.076-.011c.014-.011.025-.059.015-.068-.142-.134-.285-.267-.436-.391a.086.086,0,0,0-.14.008M48.385,4.722a1.17,1.17,0,0,0,.016.121.177.177,0,0,0,.127.146c.1.02.11-.073.147-.135s.087-.124.14-.2a.469.469,0,0,0-.43.067m1.547-3.2c.184.381.183.382.4.531a.064.064,0,0,0,.1-.026c-.071-.235-.273-.344-.506-.505M87.154,37.986c-.051.015-.082.062-.058.091.048.057.121.093.174.147s.087.13.143.18a.348.348,0,0,0,.146.047c.006,0,.021-.02.032-.031a1.506,1.506,0,0,0-.437-.434M60.359,12.372a2.583,2.583,0,0,0,.481.5c.019-.015.037-.023.04-.033s.02-.06.01-.074a1.155,1.155,0,0,0-.531-.388m4.094,7.119.045-.028c-.009-.023-.01-.056-.027-.069a.7.7,0,0,1-.31-.442c0-.014-.046-.023-.071-.021s-.079.078-.065.1a.332.332,0,0,0,.041.068c.128.131.259.26.388.389m2.127,1.693a.228.228,0,0,0-.241.025.089.089,0,0,0-.028.114.472.472,0,0,0,.115.106c.036.025.13-.008.157-.048s.034-.17,0-.2m-5.924-.158c.03.1.029.138.045.152a4.692,4.692,0,0,1,.53.529c.005.006.058-.013.064-.028s.005-.063-.009-.072a2.04,2.04,0,0,1-.454-.437,1.755,1.755,0,0,0-.176-.145m-1.288-1.24a.725.725,0,0,0-.268-.3c-.017-.011-.051,0-.077,0s-.049.074-.018.107a1.936,1.936,0,0,0,.2.187c.025.019.076,0,.163.007m14.365,2.9c0,.011-.014.027-.011.034a2.2,2.2,0,0,0,.469.513c.007.006.026,0,.039,0,0-.027.016-.065,0-.078-.152-.161-.307-.319-.463-.476,0,0-.025.006-.038.01M78.49,38.365c-.385-.455-.385-.455-.586-.548a3.116,3.116,0,0,0,.586.548m3.172-4.136a1.688,1.688,0,0,0,.313.282.04.04,0,0,0,.035-.008c.013-.023.035-.059.028-.072a.482.482,0,0,0-.334-.246c-.006,0-.018.018-.041.044m-23.7-15.739a1.991,1.991,0,0,0-.443-.477c-.01.034-.022.053-.017.059a1.841,1.841,0,0,0,.265.285c.059.044.076.145.2.134M70.783,30.113a1.9,1.9,0,0,0,.621.621c-.054-.074-.081-.118-.114-.155a2.8,2.8,0,0,0-.507-.465M68.89,20.556c-.006.013-.02.029-.017.038.036.106.138.153.207.229a.04.04,0,0,0,.04,0c.019-.018.048-.045.047-.063a.221.221,0,0,0-.24-.22c-.011,0-.025.011-.037.017M46.369,2.835c-.02-.017-.037-.041-.062-.047a.143.143,0,0,0-.075.017.045.045,0,0,0-.018.034.415.415,0,0,0,.163.308c.009.007.033.012.039.006a.14.14,0,0,0,.047-.062.3.3,0,0,0-.095-.256M52.2,11.157c.084.208.133.249.383.353-.115-.109-.177-.264-.383-.353M72.949,32.312a.74.74,0,0,0-.3-.339.075.075,0,0,0-.042,0c-.014,0-.039.007-.04.013-.006.024-.016.062-.005.07.064.046.134.084.2.125s.079.147.188.131M59.632,11.66c.172.182.278.3.388.408.017.017.046.052.1-.013a1.966,1.966,0,0,0-.484-.4M72.41,28.727c-.072-.128-.072-.128-.289-.021a.183.183,0,0,0,.167.171l.122-.15M70.977,27.3c-.111-.167-.111-.167-.3-.181a.247.247,0,0,0,.3.181m8.532,5.9-.2-.026c.093.114.152.233.289.293l-.092-.267m-6.122-2.057a.625.625,0,0,0-.094-.09.1.1,0,0,0-.072,0c-.033.013-.041.08-.016.108a.165.165,0,0,0,.026.027.249.249,0,0,0,.065.039.163.163,0,0,0,.074,0c.03,0,.034-.071.017-.093m-.542-.372a.407.407,0,0,0,.151.165.08.08,0,0,0,.072-.013.074.074,0,0,0,.005-.069.2.2,0,0,0-.228-.083m.529,1.948c-.107-.172-.109-.17-.225-.206-.009.178-.009.178.225.206M67.8,28.325c.056.084.09.141.131.192a.07.07,0,0,0,.1.02.049.049,0,0,0,.019-.036c0-.025-.008-.061-.026-.071-.064-.036-.133-.063-.229-.106m6.979,7.368a.717.717,0,0,0-.328-.332c.056.187.223.229.328.332M53.065,11.98a.582.582,0,0,0,.214.3c.024.025.049.008.045-.037l-.259-.259M64.286,24.818c.008-.181.008-.181-.151-.192-.018.063.029.092.059.127a.443.443,0,0,0,.092.065m5.907,6.417a1.7,1.7,0,0,0-.136-.131c-.01-.008-.046.013-.068.026a.043.043,0,0,0,0,.037c.047.054.089.12.2.068m10.962,10.31a.42.42,0,0,0-.211-.217c.031.113.128.152.211.217M62.224,14.162c-.008.011-.025.03-.023.032q.057.073.119.142c.007.008.022.009.034.013,0-.013.017-.03.013-.037q-.049-.079-.1-.153c0-.006-.025,0-.038,0M72.673,33.041a.718.718,0,0,0-.248-.229.573.573,0,0,0,.248.229m-.1-2.573a.5.5,0,0,0-.233-.238.387.387,0,0,0,.233.238m7.184,8.453a.67.67,0,0,0-.218-.171c-.008,0-.029.009-.037.019a.044.044,0,0,0-.005.039.283.283,0,0,0,.26.113m2.585-4.189a.111.111,0,0,0-.007-.038c-.05-.079-.1-.1-.154-.061a.048.048,0,0,0-.019.032c0,.056.052.086.144.087.011,0,.023-.013.035-.02m-7.7-.718h0a.489.489,0,0,0-.056-.054.042.042,0,0,0-.036.006c-.009.022-.025.056-.016.068.023.031.06.05.086.079s.051.034.065,0-.008-.049-.017-.073-.018-.019-.027-.028m5.893-.426a.13.13,0,0,0-.133-.118c-.01,0-.026.015-.033.027a.051.051,0,0,0-.008.04c.036.067.1.07.174.051M80.384,39.8a.22.22,0,0,0-.062-.049.12.12,0,0,0-.07.012.045.045,0,0,0-.012.038.3.3,0,0,0,.06.095c.032.028.118,0,.113-.022a.353.353,0,0,0-.03-.074M59.914,20.3c-.091-.091-.131-.137-.178-.176-.022-.018-.048,0-.057.03a.035.035,0,0,0,.009.033c.054.029.11.055.226.113m-3.352-3.122a.241.241,0,0,0,.058.048.26.26,0,0,0,.077.007c0-.025.016-.054.009-.073a.157.157,0,0,0-.147-.1.04.04,0,0,0-.03.016.053.053,0,0,0,0,.04.543.543,0,0,0,.038.066m7.34,7.256.033.015a.383.383,0,0,0,.024-.063.046.046,0,0,0-.012-.036.138.138,0,0,0-.054-.043c-.027-.008-.04.057-.015.1a.188.188,0,0,0,.025.028m3.57,3.548a.211.211,0,0,0,.156.175c-.005-.086-.053-.136-.156-.175m.874-7.921c0,.014-.006.036,0,.04a1.328,1.328,0,0,0,.135.071.052.052,0,0,0,.037-.009c0-.022.012-.051,0-.066a.123.123,0,0,0-.137-.054.179.179,0,0,0-.038.019m.405.249c-.031-.012-.066-.028-.1-.039a.045.045,0,0,0-.034.02c-.007.023-.018.062-.008.069a.351.351,0,0,0,.106.042.05.05,0,0,0,.037-.014.421.421,0,0,0,0-.077M83.04,36.637c.072.081.1.111.124.139s.053.021.074-.011.011-.055-.022-.066l-.176-.062M67.481,23.425a.8.8,0,0,0,.09.106c.016.013.045.01.068.015-.005-.022,0-.054-.018-.064a.822.822,0,0,0-.141-.057M78.608,35.988a.186.186,0,0,0-.156-.15c.048.119.048.119.156.15m-4.464-3.933a.264.264,0,0,0-.166-.166l.166.166M48.97,7.1c-.1-.073-.108-.151-.212-.154a.252.252,0,0,0,.212.154M81.683,39.959c-.009.011-.022.02-.023.03a.064.064,0,0,0,.007.039.15.15,0,0,0,.13.081.059.059,0,0,0,.038-.022c.008-.01.016-.031.011-.039a.169.169,0,0,0-.163-.089m-6-15.147c.026.014.057.051.074-.016,0-.009-.036-.025-.057-.034-.005,0-.026.011-.027.016s.006.022.01.034m7.53,7.9c0-.012,0-.029-.011-.037a.323.323,0,0,0-.063-.046s-.026.014-.026.018a.083.083,0,0,0,.072.083c.007,0,.019-.012.028-.019m-5.725-4.3a.384.384,0,0,0-.067-.024c-.007,0-.026.016-.029.026-.013.054.027.059.064.064a.142.142,0,0,0,.038-.005l-.007-.06m8.276,8.824.069-.03-.021-.066c-.023.011-.056.017-.065.033s.01.041.017.063M69.5,21.106c0,.012-.01.031-.005.035a.806.806,0,0,0,.09.066s.017-.011.025-.017c-.023-.028-.045-.057-.071-.082-.007-.007-.026,0-.039,0M65.807,17.6c0,.024,0,.055.015.071s.106.012.108-.013a.1.1,0,0,0-.022-.069.062.062,0,0,0-.1.011M83.16,37.715c-.035.016-.051.043-.033.071a.087.087,0,0,0,.062.038c.038,0,.071-.068.044-.094s-.048-.011-.073-.015M67.307,22.184c-.011.074.04.086.078.109,0,0,.025-.009.025-.012s0-.028-.009-.035c-.028-.022-.059-.04-.093-.062m9.867,11.355c.024,0,.053.02.069.01a.1.1,0,0,0,.035-.07c0-.014-.035-.034-.052-.03a.066.066,0,0,0-.052.09m2.936,5.643a.117.117,0,0,0-.012.018c.026.025.053.049.079.073,0-.006.014-.017.013-.018a.481.481,0,0,0-.047-.056.124.124,0,0,0-.033-.017m-2.787-2.652c0,.007,0,.017,0,.022a.4.4,0,0,0,.044.058s.019,0,.029-.005,0-.026-.011-.032a.562.562,0,0,0-.059-.042m-.363-.339c-.013.007-.033.011-.038.021-.015.031,0,.053.031.059s.063-.01.06-.04-.034-.028-.053-.041m-2.624-2.407c.005.024,0,.055.018.069a.067.067,0,0,0,.065,0c.03-.02.022-.1-.009-.1s-.049.017-.074.027m1.2,1.906c0,.013,0,.032.006.038a.475.475,0,0,0,.065.042c.005-.009.016-.023.014-.026a.333.333,0,0,0-.05-.061c-.005,0-.023,0-.035.007m-5.512-5.263a.219.219,0,0,0,.032.06c.011.011.034.01.052.014a.114.114,0,0,0-.02-.032.758.758,0,0,0-.064-.042m-2.711-2.591a.111.111,0,0,0-.066-.129c-.013-.007-.041.008-.061.016a.067.067,0,0,0,0,.037.115.115,0,0,0,.124.076m-18.2-17.114a.555.555,0,0,0-.01.07s.023.005.035,0c.037,0,.054-.025.035-.049s-.04-.017-.061-.025M73.024,21.95c0,.013-.016.03-.011.037.016.026.041.026.066,0a.118.118,0,0,0,.016-.038h-.07m.416.453a.272.272,0,0,0,.015-.034.633.633,0,0,0-.063-.025.162.162,0,0,0-.013.029.626.626,0,0,0,.061.03m-3.359-.875-.022.022c.015.014.03.029.046.042a.267.267,0,0,0,.02-.02l-.044-.044M63.633,15.45l-.071-.015c0,.024,0,.056.011.069s.046.012.07.017l-.01-.071M82.553,34.6c0,.011-.011.031-.008.033.019.01.041.024.061.02s.037-.036.011-.052-.043,0-.064,0m1.027,1.54a.193.193,0,0,0,.031.024s.013-.013.02-.02a.189.189,0,0,0-.03-.026s-.014.014-.022.021M79.8,32.345l-.061.023c0,.009.01.027.012.026a.621.621,0,0,0,.06-.025l-.011-.025m-3.01-1.991a.092.092,0,0,0,.008.033.1.1,0,0,0,.029.02.089.089,0,0,0-.007-.034c-.007-.009-.02-.013-.03-.019m-1.1-.626a.059.059,0,0,0,.068,0c-.005-.024,0-.054-.017-.07s-.043-.017-.067-.022c0,0-.017.021-.015.026a.52.52,0,0,0,.031.064m8.769,8.778c.012,0,.029,0,.036-.005.026-.026.019-.045-.017-.045a.044.044,0,0,0-.03.021c0,.007.007.019.011.029M65.6,20.53c-.011,0-.025-.014-.033-.009a.045.045,0,0,0-.019.034c.006.037.027.042.051.013.006-.008,0-.025,0-.038M77.967,35.62c.005.023,0,.052.018.067s.043.014.065.021c-.005-.022,0-.05-.017-.064s-.043-.016-.066-.024m.4.476c.026,0,.053-.007.079-.013,0,0,.006-.034,0-.036-.022-.009-.051-.024-.07-.015a.036.036,0,0,0-.01.064m-6.311-6.163-.031-.019a.1.1,0,0,0,0,.035c.016.03.035.034.045.011,0-.006-.012-.018-.019-.027M52.839,11.8c0,.01.008.022.016.029a.1.1,0,0,0,.032.01.09.09,0,0,0,0-.034.044.044,0,0,0-.025-.02s-.014.01-.022.015M64.512,23.47c0,.01-.015.027-.013.028a.507.507,0,0,0,.054.03c0-.01.014-.026.012-.028a.458.458,0,0,0-.053-.031M79.295,38.561l.034,0a.247.247,0,0,0-.01-.056c0-.006-.021,0-.032-.006l.008.057M61.649,20.976c-.012,0-.029-.017-.036-.013-.032.019-.036.045-.01.066a.044.044,0,0,0,.038.008c.033-.014.035-.036.009-.061M75.123,34.6l.053.053c0-.009,0-.02,0-.027a.083.083,0,0,0-.027-.028c-.006,0-.017,0-.026,0m.295.261c0-.013,0-.03-.007-.038a.038.038,0,0,0-.037-.006c-.026.021-.022.044.012.057.007,0,.021-.009.032-.014m1.7,2.209-.035,0a.291.291,0,0,0,.019.059c0,.007.022,0,.034.006l-.017-.061m-1.641-.377a.169.169,0,0,0-.065.023c-.01.009,0,.038,0,.057.012,0,.03,0,.035-.012a.5.5,0,0,0,.032-.068m-.389-.223c-.009.025-.031.057-.024.073a.077.077,0,0,0,.064.037c.031,0,.051-.069.025-.1-.009-.012-.043-.005-.066-.007m-2.949-3.289a.084.084,0,0,0,0,.033c.005.011.015.026.026.027.031,0,.036-.015.009-.043a.112.112,0,0,0-.035-.017m-.26-.276-.034,0a.281.281,0,0,0,.017.058c0,.006.022,0,.034,0l-.016-.058m2.358,2.284c.028.025.049.025.053,0a.05.05,0,0,0-.017-.035c-.025-.027-.047-.026-.053,0,0,.011.011.023.017.034M76.618,37.4c.006.011.009.026.019.03a.038.038,0,0,0,.035-.007c.023-.031.012-.049-.027-.046-.008,0-.018.015-.027.022m-.278-.269,0-.035-.025.015Zm.466.464.022-.02-.03-.011ZM57.034,17.547l-.016.013.024.014ZM80.547,40.928c0,.011,0,.025,0,.031s.02.008.03.012,0-.025,0-.032-.02-.008-.03-.011M60.029,20.457l.032.008c0-.01.007-.028,0-.029a.305.305,0,0,0-.049-.009l.012.03M78.842,38.185c0,.013,0,.029,0,.037s.022.009.033.013c0-.013,0-.029,0-.037s-.022-.009-.033-.013M61.4,20.777c.022.023.037.02.039-.009,0-.006-.017-.01-.026-.015l-.013.024m16.155,16a.089.089,0,0,0,.015.028s.016-.005.025-.008a.1.1,0,0,0-.015-.029s-.017.006-.025.009m3.434,3.183c.025.025.041.022.041-.009,0-.007-.019-.011-.029-.016l-.012.025M47.057,5.612c0,.01.006.026.014.03.035.018.051,0,.04-.033,0-.009-.018-.016-.029-.017s-.017.013-.025.02M77.984,36.264l-.031-.008c0,.011,0,.025,0,.031s.019.006.03.009l0-.032m.665.139-.018.014.027.017Zm-.021-.915c0,.01.007.025.015.03.035.019.05.006.036-.031,0-.009-.018-.015-.029-.017s-.015.012-.022.018M65.519,22.044l.013.017.015-.025Zm1.809,1.206-.016.012.024.016Zm4.747,4.624.008.033.021-.014Zm-4.522-5.4c.013,0,.028.009.038,0a.04.04,0,0,0,.011-.035c-.019-.029-.044-.031-.06,0,0,.008.007.023.011.035m.148-.146a.077.077,0,0,0-.012-.025s-.015.006-.022.01a.085.085,0,0,0,.012.026s.015-.007.023-.01M84.008,37.7l0,.028.019-.013Zm-.552-.645.017-.014-.024-.012Zm-.8-.94c0,.01,0,.023,0,.03s.018.007.028.009,0-.023,0-.03-.018-.007-.028-.009m-.5-1.947c-.011.008-.03.015-.033.024-.011.037.006.048.042.028a.044.044,0,0,0,.016-.034c0-.008-.016-.012-.025-.018m.246.276.035.01-.011-.035ZM67.926,19.668a.087.087,0,0,0,.015.027s.015-.005.024-.009a.089.089,0,0,0-.015-.027s-.015.006-.023.009M70.39,22l0-.034-.024.016Zm4.2,1.669-.019.016.025.011Zm3.451,14.9,0-.023-.017.013ZM58.891,19.39l-.023.005.012.016ZM81.567,41.837l0-.024-.019.015Zm-7.438-8.249,0,.028.023-.017ZM66,22.718l0-.023-.017.013Z" transform="translate(-42.542 0)" fill="#212121"/>
    <path id="Tracé_3351" data-name="Tracé 3351" d="M384.521,208.3c.151-.027.185.065.252.1a.648.648,0,0,1,.152.126,3.591,3.591,0,0,0,.7.647.891.891,0,0,1,.267.3,1.909,1.909,0,0,0,.433.468q.4.332.8.668a.674.674,0,0,1,.1.123,1.384,1.384,0,0,0,.409.38.713.713,0,0,1,.207.186,2.551,2.551,0,0,0,.815.759,1.094,1.094,0,0,1,.239.212,2.438,2.438,0,0,0,.184.211c.534.428.937.987,1.447,1.438.08.071.154.148.23.223a4.786,4.786,0,0,1,.645.763c.011.016,0,.049,0,.074-.014,0-.034.017-.04.013-.151-.13-.3-.258-.45-.4-.223-.21-.439-.428-.66-.64-.1-.092-.2-.18-.3-.269q-.7-.629-1.369-1.286c-.486-.476-.961-.963-1.443-1.443-.094-.094-.2-.175-.3-.269-.181-.176-.359-.355-.53-.541s-.36-.358-.545-.529a12.192,12.192,0,0,0-.92-.883.7.7,0,0,1-.143-.139c-.063-.084-.115-.177-.19-.295" transform="translate(-365.547 -198.014)" fill="#212121"/>
    <path id="Tracé_3352" data-name="Tracé 3352" d="M684.445,766.665c.137.137.253.264.381.379.275.248.558.487.854.712a1.02,1.02,0,0,1,.348.321c.05.1.2.073.261.175a.122.122,0,0,1-.039.151.1.1,0,0,1-.119.017.117.117,0,0,1-.053-.056c-.055-.13-.124-.24-.3-.226a.09.09,0,0,1-.073-.03c-.086-.123-.241-.169-.334-.273a2.434,2.434,0,0,0-.527-.415,5.723,5.723,0,0,1-.938-.74.542.542,0,0,1-.078-.138c-.023-.044-.071-.023-.109-.03a.061.061,0,0,1-.033-.1c.065-.1.136-.13.222-.1a.239.239,0,0,1,.193.184c.01.054.008.111.017.165.012.071.076.1.159.067l.164-.061" transform="translate(-649.94 -728.488)" fill="#212121"/>
    <path id="Tracé_3353" data-name="Tracé 3353" d="M399.121,490.856c.169.223.435.358.56.622a.171.171,0,0,0,.083.075.75.75,0,0,1,.375.4.631.631,0,0,0,.42.4c.1.028.132.125.127.233a.06.06,0,0,1-.027.036.042.042,0,0,1-.037,0,.628.628,0,0,1-.127-.094,3.161,3.161,0,0,0-.468-.43,4.982,4.982,0,0,1-.537-.534c-.111-.115-.211-.241-.327-.35-.292-.274-.547-.583-.834-.861a.744.744,0,0,1-.192-.477c0-.009.018-.031.029-.033s.066-.01.071,0c.05.113.1.22.236.256a.1.1,0,0,1,.058.051c.125.3.4.464.589.7" transform="translate(-378.492 -465.67)" fill="#212121"/>
    <path id="Tracé_3354" data-name="Tracé 3354" d="M319.065,145.013c-.061-.01-.078-.008-.087-.015a11.021,11.021,0,0,1-1.014-.9c-.208-.224-.435-.429-.656-.641q-.749-.719-1.5-1.437a.146.146,0,0,1-.029-.073.046.046,0,0,1,.021-.035c.025-.007.061-.018.074-.007a3.92,3.92,0,0,1,.719.618.612.612,0,0,0,.235.213.274.274,0,0,1,.171.211.217.217,0,0,0,.119.154c.056.034.129.059.161.112a.956.956,0,0,0,.427.4c.066.03.086.1.107.163a.32.32,0,0,0,.211.222.767.767,0,0,1,.266.174c.237.233.466.475.7.716a.786.786,0,0,1,.076.129" transform="translate(-300.199 -134.894)" fill="#212121"/>
    <path id="Tracé_3355" data-name="Tracé 3355" d="M353.766,430.978c.658.639,1.243,1.236,1.836,1.839-.1.035-.116-.035-.151-.069-.181-.177-.355-.36-.536-.536a1.791,1.791,0,0,0-.3-.261c-.17-.1-.286-.269-.451-.377a.4.4,0,0,1-.159-.175c-.038-.1-.121-.136-.2-.187-.029-.02-.027-.022-.044-.233" transform="translate(-336.309 -409.711)" fill="#212121"/>
    <path id="Tracé_3356" data-name="Tracé 3356" d="M880.412,800.455a.759.759,0,0,1,.467.342.944.944,0,0,0,.212.227.34.34,0,0,1,.11.332c0,.01-.018.023-.029.03s-.029.013-.035.008a1.641,1.641,0,0,1-.18-.152c-.144-.154-.276-.319-.426-.467a.423.423,0,0,1-.117-.333Z" transform="translate(-836.968 -760.944)" fill="#212121"/>
    <path id="Tracé_3357" data-name="Tracé 3357" d="M438.054,517.2a.853.853,0,0,1,.38.342.878.878,0,0,0,.185.206c.3.283.6.565.892.851a.449.449,0,0,1,.073.138.041.041,0,0,1-.009.037c-.023.013-.057.035-.073.027a.466.466,0,0,1-.131-.088q-.575-.58-1.145-1.163a1.316,1.316,0,0,1-.129-.152.229.229,0,0,1-.031-.2Z" transform="translate(-416.438 -491.681)" fill="#212121"/>
    <path id="Tracé_3358" data-name="Tracé 3358" d="M289.115,117.384c-.111-.111-.224-.222-.332-.336a.07.07,0,0,1,0-.067.1.1,0,0,1,.076-.018.911.911,0,0,1,.217.1,2.666,2.666,0,0,1,.3.255c.045.044.059.119.106.161a1.011,1.011,0,0,0,.174.09.106.106,0,0,1,.013.15.1.1,0,0,1-.111.052.234.234,0,0,1-.1-.058c-.114-.109-.224-.222-.336-.334l-.006.006" transform="translate(-274.524 -111.189)" fill="#212121"/>
    <path id="Tracé_3359" data-name="Tracé 3359" d="M418.181,498.261a.785.785,0,0,0-.186-.148,2.611,2.611,0,0,1-.841-.718c-.016-.016-.012-.051-.017-.077a.235.235,0,0,1,.075-.039.1.1,0,0,1,.074.026,9.168,9.168,0,0,1,.844.846.35.35,0,0,1,.039.112Z" transform="translate(-396.553 -472.74)" fill="#212121"/>
    <path id="Tracé_3360" data-name="Tracé 3360" d="M224.268,317.331a2.346,2.346,0,0,1,.193.15c.011.01,0,.059-.015.074a.076.076,0,0,1-.074.008q-.229-.223-.449-.454a.075.075,0,0,1,0-.074.1.1,0,0,1,.079-.019c.038.007.071.043.107.04.093-.009.122.043.136.116.01.054.014.11.02.159" transform="translate(-212.866 -301.372)" fill="#212121"/>
    <path id="Tracé_3361" data-name="Tracé 3361" d="M340.89,419.438c-.031.017-.064.045-.078.039a.406.406,0,0,1-.172-.1,1.448,1.448,0,0,0-.245-.255.113.113,0,0,1-.02-.149c.013-.005.026-.015.037-.014a.055.055,0,0,1,.036.017,4.007,4.007,0,0,1,.442.457" transform="translate(-323.562 -398.29)" fill="#212121"/>
    <path id="Tracé_3362" data-name="Tracé 3362" d="M886.538,790.783c-.024.076-.079.1-.125.059-.119-.1-.229-.219-.341-.331a.189.189,0,0,1-.035-.071.043.043,0,0,1,.009-.036c.021-.019.049-.047.069-.047.04,0,.1.007.11.032a.893.893,0,0,0,.313.395" transform="translate(-842.314 -751.357)" fill="#212121"/>
    <path id="Tracé_3363" data-name="Tracé 3363" d="M407.511,485.756c-.177-.058-.314-.121-.349-.3-.007-.036-.052-.057-.074-.09a.188.188,0,0,1-.014-.064c.013,0,.031,0,.039.009.113.109.227.218.336.33a.543.543,0,0,1,.062.118" transform="translate(-386.987 -461.352)" fill="#212121"/>
    <path id="Tracé_3364" data-name="Tracé 3364" d="M334.382,428.135c.112,0,.159.089.222.152a3.231,3.231,0,0,0,.36.359c.021.016.012.07.017.106-.026,0-.063.006-.078-.009-.16-.155-.317-.313-.473-.471a.13.13,0,0,1-.048-.138" transform="translate(-317.877 -407.009)" fill="#212121"/>
    <path id="Tracé_3365" data-name="Tracé 3365" d="M791.551,856.428c.14.139.328.227.4.418-.025.018-.035.03-.044.031a.043.043,0,0,1-.033-.013c-.107-.145-.214-.29-.32-.436" transform="translate(-752.492 -814.168)" fill="#212121"/>
    <path id="Tracé_3366" data-name="Tracé 3366" d="M896.443,740.124c.061.027.138.038.179.083a.7.7,0,0,1,.191.3c-.213-.124-.213-.124-.359-.389Z" transform="translate(-852.208 -703.601)" fill="#212121"/>
    <path id="Tracé_3367" data-name="Tracé 3367" d="M675.314,630.425c.125.14.2.215.262.3.008.01-.01.045-.02.067,0,0-.031.008-.035,0a.739.739,0,0,1-.206-.364" transform="translate(-641.991 -599.317)" fill="#212121"/>
    <path id="Tracé_3368" data-name="Tracé 3368" d="M454.538,550.76a.929.929,0,0,1-.074-.125.093.093,0,0,1,.016-.077c.013-.016.058-.031.069-.022.08.063.156.13.231.2.023.021,0,.1-.028.114a.212.212,0,0,1-.077.01.065.065,0,0,1-.035-.017c-.031-.024-.061-.049-.1-.082" transform="translate(-432.035 -523.367)" fill="#212121"/>
    <path id="Tracé_3369" data-name="Tracé 3369" d="M803.4,748.654a.99.99,0,0,1-.342-.251.3.3,0,0,1-.049-.1.109.109,0,0,1,0-.042c.177.036.177.036.387.4" transform="translate(-763.38 -711.334)" fill="#212121"/>
    <path id="Tracé_3370" data-name="Tracé 3370" d="M741.749,815.77a1.026,1.026,0,0,1-.311-.245c.128.023.128.023.311.245" transform="translate(-704.852 -775.283)" fill="#212121"/>
    <path id="Tracé_3371" data-name="Tracé 3371" d="M242.424,336.484c.223.12.223.12.292.281-.013,0-.027.008-.037,0a.5.5,0,0,1-.255-.286" transform="translate(-230.462 -319.88)" fill="#212121"/>
    <path id="Tracé_3372" data-name="Tracé 3372" d="M380.781,476.787l.227.227c-.138-.019-.166-.137-.227-.227" transform="translate(-361.991 -453.26)" fill="#212121"/>
    <path id="Tracé_3373" data-name="Tracé 3373" d="M665.6,621.669a.436.436,0,0,1-.265-.242c.045-.047.045-.047.265.242" transform="translate(-632.505 -590.741)" fill="#212121"/>
    <path id="Tracé_3374" data-name="Tracé 3374" d="M534.533,620.33a.535.535,0,0,1,.305.278c-.2-.056-.2-.06-.305-.278" transform="translate(-508.156 -589.72)" fill="#212121"/>
    <path id="Tracé_3375" data-name="Tracé 3375" d="M546.31,364.812a.661.661,0,0,1-.267-.132.04.04,0,0,1,0-.038c.02-.014.056-.036.063-.03.058.05.111.107.2.2" transform="translate(-519.094 -346.619)" fill="#212121"/>
    <path id="Tracé_3376" data-name="Tracé 3376" d="M309.131,135.422a.159.159,0,0,1,.159-.008.122.122,0,0,1,.021.15.068.068,0,0,1-.034.028.155.155,0,0,1-.167-.132c0-.011.013-.025.02-.038" transform="translate(-293.857 -128.715)" fill="#212121"/>
    <path id="Tracé_3377" data-name="Tracé 3377" d="M476.876,565.853c.214.149.214.149.24.228-.088-.032-.14-.1-.24-.228" transform="translate(-453.345 -537.931)" fill="#212121"/>
    <path id="Tracé_3378" data-name="Tracé 3378" d="M561.091,379.14c0,.02,0,.043,0,.065a.2.2,0,0,1-.077,0c-.036-.018-.048-.1-.024-.1a.136.136,0,0,1,.071.014c.012,0,.019.017.029.028" transform="translate(-533.297 -360.391)" fill="#212121"/>
    <path id="Tracé_3379" data-name="Tracé 3379" d="M599.207,682.522a.2.2,0,0,1,.156.108.114.114,0,0,1,.006.038c-.02,0-.047.016-.059.008a.189.189,0,0,1-.1-.154" transform="translate(-569.639 -648.843)" fill="#212121"/>
    <path id="Tracé_3380" data-name="Tracé 3380" d="M236.622,320.076l-.108-.108.009-.009.108.108-.009.009" transform="translate(-224.843 -304.171)" fill="#212121"/>
    <path id="Tracé_3381" data-name="Tracé 3381" d="M793.671,738.535a.36.36,0,0,1,.1.028c.014.008.016.05.007.072a.048.048,0,0,1-.073.023.223.223,0,0,1-.06-.05c-.021-.027-.015-.051.025-.073" transform="translate(-754.472 -702.092)" fill="#212121"/>
    <path id="Tracé_3382" data-name="Tracé 3382" d="M305.335,396.2l.108.108c-.088.029-.087-.054-.108-.108" transform="translate(-290.268 -376.65)" fill="#212121"/>
    <path id="Tracé_3383" data-name="Tracé 3383" d="M560.2,645.978l.022.067a.264.264,0,0,1-.066-.016.13.13,0,0,1-.053-.049c-.007-.014,0-.038,0-.058a.12.12,0,0,1,.035.01c.02.014.038.03.057.046" transform="translate(-532.46 -614.049)" fill="#212121"/>
    <path id="Tracé_3384" data-name="Tracé 3384" d="M821.952,715.334c.012-.007.026-.02.036-.019a.181.181,0,0,1,.065.022c.006,0,.007.031,0,.035a.142.142,0,0,1-.068.037c-.019,0-.037-.023-.051-.04s.011-.023.016-.035" transform="translate(-781.377 -680.018)" fill="#212121"/>
    <path id="Tracé_3385" data-name="Tracé 3385" d="M693.631,651.328l-.009.072c-.021-.007-.05-.008-.061-.023s0-.041,0-.063l.067.013" transform="translate(-659.333 -619.176)" fill="#212121"/>
    <path id="Tracé_3386" data-name="Tracé 3386" d="M702.121,660.429l-.014-.041a.1.1,0,0,1,.026.021.2.2,0,0,1,.015.041l-.027-.021" transform="translate(-667.462 -627.801)" fill="#212121"/>
    <path id="Tracé_3387" data-name="Tracé 3387" d="M848.724,857.469c-.043-.02-.092-.033-.082-.1.052.012.087.038.082.1" transform="translate(-806.764 -815.063)" fill="#212121"/>
    <path id="Tracé_3388" data-name="Tracé 3388" d="M287.306,377.81c.021.008.054.01.06.026s-.011.047-.018.071c-.012,0-.029,0-.035-.011a.245.245,0,0,1-.035-.061s.018-.016.027-.025" transform="translate(-273.103 -359.167)" fill="#212121"/>
    <path id="Tracé_3389" data-name="Tracé 3389" d="M526.665,612.667a.227.227,0,0,1-.073-.032c-.014-.013-.012-.042-.017-.064a.207.207,0,0,1,.067.03c.014.014.016.042.023.065" transform="translate(-500.591 -582.344)" fill="#212121"/>
    <path id="Tracé_3390" data-name="Tracé 3390" d="M576.97,659.788a.338.338,0,0,1,.168.157c-.1-.005-.1,0-.156-.157Z" transform="translate(-548.499 -627.231)" fill="#212121"/>
    <path id="Tracé_3391" data-name="Tracé 3391" d="M397.508,475.491l.026.064c-.02-.009-.046-.013-.059-.028s-.056-.034-.026-.076l.058.04" transform="translate(-377.827 -451.99)" fill="#212121"/>
    <path id="Tracé_3392" data-name="Tracé 3392" d="M877.746,798.783a.109.109,0,0,1-.118-.016c-.028-.022-.031-.046,0-.069.007-.005.03,0,.038.009.029.027.054.058.08.088Z" transform="translate(-834.3 -759.286)" fill="#212121"/>
    <path id="Tracé_3393" data-name="Tracé 3393" d="M695.24,625.945a.789.789,0,0,1-.107.081c-.016.009-.043-.007-.064-.016,0,0,0-.025,0-.03a.078.078,0,0,1,.04-.015c.042,0,.084-.005.126-.008v-.013" transform="translate(-660.769 -595.058)" fill="#212121"/>
    <path id="Tracé_3394" data-name="Tracé 3394" d="M858.291,849.648c.036.011.073.02.108.033a.034.034,0,0,1,.018.03c-.008.034-.031.041-.056.014s-.046-.059-.068-.089Z" transform="translate(-815.939 -807.711)" fill="#212121"/>
    <path id="Tracé_3395" data-name="Tracé 3395" d="M389.165,485.76c-.017-.017-.034-.034-.05-.052a.2.2,0,0,1,.018-.019.636.636,0,0,1,.054.048l-.021.023" transform="translate(-369.914 -461.723)" fill="#212121"/>
    <path id="Tracé_3396" data-name="Tracé 3396" d="M463.013,551.633l.005.033c-.009,0-.025.01-.027.007a.477.477,0,0,1-.032-.053c.009,0,.021-.009.028-.007s.017.013.026.02" transform="translate(-440.114 -524.393)" fill="#212121"/>
    <path id="Tracé_3397" data-name="Tracé 3397" d="M267.8,356.506a.476.476,0,0,1,.064.038c.008.006.007.023.009.035s-.027.012-.032.008a.311.311,0,0,1-.049-.055s0-.017.008-.026" transform="translate(-254.576 -338.914)" fill="#212121"/>
    <path id="Tracé_3398" data-name="Tracé 3398" d="M264.054,352.262a.042.042,0,0,1,.034-.062.2.2,0,0,1,.07.016c-.014.023-.023.056-.042.067s-.041-.013-.062-.021" transform="translate(-251.021 -334.82)" fill="#212121"/>
    <path id="Tracé_3399" data-name="Tracé 3399" d="M284.2,354.108c.007-.005.018-.016.019-.015a.143.143,0,0,1,.021.024c-.006.005-.017.016-.018.015a.153.153,0,0,1-.022-.023" transform="translate(-270.177 -336.62)" fill="#212121"/>
    <path id="Tracé_3400" data-name="Tracé 3400" d="M748.987,816.4c.014.016.014.046.02.069-.023-.008-.053-.01-.068-.026s-.013-.047-.019-.072c.023.009.052.012.067.029" transform="translate(-711.965 -776.089)" fill="#212121"/>
    <path id="Tracé_3401" data-name="Tracé 3401" d="M349.085,443.118c.033-.013.057,0,.064.029a.131.131,0,0,1-.005.042.384.384,0,0,1-.067-.03s0-.026.008-.04" transform="translate(-331.851 -421.247)" fill="#212121"/>
    <path id="Tracé_3402" data-name="Tracé 3402" d="M78.957,170.225c-.008,0-.021.011-.024.008s-.017-.024-.014-.028c.018-.021.032-.013.038.02" transform="translate(-75.024 -161.796)" fill="#212121"/>
    <path id="Tracé_3403" data-name="Tracé 3403" d="M485.921,574.583l.019-.02.014.032Z" transform="translate(-461.943 -546.211)" fill="#212121"/>
    <path id="Tracé_3404" data-name="Tracé 3404" d="M272.122,360.814c.012,0,.029,0,.036.011s0,.024,0,.037c-.012,0-.029,0-.036-.01s0-.025-.005-.038" transform="translate(-258.694 -343.01)" fill="#212121"/>
    <path id="Tracé_3405" data-name="Tracé 3405" d="M260.125,348.866c.02,0,.05-.012.056,0s0,.04,0,.062c-.013,0-.033.007-.036,0a.3.3,0,0,1-.023-.06" transform="translate(-247.289 -331.645)" fill="#212121"/>
    <path id="Tracé_3406" data-name="Tracé 3406" d="M520.013,606.158l-.032-.018.026-.018Z" transform="translate(-494.323 -576.213)" fill="#212121"/>
    <path id="Tracé_3407" data-name="Tracé 3407" d="M297.365,383.467l-.021-.015.018-.01Z" transform="translate(-282.672 -364.521)" fill="#212121"/>
    <path id="Tracé_3408" data-name="Tracé 3408" d="M589.321,672.69l.03.016-.022.017Z" transform="translate(-560.241 -639.496)" fill="#212121"/>
    <path id="Tracé_3409" data-name="Tracé 3409" d="M254.955,338.349c-.008,0-.021.013-.024.011a.078.078,0,0,1-.014-.026c.008,0,.021-.013.024-.011a.078.078,0,0,1,.014.026" transform="translate(-242.339 -321.629)" fill="#212121"/>
    <path id="Tracé_3410" data-name="Tracé 3410" d="M247.471,330.681l.024.016-.02.012Z" transform="translate(-235.259 -314.364)" fill="#212121"/>
    <path id="Tracé_3411" data-name="Tracé 3411" d="M688.69,644.694l.018-.018.011.029Z" transform="translate(-654.707 -612.865)" fill="#212121"/>
    <path id="Tracé_3412" data-name="Tracé 3412" d="M831.563,777.22l-.011-.031a.459.459,0,0,1,.052.008.237.237,0,0,1-.007.03l-.033-.007" transform="translate(-790.519 -738.839)" fill="#212121"/>
    <path id="Tracé_3413" data-name="Tracé 3413" d="M558.007,503.321a.335.335,0,0,1,.064.03c.006,0,0,.026,0,.039a.371.371,0,0,1-.066-.029c-.005,0,0-.026,0-.039" transform="translate(-530.465 -478.485)" fill="#212121"/>
    <path id="Tracé_3414" data-name="Tracé 3414" d="M827.357,718.364l.017-.028.013.018Z" transform="translate(-786.531 -682.89)" fill="#212121"/>
    <path id="Tracé_3415" data-name="Tracé 3415" d="M565.335,385.076a.626.626,0,0,1-.065.023s-.014-.023-.011-.026c.04-.044.057-.012.075.014Z" transform="translate(-537.365 -366.05)" fill="#212121"/>
    <path id="Tracé_3416" data-name="Tracé 3416" d="M571.719,389.372l-.006-.025.021.013Z" transform="translate(-543.502 -370.135)" fill="#212121"/>
    <path id="Tracé_3417" data-name="Tracé 3417" d="M566.794,385.58l.064.02a.106.106,0,0,1-.033-.006.17.17,0,0,1-.03-.025Z" transform="translate(-538.826 -366.543)" fill="#212121"/>
    <path id="Tracé_3418" data-name="Tracé 3418" d="M699.791,509.586l-.009-.033.031.014Z" transform="translate(-665.251 -484.409)" fill="#212121"/>
    <path id="Tracé_3419" data-name="Tracé 3419" d="M504.833,314.4l.033.02-.027.018Z" transform="translate(-479.922 -298.883)" fill="#212121"/>
    <path id="Tracé_3420" data-name="Tracé 3420" d="M362.865,456.887c.013,0,.031,0,.037,0s0,.024,0,.037-.031,0-.037,0,0-.024,0-.037" transform="translate(-344.954 -434.34)" fill="#212121"/>
    <path id="Tracé_3421" data-name="Tracé 3421" d="M261.616,344.027l-.018,0,.023.005Z" transform="translate(-248.69 -327.049)" fill="#212121"/>
    <path id="Tracé_3422" data-name="Tracé 3422" d="M175.914,257.8v0Z" transform="translate(-167.234 -245.075)" fill="#212121"/>
    <path id="Tracé_3423" data-name="Tracé 3423" d="M824.9,851.047l.032-.015-.031,0Z" transform="translate(-784.199 -809.038)" fill="#212121"/>
    <path id="Tracé_3424" data-name="Tracé 3424" d="M804.792,821.678l.02.01-.018.013Z" transform="translate(-765.08 -781.132)" fill="#212121"/>
    <path id="Tracé_3425" data-name="Tracé 3425" d="M637.134,600.93l-.027-.012.022-.018Z" transform="translate(-605.669 -571.249)" fill="#212121"/>
    <path id="Tracé_3426" data-name="Tracé 3426" d="M791.284,735.384h-.018l.019,0Z" transform="translate(-752.221 -699.096)" fill="#212121"/>
    <path id="Tracé_3427" data-name="Tracé 3427" d="M890.352,762.718l-.014,0,.013.014Z" transform="translate(-846.404 -725.079)" fill="#212121"/>
    <path id="Tracé_3428" data-name="Tracé 3428" d="M685.5,495.251l-.016.031-.017-.023Z" transform="translate(-651.645 -470.813)" fill="#212121"/>
    <path id="Tracé_3429" data-name="Tracé 3429" d="M628.372,507.668l.019-.073c.013,0,.033,0,.037.008a.317.317,0,0,1,.017.066l-.073,0" transform="translate(-597.365 -482.548)" fill="#212121"/>
    <path id="Tracé_3430" data-name="Tracé 3430" d="M633.618,512.068a1.155,1.155,0,0,1-.145-.028c-.007,0,0-.044,0-.067.013,0,.031,0,.038,0,.035.033.068.07.1.105Z" transform="translate(-602.211 -486.708)" fill="#212121"/>
    <path id="Tracé_3431" data-name="Tracé 3431" d="M624.916,502.249h0Z" transform="translate(-594.08 -477.465)" fill="#212121"/>
    <path id="Tracé_3432" data-name="Tracé 3432" d="M515.908,495.579c.023.009.052.011.067.028s.012.046.017.07c-.023-.008-.054-.01-.068-.026s-.011-.047-.016-.071" transform="translate(-490.451 -471.125)" fill="#212121"/>
    <path id="Tracé_3433" data-name="Tracé 3433" d="M558.783,521.873l.015.071c-.083-.008-.03-.042,0-.071Z" transform="translate(-531.181 -496.121)" fill="#212121"/>
    <path id="Tracé_3434" data-name="Tracé 3434" d="M19.17,59.778a.275.275,0,0,1,.114-.239l.948-.952,1.375-1.376c.229-.229.457-.46.686-.69.076-.077.163-.144.231-.227a5.281,5.281,0,0,1,.773-.71c0,.1-.1.123-.131.188s-.067.138-.1.208a.372.372,0,0,1-.152.169,2.337,2.337,0,0,0-.525.509c-.236.284-.508.539-.766.8-.129.132-.261.261-.392.392-.153.153-.3.315-.459.458a9.309,9.309,0,0,0-1,1.08,4.838,4.838,0,0,0,.377-.339c.114-.125.286-.172.379-.332.073-.125.243-.162.324-.312a1.957,1.957,0,0,1,.34-.374c.107-.111.216-.221.325-.33l.358-.362.325-.33c.681-.695,1.365-1.385,2.04-2.085.364-.378.713-.771,1.069-1.157.147-.159.3-.316.443-.474.032-.034.067-.064.1-.1.408-.525.9-.972,1.348-1.463a.43.43,0,0,0,.046-.081c-.038-.054-.072-.012-.095.011q-.325.33-.644.665c-.414.436-.826.875-1.241,1.31a.351.351,0,0,1-.115.071c-.056.024-.077-.017-.1-.084.193-.2.393-.417.594-.629.053-.056.118-.1.166-.161.561-.7,1.231-1.3,1.811-1.983.18-.211.38-.406.57-.608.5-.528.994-1.058,1.493-1.584.233-.246.481-.476.715-.722s.5-.463.753-.686c.291-.253.588-.5.883-.745a2.011,2.011,0,0,1,.186-.138c.452-.3.9-.6,1.357-.886.286-.181.584-.344.877-.515.08-.047.163-.087.242-.136a1.253,1.253,0,0,0,.652-.686c.114-.045.23-.086.342-.136a.7.7,0,0,1,.264-.072.928.928,0,0,0,.648-.318,2.467,2.467,0,0,1,.228-.23.918.918,0,0,1,.846-.266.275.275,0,0,0,.1-.017c.021-.032.048-.068.07-.107a.524.524,0,0,1,.353-.274,2.363,2.363,0,0,0,.308-.112c.118.005.106.185.236.185.092,0,.183.012.275.017a.472.472,0,0,1,.137,0c.07.027.13.1.2.1s.14-.063.211-.064a.6.6,0,0,1,.392.115,1.239,1.239,0,0,0,.667.275.168.168,0,0,1,.087.028c.046.038.1.079.121.13a3.077,3.077,0,0,1,.074.35c.112.109.281.066.4.211a.9.9,0,0,0,.051.137.368.368,0,0,1,0,.353,4.358,4.358,0,0,1-.395.678c.178.013.178.013.591-.233.1-.023.175.045.262.07s.088.169.207.16a1.888,1.888,0,0,1,.23-.01,1.1,1.1,0,0,1,.17.033.79.79,0,0,1,.223.307.489.489,0,0,0,.193.246.175.175,0,0,1,.009.25c-.221.215-.444.429-.671.637-.125.114-.26.218-.392.325-.395.322-.791.642-1.185.966a1.03,1.03,0,0,0-.155.165c-.01.013.014.053.023.081a.56.56,0,0,0,.4-.075c.118-.073.241-.139.352-.222a.367.367,0,0,0,.135-.179.384.384,0,0,1,.361-.3,7.978,7.978,0,0,0,.864-.145c.064-.016.156.089.138.151a1.1,1.1,0,0,1-.052.127.242.242,0,0,0,.021.262A.207.207,0,0,1,42.7,48a2.354,2.354,0,0,1-.529.749.837.837,0,0,0-.19.259,3.286,3.286,0,0,1-.537.692,6.122,6.122,0,0,0-.51.6c-.23.29-.419.608-.679.878a4.429,4.429,0,0,0-.447.646.668.668,0,0,1-.3.283.274.274,0,0,0-.112.079c-.16.207-.327.41-.47.629a3.48,3.48,0,0,1-.927,1.016,1.337,1.337,0,0,0-.236.22c-.39.438-.784.874-1.16,1.324-.117.14-.282.245-.347.429-.008.023-.047.038-.074.05a.29.29,0,0,0-.179.2c-.021.07-.06.166-.117.189-.144.06-.175.209-.28.3a2.465,2.465,0,0,0-.266.311c-.089.106-.174.215-.268.316-.262.28-.5.583-.745.873a5.8,5.8,0,0,1-.462.453,1.626,1.626,0,0,0-.358.419,1.111,1.111,0,0,1-.274.309,4.355,4.355,0,0,0-.571.6,1.453,1.453,0,0,1-.348.359.344.344,0,0,0-.127.132c-.172.354-.513.574-.716.9a.65.65,0,0,1-.2.193,4.489,4.489,0,0,0-.613.562.632.632,0,0,0-.14.18.707.707,0,0,1-.276.3,1.455,1.455,0,0,0-.279.239c-.857.933-1.754,1.828-2.665,2.709-.488.472-.947.972-1.439,1.44-.067.064-.126.135-.187.2a.745.745,0,0,1-.086.109c-.108.083-.223.159-.333.24s-.128.205-.25.266a1.291,1.291,0,0,0-.247.206.252.252,0,0,0-.089.2.262.262,0,0,1-.184.238c-.04-.015-.045-.1-.093-.068a1.956,1.956,0,0,0-.52.584c-.086.15-.177.293-.371.314-.16.158-.419.215-.485.47-.15,0-.162.1-.179.216a.131.131,0,0,1-.1.076.281.281,0,0,0-.208.075c-.1.1-.21.185-.3.292a.809.809,0,0,1-.274.238.441.441,0,0,0-.239.27.116.116,0,0,1-.09.093.686.686,0,0,0-.5.435.842.842,0,0,1-.1.154c-.028.036-.062.093-.1.1-.209.012-.251.207-.369.317q-.3.286-.609.569c-.2.188-.407.378-.616.561-.593.518-1.189,1.033-1.782,1.55-.163.142-.325.286-.479.437a1.976,1.976,0,0,1-.464.379.685.685,0,0,0-.144.115,4.149,4.149,0,0,1-.638.533,1.967,1.967,0,0,0-.2.187c-.165.139-.333.274-.5.41-.084.068-.175.129-.252.2a12.4,12.4,0,0,1-1.219.991c-.321.241-.629.5-.943.749q-.508.4-1.018.8a2.621,2.621,0,0,1-.452.321.751.751,0,0,0-.22.167,4.478,4.478,0,0,1-.531.446c-.264.214-.528.427-.784.65-.571.5-1.179.947-1.78,1.406-.16.122-.31.256-.468.38a.374.374,0,0,1-.245.116c0-.026,0-.061.014-.076.142-.142.279-.29.433-.417a5.838,5.838,0,0,1,.934-.749.6.6,0,0,0,.106-.088c.311-.275.607-.567.93-.83.054-.044.126-.091.108-.185a2.608,2.608,0,0,0-.945.633,4.226,4.226,0,0,1-.648.519,9.509,9.509,0,0,0-.806.619c-.215.175-.42.363-.627.549-.045.04-.075.095-.118.138a2.049,2.049,0,0,1-.233.221c-.2.145-.231.147-.526.112a1.882,1.882,0,0,1-.319.24,2.265,2.265,0,0,0-.313.193c-.481.334-.911.739-1.421,1.034a1.02,1.02,0,0,0-.177.149,1.608,1.608,0,0,1-.521.329.905.905,0,0,1,.253-.258,3.163,3.163,0,0,0,.421-.361,9.984,9.984,0,0,1,1.461-1.279c.256-.2.494-.419.74-.629.106-.09.212-.179.321-.265a.47.47,0,0,0,.195-.25A.378.378,0,0,1,6.626,82c.35-.325.678-.672,1.053-.972a6.229,6.229,0,0,0,.51-.533q.631-.645,1.267-1.285a1.072,1.072,0,0,1,.207-.184.753.753,0,0,0,.252-.263,1.149,1.149,0,0,1,.328-.314,1.467,1.467,0,0,0,.429-.416,1.511,1.511,0,0,1,.26-.261,2.885,2.885,0,0,0,.3-.283c.086-.109.169-.216.265-.317a1.367,1.367,0,0,1,.592-.416c.053-.086.1-.169.15-.242a.5.5,0,0,1,.158-.163,2.593,2.593,0,0,0,1-.974c-.03-.061-.077-.07-.112-.043-.146.113-.293.226-.429.352-.305.283-.6.575-.906.86-.09.084-.188.16-.283.239-.5.413-.971.854-1.425,1.314a.5.5,0,0,1-.308.186c-.066.006-.1.07-.114.132a.331.331,0,0,1-.131.184l.012,0-.1-.16c-.458.378-.911.744-1.348,1.131a7.582,7.582,0,0,1-.789.641c-.229.154-.428.353-.644.527a.613.613,0,0,1-.165.075c-.009,0-.028-.011-.039-.022s-.016-.025-.013-.034a.269.269,0,0,1,.044-.077q.22-.237.443-.471a1.772,1.772,0,0,0,.4-.613,1.267,1.267,0,0,1,.465-.288.217.217,0,0,0,.108-.084,4.407,4.407,0,0,1,.536-.507c.229-.206.4-.464.64-.664a.882.882,0,0,0,.155-.228.215.215,0,0,0,.011-.083c-.05-.022-.082.012-.111.04-.168.159-.338.317-.5.48a1.007,1.007,0,0,1-.372.266.686.686,0,0,0-.183.134,1.5,1.5,0,0,1-.383.252.237.237,0,0,1-.128,0c-.033-.007-.022-.082.017-.12l.066-.065.468-.445.245.026c-.03-.135.048-.2.07-.29,0-.018-.028-.045-.043-.068-.157.063-.185.227-.271.346a.492.492,0,0,0-.176.042,4.38,4.38,0,0,0-.765.666.677.677,0,0,1-.2.186A2.688,2.688,0,0,0,6.5,79.7a.468.468,0,0,1-.225.152c-.039-.026-.081-.064-.057-.109a5.646,5.646,0,0,1,.53-.912c.147-.178.276-.373.532-.415.081-.013.117-.089.151-.161a.31.31,0,0,1,.314-.222c.042,0,.11-.064.129-.113a1.418,1.418,0,0,1,.432-.589.587.587,0,0,0,.149-.176A3.939,3.939,0,0,1,9,76.481a.731.731,0,0,0,.064-.066,6.7,6.7,0,0,1,.91-1.041.146.146,0,0,0,.018-.046c-.711.522-1.351,1.122-2.027,1.679-.524.432-1.024.892-1.529,1.345-.426.382-.886.721-1.327,1.083-.167.137-.337.27-.492.42a2.6,2.6,0,0,1-.254.2c-.008.006-.037,0-.039,0-.01-.023-.026-.063-.016-.071.227-.209.452-.421.688-.619a9.672,9.672,0,0,0,.78-.718c.2-.21.433-.392.639-.6.315-.317.647-.617.966-.931a2.485,2.485,0,0,0,.332-.384c.056-.084.087-.156.2-.119.019.006.054-.026.076-.048.042-.041.079-.087.131-.145l-.3-.138c0-.16.175-.206.235-.334-.305.292-.605.58-.908.867a1.187,1.187,0,0,1-.216.174,1.008,1.008,0,0,0-.405.43.473.473,0,0,1-.193.193,4.628,4.628,0,0,0-.877.741c-.23.228-.471.444-.711.662a.333.333,0,0,1-.126.051c-.009,0-.028-.013-.037-.024s-.014-.027-.009-.034a.837.837,0,0,1,.132-.187c.4-.339.73-.755,1.165-1.055A12.961,12.961,0,0,0,7.1,76.514a.2.2,0,0,0-.2.094c-.208.293-.533.467-.752.749a.52.52,0,0,1-.3.142c.057-.222.259-.293.341-.456s.143-.3.242-.512a6.986,6.986,0,0,0-.611.558c-.4.367-.783.744-1.173,1.118-.067.064-.135.128-.195.2a4,4,0,0,1-.576.532,10.554,10.554,0,0,0-.781.72c-.4.385-.8.775-1.195,1.162a.715.715,0,0,1-.306.2h.014a.4.4,0,0,1,.131-.238c.2-.21.41-.418.614-.628q.113-.116.221-.236c.119-.132.236-.266.363-.409-.037,0-.057,0-.067,0-.146.113-.295.223-.434.344-.244.212-.49.424-.721.65a7.459,7.459,0,0,1-1.182.959,3.074,3.074,0,0,0-.379.337c-.045.041-.079.1-.159.094a.544.544,0,0,1,.069-.11c.333-.32.669-.638,1-.957.4-.383.805-.764,1.2-1.151.132-.129.247-.275.372-.411.218-.237.446-.465.67-.7s.444-.47.662-.708c.124-.136.242-.277.363-.416-.053-.032-.07.033-.108.042a.482.482,0,0,1-.08.006c0-.012-.008-.03,0-.036q.257-.265.518-.528a.537.537,0,0,1,.073-.057c.225-.159.295-.482.6-.56a4.11,4.11,0,0,0,.534-.571c.216-.1.3-.342.49-.476a.612.612,0,0,0,.2-.3.838.838,0,0,1,.4-.427c.041-.021.082-.043.12-.068.062-.04.088-.123.055-.154s-.082-.02-.124,0c-.083.037-.159.1-.259.08.008-.029.086-.028.037-.083l-.024.083c-.068.135-.1.293-.255.37-.05.025-.082-.01-.136-.043-.105.1-.22.2-.322.306a.533.533,0,0,0-.071.163l0-.008c-.042.019-.1.027-.124.058-.184.2-.366.408-.542.618a1.485,1.485,0,0,1-.292.294.691.691,0,0,0-.273.305.7.7,0,0,1-.25.268,8.244,8.244,0,0,0-.887.813c-.485.5-.967,1-1.462,1.486a7.979,7.979,0,0,0-.688.661c.013-.141.112-.165.161-.229a3.09,3.09,0,0,0,.244-.277,3.582,3.582,0,0,1,.534-.637l2.543-2.631c.052-.053.1-.111.146-.166l-.028-.034c-1.02.985-1.989,2.023-3.031,2.986a.486.486,0,0,1-.073.038,4.811,4.811,0,0,1,.39-.455,4.477,4.477,0,0,0,.57-.668.967.967,0,0,1,.259-.262.163.163,0,0,0,.042-.208.475.475,0,0,0,.173-.208.117.117,0,0,0-.018-.126c-.026-.035-.072-.025-.106.024s-.053.075-.079.113c-.055.081-.016.142.043.2l-.286.116c-.05-.019-.109-.059-.128-.045-.109.084-.209.181-.313.272s-.209.179-.317.272c-.014-.027-.04-.056-.034-.066a2.86,2.86,0,0,1,.358-.481c.348-.35.687-.709,1.03-1.064a.827.827,0,0,1,.125-.135,1.059,1.059,0,0,0,.339-.428,1.133,1.133,0,0,1,.392-.447.273.273,0,0,0,.1-.09,3.515,3.515,0,0,1,.632-.734c.31-.342.631-.673.949-1.007a.382.382,0,0,1,.112-.071c.067-.032.17-.015.2-.1.037-.109.176-.124.194-.248.021-.147.156-.222.246-.336l.264-.059H7.1c.023.021.044.043.068.062s.032.021.037.017c.023-.017.053-.037.06-.061.025-.085-.049-.14-.072-.211s0-.129.073-.139.151-.012.239-.019a.945.945,0,0,1,.225-.384c.176-.171.331-.364.5-.545a1.635,1.635,0,0,0,.282-.363.869.869,0,0,1,.207-.245,6.134,6.134,0,0,0,.6-.639,3.449,3.449,0,0,1,.292-.294.836.836,0,0,0,.186-.2,1.157,1.157,0,0,1,.306-.342,2.551,2.551,0,0,0,.286-.3c.28-.307.575-.6.833-.928a5.182,5.182,0,0,1,.566-.542,1.978,1.978,0,0,0,.236-.219,17.586,17.586,0,0,1,1.358-1.449c.213-.222.434-.436.649-.651-.049-.069-.078-.034-.108-.008-.058.049-.114.1-.175.147-.029.022-.058.006-.069-.033a.093.093,0,0,1,0-.045.08.08,0,0,1,.018-.041c.2-.185.405-.369.61-.555.1.136-.117.168-.065.279.084,0,.121-.075.176-.119.083-.068.159-.145.237-.219s.143-.178.235-.219c.206-.09.213-.332.376-.449.007,0,0-.033,0-.044-.114-.167.019-.253.116-.343a3.469,3.469,0,0,0,.5-.482c.039-.055.1-.054.163-.027a.146.146,0,0,0,.211-.071c.016-.033,0-.058-.036-.073a.065.065,0,0,1-.025-.111c.038-.047.1-.075.134-.124a.338.338,0,0,1,.334-.125.82.82,0,0,1,.34-.569c.193-.176.379-.358.557-.549.025-.027.08-.027.122-.04,0,.043.009.085.01.128,0,.013-.014.027-.022.04-.134.016-.14.138-.186.227l-.026-.011.026,0c.148-.007.19-.1.182-.229a.424.424,0,0,0,.132-.012.145.145,0,0,0,.073-.154c0-.074-.016-.148-.025-.228.073-.08.142-.161.217-.235.247-.247.5-.49.743-.739a.929.929,0,0,1,.372-.255.524.524,0,0,0,.069.052c.082.043.082.041.149-.081l-.218.043m14.306-1.435-.018-.143a1.085,1.085,0,0,1,.346-.456.252.252,0,0,1,.206-.061c-.031.033-.061.069-.1.1s-.039.05,0,.056c.009,0,.025-.017.031-.03.02-.041.036-.083.054-.125.048-.166.2-.274.26-.423s.2-.115.285-.186c.023-.079-.022-.2.128-.2a.1.1,0,0,0,.078-.041c.08-.166.264-.248.334-.423a.735.735,0,0,1,.126-.193c.069-.081.154-.146.167-.265a.225.225,0,0,1,.076-.113,7.643,7.643,0,0,1,.607-.569,2.018,2.018,0,0,0,.451-.5,5.1,5.1,0,0,1,.95-1.069.762.762,0,0,0,.268-.365c.021-.073.094-.055.139,0,.023.03.056.043.075.015a.12.12,0,0,0,0-.086,1.09,1.09,0,0,0-.046-.119,1.034,1.034,0,0,1,.273-.434,1.346,1.346,0,0,0,.241-.279,2.858,2.858,0,0,1,.3-.408,1.032,1.032,0,0,0,.251-.437.1.1,0,0,0-.034-.078.1.1,0,0,0-.083-.018.731.731,0,0,0-.185.131q-.435.48-.86.969c-.344.4-.675.8-1.025,1.194-.628.7-1.281,1.379-1.9,2.092-.6.689-1.225,1.348-1.838,2.022-.187.205-.363.421-.553.624-.527.564-1.055,1.127-1.59,1.684q-1.14,1.185-2.291,2.358-.679.7-1.365,1.386a1.356,1.356,0,0,0-.275.423c.035.109-.051.154-.1.229a5,5,0,0,1-.751.812c-.341.314-.661.648-.98.983-.17.178-.324.37-.494.546-.236.244-.481.479-.726.715a3.128,3.128,0,0,1-.564.477,1.02,1.02,0,0,0-.206.183c-.352.368-.725.714-1.1,1.059-.249.23-.533.425-.769.666A18.51,18.51,0,0,0,19.9,71.412c-.018.022-.06.024-.077.047a.072.072,0,0,0,.006.071.1.1,0,0,0,.082.02.588.588,0,0,0,.24-.211,1.287,1.287,0,0,1,.644-.5c.035-.061.062-.116.1-.167a.567.567,0,0,1,.4-.289.242.242,0,0,0,.177-.134.365.365,0,0,1,.123-.131.778.778,0,0,0,.378-.444c.014-.04.059-.1.088-.1.18.006.217-.152.3-.25a.949.949,0,0,1,.324-.256A.246.246,0,0,0,22.793,69a1.408,1.408,0,0,1,.55-.463.416.416,0,0,0,.179-.14,1.068,1.068,0,0,1,.459-.5c.025-.012.04-.046.058-.07.288-.364.642-.663.962-1a.193.193,0,0,1,.076-.052.362.362,0,0,0,.194-.184,1.306,1.306,0,0,1,.214-.24c.078-.073.157-.144.232-.221.452-.462.915-.913,1.377-1.366a.444.444,0,0,1,.115-.07.055.055,0,0,1,.044.01.062.062,0,0,1,.024.037.19.19,0,0,1-.06.166c-.083.089-.208.138-.26.257a.1.1,0,0,0,.015.084.076.076,0,0,0,.074,0c.046-.06.068-.155.126-.186a4.586,4.586,0,0,0,.58-.457,3.247,3.247,0,0,0,.6-.632c.091-.119.127-.276.286-.346.048-.021.077-.094.1-.149s.033-.12.059-.174c.046-.095.1-.187.151-.278s.175-.029.25-.067a1.046,1.046,0,0,0,.59-.555A.8.8,0,0,1,30,62.055c.231-.184.381-.436.6-.621-.045-.125-.042-.177.016-.206.119-.061.232-.1.295-.255.072-.176.291-.253.38-.434.165.016.159-.092.163-.209a.164.164,0,0,1,.181-.167.506.506,0,0,0,.12-.03c.055-.1.047-.225.147-.306l.157.137a.263.263,0,0,0,.146-.314.267.267,0,0,1,.117-.318c.072-.057.149-.107.215-.154.208.028.349-.038.318-.163a.424.424,0,0,1,.079-.343,1.673,1.673,0,0,1,.443-.466c.019-.015.058,0,.088,0l.009.132,0,.027-.023-.005.019-.012m-21,17.169.01-.024,0,.024ZM23.758,55.98v0ZM16.173,70.017a.311.311,0,0,0-.029.035.159.159,0,0,0-.011.034l.028-.07,0-.018Zm4.066-8.13a.559.559,0,0,0-.064.047c-.028.027-.022.05.015.056.008,0,.026-.015.028-.025a.533.533,0,0,0,.008-.078Zm-2.9,2.9.012-.017-.022.023-.024,0,.034,0M3.9,76.1a.68.68,0,0,0,.05-.072.381.381,0,0,0,.022-.067.1.1,0,0,0-.036.011.068.068,0,0,0-.021.037c0,.029,0,.058-.007.087l-.012.018ZM18.263,60.835c-.07.023-.154.023-.194.1a.206.206,0,0,0-.018.121c0,.035.068.022.107-.019a.3.3,0,0,0,.091-.2q.044-.055,0-.04l.016.041m-5.27,11.794a.588.588,0,0,0-.117.072c-.358.355-.714.712-1.072,1.07.027.013.056.039.073.033a.59.59,0,0,0,.283-.225,4.256,4.256,0,0,1,.6-.529c.255.072.255.072.32-.071-.059-.013-.121-.021-.148-.093.013-.084.093-.16.048-.258a.293.293,0,0,0,.289-.288c.1.061.175,0,.259-.036a.083.083,0,0,1,.113.041c-.071.154-.242.236-.3.424.081-.063.15-.112.214-.167s.108-.109.163-.163c.087-.086.176-.17.262-.256s.189-.2.291-.3a2.74,2.74,0,0,1,.22-.168c.081-.062.109-.2.251-.175a1.827,1.827,0,0,1,.134-.233.4.4,0,0,1,.148-.1.309.309,0,0,0,.2-.233.32.32,0,0,1,.1-.147c.078-.074.166-.136.246-.208a.038.038,0,0,0-.013-.07.821.821,0,0,0-.252.19c-.165.182-.343.351-.516.526-.195.2-.4.389-.583.593a.64.64,0,0,1-.431.239c-.05-.028-.022-.126-.152-.116-.072.138-.28.182-.354.369a.51.51,0,0,0-.281.279m-1.749,6.492h.011a.269.269,0,0,0-.088.025,1.854,1.854,0,0,0-.5.467,1.4,1.4,0,0,1-.5.465,1.439,1.439,0,0,0-.22.165.083.083,0,0,0,0,.08.086.086,0,0,0,.076.026,1.2,1.2,0,0,0,.438-.328,3.82,3.82,0,0,1,.373-.344,7.978,7.978,0,0,0,.794-.7c.028-.025.022-.054-.008-.078a.162.162,0,0,0-.167.053.386.386,0,0,1-.211.17m.776-11.534a1.732,1.732,0,0,0-.19.13,7.643,7.643,0,0,0-.77.8,3.991,3.991,0,0,1-.377.406c-.332.3-.635.629-.95.946-.423.427-.82.88-1.254,1.3a1.533,1.533,0,0,0-.193.256c-.008.012.021.048.037.082a7.742,7.742,0,0,0,.7-.675c.105-.131.22-.256.329-.384.189-.223.408-.42.611-.632.138-.144.268-.3.406-.441a5.067,5.067,0,0,0,.419-.43c.132-.176.336-.279.449-.462s.292-.271.421-.424c.089-.106.193-.2.291-.3a.229.229,0,0,0,.061-.169l.173-.173c-.082.033-.151.079-.161.174m.932,4.193a1.494,1.494,0,0,0,.652-.311.068.068,0,0,1,.041-.021c.091-.008.182-.017.273-.016.016,0,.049.051.044.071-.018.072-.054.14-.073.211,0,.019.026.049.046.07.005.005.03,0,.042-.01a.236.236,0,0,0,.117-.189.564.564,0,0,1,.238-.429.966.966,0,0,0,.114-.134l-.053-.194a3.416,3.416,0,0,0,.574-.532A.1.1,0,0,1,15,70.267a1.732,1.732,0,0,0,.373-.322,4.213,4.213,0,0,0,.352-.362.917.917,0,0,1,.205-.183,2.227,2.227,0,0,0,.68-.613.6.6,0,0,1,.192-.2,1.166,1.166,0,0,0,.414-.426,2.236,2.236,0,0,1,.182-.208,11.069,11.069,0,0,0,1.041-1.044c.045-.06.122-.1.172-.154.107-.124.291-.157.358-.338.033-.089.182-.1.247-.2.084-.126.18-.244.272-.366a.364.364,0,0,0-.074-.257.344.344,0,0,0-.123.044c-.351.322-.7.648-1.006.984l-.006.238c-.158.066-.3.115-.433.185a.237.237,0,0,0-.14.223c0,.07-.03.123-.1.121a.327.327,0,0,0-.238.122c-.421.385-.8.81-1.238,1.182-.2.17-.392.348-.582.528s-.4.382-.594.583-.457.321-.6.574a.079.079,0,0,1-.035.029,3.177,3.177,0,0,0-.593.5,1.141,1.141,0,0,0-.371.481c-.14.083-.261.148-.374.225a.11.11,0,0,0-.021.162,1.085,1.085,0,0,0-.212.073c-.026.015-.031.08-.03.122s.066.051.112.021c.08-.051.154-.1.119-.218m12.115-7.454-.029-.03c-.189.182-.37.372-.568.544-.7.61-1.357,1.261-2.022,1.906-.277.269-.564.527-.847.79q-1.2,1.119-2.407,2.239c-.507.475-1,.97-1.514,1.431s-.983.937-1.484,1.4c-.182.167-.349.349-.52.527a.378.378,0,0,0-.069.117c-.021.05.007.081.072.1l.764-.648a.141.141,0,0,0,.029-.036,1.261,1.261,0,0,1,.332-.38c.133-.1.239-.237.366-.347a11.817,11.817,0,0,0,.946-.883,1.73,1.73,0,0,1,.333-.32c.322-.2.517-.526.821-.737a1.968,1.968,0,0,1,.509-.46,2.114,2.114,0,0,0,.51-.522.8.8,0,0,1,.148-.175c.126-.112.263-.213.388-.327s.238-.235.353-.356a.368.368,0,0,1,.231-.142c.178-.015.245-.168.352-.271a.7.7,0,0,1,.343-.415,1.548,1.548,0,0,0,.225-.232,1.6,1.6,0,0,1,.223-.234,3.684,3.684,0,0,0,.421-.428c.144-.139.3-.264.45-.4a.226.226,0,0,0,.036-.029c.277-.373.665-.642.956-1a.6.6,0,0,1,.2-.186.692.692,0,0,0,.338-.356.976.976,0,0,1,.112-.142M37.88,45.5a.152.152,0,0,0-.183-.024,1.4,1.4,0,0,1-.281.157.523.523,0,0,0-.332.229c-.052.084-.145.016-.212.053-.189.1-.359.243-.544.348a7.365,7.365,0,0,0-1.1.841c-.129.109-.251.227-.37.347a.069.069,0,0,0,.028.111,7.405,7.405,0,0,1,1.017-.632,1.405,1.405,0,0,0,.19-.131c.458-.313.873-.687,1.355-.967a3.572,3.572,0,0,0,.309-.2.965.965,0,0,0,.124-.13M36.3,48.27c.087-.11.1-.277.284-.287a.154.154,0,0,0,.107-.078.519.519,0,0,1,.348-.277c.054-.017.092-.079.146-.1.069-.031.151-.035.2-.105,0-.125,0-.239.161-.281a.873.873,0,0,0,.2-.113c.091-.055.2-.095.219-.218.009-.059-.171-.026-.331.074a4.541,4.541,0,0,0-.458.312c-.394.32-.78.649-1.168.976a2.578,2.578,0,0,1-.59.438.251.251,0,0,0-.127.242,1.442,1.442,0,0,0,.542-.312,1.273,1.273,0,0,1,.467-.267m-22.151,26.6a2.126,2.126,0,0,1,.6-.617.232.232,0,0,0,.1-.1c.068-.194.257-.257.394-.375.058-.05.121-.095.18-.145a.5.5,0,0,0,.056-.072c.023-.03.021-.113-.008-.127a.148.148,0,0,0-.085-.018.464.464,0,0,0-.233.141,4.72,4.72,0,0,1-.7.661.236.236,0,0,0-.09.1c-.047.124-.154.181-.247.261a5.283,5.283,0,0,1-.6.5c-.026.017-.016.1.015.124a.093.093,0,0,0,.126,0c.041-.042.063-.1.1-.15a.419.419,0,0,1,.4-.184m-8.613-.445a.938.938,0,0,0-.168.093c-.187.184-.371.37-.554.558-.054.055-.1.117-.154.173s-.111.107-.164.163-.108.076-.112.173a7.664,7.664,0,0,0,1.152-1.159M21.116,58.557c-.076.069-.128.114-.177.161-.088.084-.175.169-.26.256a1.314,1.314,0,0,0-.116.141.176.176,0,0,0-.036.082c0,.022.017.047.032.082a3.2,3.2,0,0,0,.538-.552c.024-.027.011-.085.019-.169m5.161-5.3c-.177.177-.361.359-.541.544-.014.015-.011.047-.017.079a1.778,1.778,0,0,0,.622-.525c.033-.033,0-.083-.064-.1m-9.7,12.289c.434-.329.434-.329.516-.549a.242.242,0,0,0-.084.019.734.734,0,0,0-.142.116,1.444,1.444,0,0,0-.29.415m8.731-11.278c-.249.151-.256.156-.365.371-.007.015.015.047.029.067s.031.007.042,0a.61.61,0,0,0,.318-.361c.007-.021-.015-.052-.024-.078M17.89,68.3c.219-.025.244-.025.244-.086,0-.143.141-.183.194-.316l-.438.4m5.1-11.464a.264.264,0,0,0,.065-.045.57.57,0,0,0,.068-.109c0-.008-.005-.028-.014-.037s-.029-.021-.039-.017a.419.419,0,0,0-.286.312c0,.012.006.039.013.041.026.006.064.015.078,0a1.408,1.408,0,0,0,.116-.145M11.161,77c.014,0,.036.009.042,0,.071-.078.143-.156.207-.24.011-.014,0-.064-.022-.079a.1.1,0,0,0-.085-.008.3.3,0,0,0-.173.293c0,.01.019.021.03.032M17.136,62.54a1.265,1.265,0,0,0,.235-.212c.067-.078.139-.151.209-.226a2.592,2.592,0,0,0-.443.439m3.484-1a1.614,1.614,0,0,0,.413-.352c.008-.01,0-.03.006-.045-.158.029-.16.031-.418.4m-.392,3.284c-.091.076-.183.15-.271.229a1.249,1.249,0,0,0-.121.134c-.009.01-.007.029-.014.066.192-.1.269-.3.407-.429m-14.172,9.1c-.3.176-.3.177-.283.283l.283-.283m1.832-2a.523.523,0,0,0,.224-.222c-.2.005-.22.02-.224.222m7.557-7.651a.581.581,0,0,0-.336.175c-.012.009-.006.07,0,.072.059.017-.008.051.039.011.082-.068.161-.14.3-.258m.542-.608-.288.288a.66.66,0,0,0,.288-.288M26.8,52.726c-.016,0-.034-.006-.046,0a.355.355,0,0,0-.166.209c0,.009.01.027.02.035a.054.054,0,0,0,.038.015.22.22,0,0,0,.179-.225c0-.012-.016-.024-.024-.036m-8.028,7.617.019.028.246-.246-.012-.012-.253.23M15.5,63.473l-.023.09c.028.007.06.026.083.019a.4.4,0,0,0,.107-.066.041.041,0,0,0,0-.04c-.017-.019-.042-.049-.06-.046a.5.5,0,0,0-.112.043m1.409-1.35c.143-.02.185-.133.228-.246-.051.1-.226.074-.228.246m-3.8,4.317a.161.161,0,0,0,.2-.073.051.051,0,0,0,0-.044c-.006-.012-.024-.028-.035-.027a.186.186,0,0,0-.16.143m.858-.8c-.01-.006-.022-.02-.032-.019a.118.118,0,0,0-.105.12c0,.012.017.034.023.034a.162.162,0,0,0,.076-.023.089.089,0,0,0,.038-.111m4.714-4.613-.021-.021a1.268,1.268,0,0,0-.1.087c-.038.041-.1.062-.111.14.042-.032.079-.057.111-.087s.079-.079.118-.119m2.776-2.82a.086.086,0,0,0,0,.1.078.078,0,0,0,.116,0c.055-.053.059-.128.008-.149s-.083,0-.125.049M16.26,65.864c-.01-.01-.019-.027-.03-.029a.1.1,0,0,0-.115.1c0,.016.032.049.046.048a.116.116,0,0,0,.1-.117m3.462-3.428a.418.418,0,0,0,.258-.248.349.349,0,0,0-.258.248M7.356,76.253a.649.649,0,0,0,.217-.222.5.5,0,0,0-.217.222M17.035,69.2c-.119.085-.188.135-.215.224.09-.037.136-.115.215-.224m-5.466,7.275a.313.313,0,0,0,.171-.132c.005-.006,0-.028-.006-.036a.042.042,0,0,0-.035-.015c-.081.032-.142.079-.129.183m7.86-4.69-.263.263a.479.479,0,0,0,.263-.263m7.918-19.616c-.042.067-.16.057-.154.2.077-.06.151-.094.154-.2m-3.782,4.056a.09.09,0,0,0-.124-.01c-.02.015-.025.05-.037.076a.248.248,0,0,0,.085.02.166.166,0,0,0,.075-.043c.007-.006,0-.028,0-.043M13.353,69.264a.048.048,0,0,0-.073-.029.2.2,0,0,0-.069.053.3.3,0,0,0-.03.08.252.252,0,0,0,.082.012c.082-.016.112-.059.09-.115M16.39,65.64c-.01.023-.033.05-.027.067s.042.022.064.032c.009-.024.028-.048.026-.071s-.031-.042-.063-.028M9.616,73.354c-.009,0-.019-.007-.021-.005-.018.02-.034.041-.05.061.005,0,.012,0,.015,0,.019-.018.037-.036.056-.055m.464-.474a.3.3,0,0,0-.071.039.2.2,0,0,0-.029.063.274.274,0,0,0,.068-.037.224.224,0,0,0,.032-.065m.259-.236.049-.062a.284.284,0,0,0-.067.031c-.011.009-.011.032-.016.049l.034-.017m10.77-8.408a.239.239,0,0,0-.064.027c-.03.025-.024.054.01.054s.044-.024.062-.042,0-.024-.008-.039M11.5,74.08l.008.008.079-.079L11.579,74l-.079.079m5.8-5.167-.032.066a.6.6,0,0,0,.084-.024.04.04,0,0,0,.014-.036c-.014-.038-.038-.039-.065-.005M13.31,74.781l.027-.059a.8.8,0,0,0-.073.047c-.01.008-.014.025-.021.037l.067-.026m2.477-11.61-.007.082a.219.219,0,0,0,.084-.026.1.1,0,0,0,.029-.078c0-.031-.07-.019-.106.021m9.768-9.076-.016-.071c-.013,0-.033.005-.036.013a.36.36,0,0,0-.013.069l.065-.012M15.821,66.238a.449.449,0,0,0-.071.024s0,.036.005.039a.33.33,0,0,0,.069.019l0-.082m6.526-6.414a.186.186,0,0,0-.032.021.184.184,0,0,0-.021.032.177.177,0,0,0,.032-.021.179.179,0,0,0,.021-.032M11.529,71.077l.033-.082c-.028.008-.063.009-.082.027s-.023.053-.034.08l.083-.025M38.209,47.763l-.049.05.049-.05M18.778,72.5l-.006-.044c-.013.006-.03.008-.039.018-.028.031-.02.054.021.057.007,0,.016-.02.024-.032M32.51,59.349a.169.169,0,0,0-.066.042c-.025.038-.006.06.034.041.022-.01.036-.038.051-.06,0,0-.017-.024-.019-.023m.726-.718a.5.5,0,0,0-.072.033c-.009.006-.01.024-.014.037.013,0,.032,0,.039,0a.507.507,0,0,0,.048-.065M20.251,72.092l.018-.076c-.014,0-.034-.007-.04,0a.488.488,0,0,0-.046.068l.068.007m-1.728-11.5-.012.038.037-.016Zm-5.763,6.289.017.021.014-.029ZM22.4,57.32c.006.038.022.046.043.02,0,0-.008-.023-.016-.032s-.018.008-.027.012M6.5,73.317c-.008,0-.021-.013-.023-.011a.131.131,0,0,0-.016.029c.008,0,.02.012.022.01a.113.113,0,0,0,.017-.028M19.347,62.83c-.008,0-.022-.013-.024-.01-.027.025-.024.041.007.039.007,0,.012-.019.018-.029m-6.686,7-.035-.006c0,.012,0,.027,0,.035.019.027.039.027.048,0,0-.008-.008-.02-.013-.031m6.962-4.391-.04.013.016.024Zm-13,13.928.015-.03-.03.016Zm.463-.494a.117.117,0,0,0-.03.016s.006.016.009.024a.108.108,0,0,0,.029-.016s0-.015-.008-.023M37.951,48.007l.01.015L37.978,48ZM12.765,73.327l.035-.009-.013-.021Zm5.856-5.694-.012-.017-.018.027Zm.547-.572a.1.1,0,0,0-.03.017s0,.016.007.025a.106.106,0,0,0,.031-.016s-.005-.017-.008-.025m-7.278,11.6a.092.092,0,0,0-.029.016s0,.017.008.025a.1.1,0,0,0,.03-.016s-.005-.017-.009-.026m7.721-6.989-.035-.014.014.034Zm-7.3-1.413-.032.007.018.022ZM32.993,58.846l.006.031.023-.019Z" transform="translate(0 -40.509)" fill="#212121"/>
    <path id="Tracé_3435" data-name="Tracé 3435" d="M45.653,794a14.154,14.154,0,0,1-1.891,1.875c.244-.293.463-.528.689-.757.14-.142.268-.3.4-.444.052-.057.1-.115.158-.167q.22-.2.446-.4a1.545,1.545,0,0,1,.195-.108" transform="translate(-41.603 -754.82)" fill="#212121"/>
    <path id="Tracé_3436" data-name="Tracé 3436" d="M477.745,279.477c-.238.3-.539.544-.8.824-.01.01-.05,0-.074-.013s-.014-.026-.014-.039a.087.087,0,0,1,.014-.044,1.277,1.277,0,0,1,.155-.227c.23-.224.466-.441.678-.683.027-.031.081-.039.123-.057a.051.051,0,0,1,.076.031.047.047,0,0,1,0,.04c-.05.057-.1.113-.153.169" transform="translate(-453.326 -265.452)" fill="#212121"/>
    <path id="Tracé_3437" data-name="Tracé 3437" d="M111.181,798.258a.8.8,0,0,1,.054.1c0,.01-.008.028-.016.04a3.075,3.075,0,0,1-.593.553c-.008.007-.046-.018-.066-.034s-.005-.03,0-.044a.065.065,0,0,1,.023-.038c.237-.14.366-.391.6-.58" transform="translate(-105.1 -758.868)" fill="#212121"/>
    <path id="Tracé_3438" data-name="Tracé 3438" d="M106.521,829.086c-.009-.029-.018-.044-.014-.05a2.312,2.312,0,0,1,.445-.446.08.08,0,0,1,.077.007.1.1,0,0,1,.019.078.2.2,0,0,1-.049.075.337.337,0,0,1-.066.063c-.135.091-.272.18-.412.272" transform="translate(-101.25 -787.697)" fill="#212121"/>
    <path id="Tracé_3439" data-name="Tracé 3439" d="M143.145,782.353a.922.922,0,0,1,.473-.474c.007,0,.029.008.036.018s.014.035.008.043a1.266,1.266,0,0,1-.516.412" transform="translate(-136.082 -743.297)" fill="#212121"/>
    <path id="Tracé_3440" data-name="Tracé 3440" d="M68.287,809.008a.469.469,0,0,1,.173-.224,1.836,1.836,0,0,1,.352-.27c-.138.142-.275.284-.415.424a.619.619,0,0,1-.11.069" transform="translate(-64.917 -768.619)" fill="#212121"/>
    <path id="Tracé_3441" data-name="Tracé 3441" d="M295.419,472.189c0,.038,0,.076-.012.091-.126.13-.253.259-.385.382a.422.422,0,0,1-.12.054c0-.024-.011-.042-.005-.052.029-.051.05-.124.1-.145.166-.078.23-.287.427-.331" transform="translate(-280.343 -448.889)" fill="#212121"/>
    <path id="Tracé_3442" data-name="Tracé 3442" d="M207.626,561.9q.159-.187.318-.373a.117.117,0,0,1,.038-.025.4.4,0,0,1,.045-.016c.045.04,0,.073-.018.093-.121.114-.246.223-.369.334l-.013-.012" transform="translate(-197.381 -533.779)" fill="#212121"/>
    <path id="Tracé_3443" data-name="Tracé 3443" d="M264.3,506.682c.085-.146.147-.306.328-.333-.09.2-.09.2-.328.333" transform="translate(-251.26 -481.363)" fill="#212121"/>
    <path id="Tracé_3444" data-name="Tracé 3444" d="M109.044,753.128a.952.952,0,0,1,.192-.314c.005-.006.032,0,.041.006s.02.032.015.041a.646.646,0,0,1-.249.267" transform="translate(-103.663 -715.663)" fill="#212121"/>
    <path id="Tracé_3445" data-name="Tracé 3445" d="M246.691,524.6c.071-.069.115-.168.223-.2-.055.107-.055.107-.223.2" transform="translate(-234.518 -498.526)" fill="#212121"/>
    <path id="Tracé_3446" data-name="Tracé 3446" d="M234.012,539.783c-.007.025-.006.062-.023.074a.393.393,0,0,1-.113.044s-.022-.021-.021-.032a.116.116,0,0,1,.12-.107c.012,0,.025.014.037.021" transform="translate(-222.315 -513.127)" fill="#212121"/>
    <path id="Tracé_3447" data-name="Tracé 3447" d="M95.382,821.328c.07-.128.125-.206.234-.224a.327.327,0,0,1-.234.224" transform="translate(-90.675 -780.588)" fill="#212121"/>
    <path id="Tracé_3448" data-name="Tracé 3448" d="M121.775,819.67a.261.261,0,0,1-.2.209.289.289,0,0,1,.2-.209" transform="translate(-115.576 -779.223)" fill="#212121"/>
    <path id="Tracé_3449" data-name="Tracé 3449" d="M192.37,771.977c-.045.061-.088.124-.137.182-.025.029-.063.023-.072-.009a.108.108,0,0,1,.015-.083.279.279,0,0,1,.206-.087Z" transform="translate(-182.676 -733.884)" fill="#212121"/>
    <path id="Tracé_3450" data-name="Tracé 3450" d="M501.118,270.8a.312.312,0,0,1,.062-.059.173.173,0,0,1,.07,0c0,.014,0,.033,0,.043a1.132,1.132,0,0,1-.116.129c-.018.016-.051.017-.078.024a.178.178,0,0,1,.006-.069.314.314,0,0,1,.06-.062" transform="translate(-476.327 -257.374)" fill="#212121"/>
    <path id="Tracé_3451" data-name="Tracé 3451" d="M225.995,549.023a.187.187,0,0,1,0-.038c.039-.011.078-.019.118-.028,0,.012,0,.029,0,.036-.03.029-.062.062-.11.03" transform="translate(-214.839 -521.869)" fill="#212121"/>
    <path id="Tracé_3452" data-name="Tracé 3452" d="M138.843,861.563c-.013.1-.084.136-.166.164.012-.1.084-.136.166-.164" transform="translate(-131.834 -819.049)" fill="#212121"/>
    <path id="Tracé_3453" data-name="Tracé 3453" d="M153.151,728.682c0,.011.009.028.005.031-.031.024-.064.045-.1.068,0-.011-.01-.027-.006-.033a.33.33,0,0,1,.057-.059c.009-.007.026,0,.039-.007" transform="translate(-145.501 -692.725)" fill="#212121"/>
    <path id="Tracé_3454" data-name="Tracé 3454" d="M132.311,798.913a.882.882,0,0,1,.071-.053.123.123,0,0,1,.042-.008c0,.022.015.047.009.066a.163.163,0,0,1-.052.071.15.15,0,0,1-.08.028c-.03,0-.025-.065.01-.1" transform="translate(-125.755 -759.433)" fill="#212121"/>
    <path id="Tracé_3455" data-name="Tracé 3455" d="M78.686,754.386l-.032.02a.181.181,0,0,1,.014-.05c0-.006.023,0,.035,0l-.016.035" transform="translate(-74.773 -717.128)" fill="#212121"/>
    <path id="Tracé_3456" data-name="Tracé 3456" d="M66.631,800.75a.264.264,0,0,1-.027.026s-.011-.009-.017-.014a.257.257,0,0,1,.026-.027.143.143,0,0,1,.018.016" transform="translate(-63.301 -761.222)" fill="#212121"/>
    <path id="Tracé_3457" data-name="Tracé 3457" d="M98.389,888.36l.062-.028a.074.074,0,0,1-.059.058l0-.03" transform="translate(-93.534 -844.497)" fill="#212121"/>
    <path id="Tracé_3458" data-name="Tracé 3458" d="M127.762,872.4c-.03.03-.038.039-.047.046a.105.105,0,0,1-.012-.011l.059-.035" transform="translate(-121.401 -829.355)" fill="#212121"/>
    <path id="Tracé_3459" data-name="Tracé 3459" d="M221.488,554.688a.7.7,0,0,1-.045.065s-.02-.005-.031-.009a.734.734,0,0,1,.045-.066s.021.006.032.01" transform="translate(-210.485 -527.307)" fill="#212121"/>
    <path id="Tracé_3460" data-name="Tracé 3460" d="M238.914,535.909c.008.01.023.019.023.029,0,.043-.019.057-.049.037a.044.044,0,0,1-.006-.04c0-.011.021-.017.032-.025" transform="translate(-227.093 -509.465)" fill="#212121"/>
    <path id="Tracé_3461" data-name="Tracé 3461" d="M434.179,618.136c.022-.031.047-.036.069-.009a.047.047,0,0,1,0,.04c-.021.033-.047.037-.068.01-.006-.008,0-.027,0-.042" transform="translate(-412.748 -587.609)" fill="#212121"/>
    <path id="Tracé_3462" data-name="Tracé 3462" d="M199.812,577.068c-.011,0-.024.017-.031.014-.025-.011-.024-.032.005-.051.008-.005.024,0,.037,0l-.011.037" transform="translate(-189.905 -548.555)" fill="#212121"/>
    <path id="Tracé_3463" data-name="Tracé 3463" d="M256.013,519.516a.231.231,0,0,1,0,.083c-.012.029-.037.023-.031-.006a.284.284,0,0,1,.042-.077Z" transform="translate(-243.349 -493.88)" fill="#212121"/>
    <path id="Tracé_3464" data-name="Tracé 3464" d="M258.44,517.162c.027-.025.05-.068.092-.021,0,0-.013.032-.018.031a.558.558,0,0,1-.074-.021Z" transform="translate(-245.687 -491.603)" fill="#212121"/>
    <path id="Tracé_3465" data-name="Tracé 3465" d="M89.949,830.744l-.019.029-.013-.021Z" transform="translate(-85.48 -789.751)" fill="#212121"/>
    <path id="Tracé_3466" data-name="Tracé 3466" d="M138.994,794.62c-.006.011-.009.026-.018.032-.034.022-.049.012-.037-.023a.048.048,0,0,1,.03-.022c.006,0,.016.008.024.012" transform="translate(-132.079 -755.397)" fill="#212121"/>
    <path id="Tracé_3467" data-name="Tracé 3467" d="M456.6,599.492l.028-.008-.013.027Z" transform="translate(-434.065 -569.902)" fill="#212121"/>
    <path id="Tracé_3468" data-name="Tracé 3468" d="M256.737,517.748l-.089.087h.01l.079-.077Z" transform="translate(-243.984 -492.2)" fill="#212121"/>
    <path id="Tracé_3469" data-name="Tracé 3469" d="M143.923,648.42h0Z" transform="translate(-136.809 -616.423)" fill="#212121"/>
    <path id="Tracé_3470" data-name="Tracé 3470" d="M121.38,702.821l.02-.012-.016,0Z" transform="translate(-115.39 -668.129)" fill="#212121"/>
    <path id="Tracé_3471" data-name="Tracé 3471" d="M32.425,820.977l.013.029v-.029Z" transform="translate(-30.825 -780.466)" fill="#212121"/>
    <path id="Tracé_3472" data-name="Tracé 3472" d="M560.368,479.936a.271.271,0,0,1-.124.168.064.064,0,0,1-.039.005c-.006-.02-.018-.049-.009-.061a.224.224,0,0,1,.173-.112" transform="translate(-532.55 -456.254)" fill="#212121"/>
    <path id="Tracé_3473" data-name="Tracé 3473" d="M574.454,467.028a.409.409,0,0,1-.046.07.28.28,0,0,1-.062.036.428.428,0,0,1,.046-.071.27.27,0,0,1,.063-.036" transform="translate(-546.004 -443.983)" fill="#212121"/>
    <path id="Tracé_3474" data-name="Tracé 3474" d="M387.012,517.976,387,518l-.014-.02Z" transform="translate(-367.889 -492.416)" fill="#212121"/>
    <path id="Tracé_3475" data-name="Tracé 3475" d="M227.057,782.488a.668.668,0,0,1,.007.083s-.031.016-.033.013c-.037-.05,0-.072.037-.094Z" transform="translate(-215.814 -743.876)" fill="#212121"/>
  </g>
</svg>
