<svg id="logo_ajm_white" xmlns="http://www.w3.org/2000/svg" xmlns:xlink="http://www.w3.org/1999/xlink" width="270.448" height="150.848" viewBox="0 0 270.448 150.848">
  <defs>
    <clipPath id="clip-path">
      <rect id="Rectangle_1694" data-name="Rectangle 1694" width="270.448" height="150.848" fill="#fff"/>
    </clipPath>
  </defs>
  <g id="Groupe_4251" data-name="Groupe 4251" clip-path="url(#clip-path)">
    <path id="Tracé_3503" data-name="Tracé 3503" d="M639.707,168.277a28.285,28.285,0,0,1,22.506-12.685c11.225-.629,22.024,3.429,26.89,14.069,1.566-1.775,2.716-3.952,4.383-5.65,11.961-12.188,35.575-10.842,46.74,1.725,4.9,5.513,7.318,12.412,7.969,19.717l-.01,52.721h-18.7v-48.79a25.4,25.4,0,0,0-1.879-6.657c-5.83-13.105-26.2-12.462-31.859.388a26.964,26.964,0,0,0-1.805,6.731v48.328H675.482l0-45.788c-.023-13.042-9.279-21.432-22.393-18.694-6.5,1.356-13.38,8.383-13.38,15.232v49.251H621.243V157.2h18.464Z" transform="translate(-477.747 -119.605)" fill="#fff"/>
    <path id="Tracé_3504" data-name="Tracé 3504" d="M67.561,223.786l-3.7,5.184c-12.375,14.642-35.448,14.007-49.389,1.855-21.121-18.409-18.981-55.539,5.472-69.971,14.442-8.523,34.9-6.686,45.173,7.357l2.443,3.671V157.349H86.026v80.97H67.561ZM39.817,173.334c-19.221,1.85-28.187,24.984-16.333,39.949,11.986,15.131,37.425,10.782,42.808-7.953,5.1-17.76-8.061-33.769-26.475-32" transform="translate(0 -119.749)" fill="#fff"/>
    <path id="Tracé_3505" data-name="Tracé 3505" d="M434.108,162.782l.009,86.862c-.393,6.034-1.718,12.087-5.357,17.022-5.762,7.814-16.078,10.137-25.35,9.151V259.208c4.816.625,9.137-.611,11.12-5.38a19.972,19.972,0,0,0,1.113-4.424V162.782Z" transform="translate(-310.23 -125.182)" fill="#fff"/>
    <path id="Tracé_3506" data-name="Tracé 3506" d="M456.446.065c15.71-1.473,17.524,22.081,2.7,23.459C442.726,25.049,441.6,1.458,456.446.065" transform="translate(-343.002 0.001)" fill="#fff"/>
  </g>
</svg>
