<svg id="logo_ajm_black" xmlns="http://www.w3.org/2000/svg" xmlns:xlink="http://www.w3.org/1999/xlink" width="300" height="167.331" viewBox="0 0 300 167.331">
  <defs>
    <clipPath id="clip-path">
      <rect id="Rectangle_1694" data-name="Rectangle 1694" width="300" height="167.331" fill="none"/>
    </clipPath>
  </defs>
  <g id="Groupe_4251" data-name="Groupe 4251" clip-path="url(#clip-path)">
    <path id="Tracé_3503" data-name="Tracé 3503" d="M641.725,169.67A31.375,31.375,0,0,1,666.69,155.6c12.451-.7,24.431,3.8,29.829,15.607,1.737-1.969,3.013-4.384,4.862-6.268,13.268-13.519,39.463-12.027,51.847,1.914,5.433,6.116,8.118,13.769,8.84,21.872l-.011,58.481H741.318V193.084c0-1.648-1.369-5.777-2.085-7.384-6.467-14.537-29.06-13.824-35.34.43a29.91,29.91,0,0,0-2,7.466V247.2H681.409l0-50.791c-.025-14.467-10.293-23.774-24.839-20.737-7.206,1.5-14.842,9.3-14.842,16.9V247.2H621.243V157.388h20.482Z" transform="translate(-462.067 -115.679)"/>
    <path id="Tracé_3504" data-name="Tracé 3504" d="M74.943,231.224l-4.1,5.751c-13.728,16.242-39.321,15.537-54.786,2.058C-7.374,218.611-5,177.425,22.124,161.416c16.02-9.455,38.71-7.417,50.109,8.161l2.71,4.072V157.528H95.426v89.817H74.943ZM44.168,175.259C22.846,177.312,12.9,202.973,26.05,219.574c13.3,16.785,41.514,11.96,47.485-8.821,5.66-19.7-8.942-37.459-29.367-35.493" transform="translate(0 -115.819)"/>
    <path id="Tracé_3505" data-name="Tracé 3505" d="M437.462,162.782l.01,96.353c-.436,6.693-1.906,13.408-5.942,18.882-6.392,8.668-17.835,11.245-28.12,10.151V269.744c5.342.693,10.135-.677,12.335-5.968a22.153,22.153,0,0,0,1.235-4.907V162.782Z" transform="translate(-300.048 -121.074)"/>
    <path id="Tracé_3506" data-name="Tracé 3506" d="M457.585.073c17.427-1.634,19.438,24.494,2.993,26.022C442.365,27.786,441.114,1.617,457.585.073" transform="translate(-331.745 0.001)"/>
  </g>
</svg>
