<svg xmlns="http://www.w3.org/2000/svg" xmlns:xlink="http://www.w3.org/1999/xlink" width="958" height="958" viewBox="0 0 958 958">
  <defs>
    <clipPath id="clip-path">
      <rect id="Rectangle_1694" data-name="Rectangle 1694" width="792.462" height="442.012" fill="#fff"/>
    </clipPath>
  </defs>
  <g id="logo-ajm-full" transform="translate(-3271 7600)">
    <circle id="Ellipse_83" data-name="Ellipse 83" cx="479" cy="479" r="479" transform="translate(3271 -7600)" fill="#fdb82f"/>
    <g id="logo_ajm_white" transform="translate(3354.921 -7340.448)">
      <g id="Groupe_4251" data-name="Groupe 4251" clip-path="url(#clip-path)">
        <path id="Tracé_3503" data-name="Tracé 3503" d="M675.347,192.883c14.91-22.644,38.835-35.651,65.946-37.17,32.89-1.843,64.535,10.047,78.794,41.226,4.588-5.2,7.959-11.581,12.842-16.556,35.048-35.712,104.242-31.77,136.955,5.056,14.351,16.154,21.444,36.37,23.351,57.775l-.028,154.481h-54.78V254.732c0-4.354-3.617-15.259-5.507-19.506-17.084-38.4-76.763-36.517-93.353,1.136-1.809,4.1-5.29,15.543-5.29,19.723v141.61h-54.1l-.007-134.167c-.067-38.215-27.189-62.8-65.614-54.778-19.034,3.973-39.205,24.562-39.205,44.632V397.694h-54.1V160.438h54.1Z" transform="translate(-200.773 -50.264)" fill="#fff"/>
        <path id="Tracé_3504" data-name="Tracé 3504" d="M197.967,355.171l-10.839,15.191C150.866,413.265,83.259,411.4,42.409,375.8-19.478,321.854-13.21,213.059,58.443,170.77c42.317-24.975,102.255-19.592,132.364,21.557l7.159,10.757V160.5h54.1V397.755h-54.1Zm-81.3-147.833C60.35,212.759,34.079,280.546,68.813,324.4c35.12,44.338,109.661,31.593,125.434-23.3,14.952-52.04-23.621-98.95-77.575-93.757" transform="translate(0 -50.325)" fill="#fff"/>
        <path id="Tracé_3505" data-name="Tracé 3505" d="M493.359,162.782l.028,254.52c-1.151,17.68-5.035,35.418-15.7,49.877-16.884,22.9-47.111,29.7-74.279,26.814V445.326c14.112,1.83,26.773-1.79,32.583-15.765,1.069-2.57,3.262-10.457,3.262-12.963V162.782Z" transform="translate(-130.374 -52.608)" fill="#fff"/>
        <path id="Tracé_3506" data-name="Tracé 3506" d="M476.558.193c46.033-4.315,51.347,64.7,7.906,68.738C436.356,73.4,433.049,4.274,476.558.193" transform="translate(-144.147 0)" fill="#fff"/>
      </g>
    </g>
  </g>
</svg>
