<svg xmlns="http://www.w3.org/2000/svg" width="673.525" height="442.791" viewBox="0 0 673.525 442.791">
  <g id="mortalite" transform="translate(-477 -23508.561)">
    <path id="Tracé_3508" data-name="Tracé 3508" d="M-808,17478.146h672" transform="translate(1285 6404.353)" fill="none" stroke="#654219" stroke-width="1" stroke-dasharray="6" opacity="0.391"/>
    <path id="Tracé_3509" data-name="Tracé 3509" d="M-808,17478.146h672" transform="translate(1285 6365.354)" fill="none" stroke="#654219" stroke-width="1" stroke-dasharray="6" opacity="0.391"/>
    <path id="Tracé_3510" data-name="Tracé 3510" d="M-808,17478.146h672" transform="translate(1285 6325.354)" fill="none" stroke="#654219" stroke-width="1" stroke-dasharray="6" opacity="0.391"/>
    <path id="Tracé_3511" data-name="Tracé 3511" d="M-808,17478.146h672" transform="translate(1285 6285.354)" fill="none" stroke="#654219" stroke-width="1" stroke-dasharray="6" opacity="0.391"/>
    <path id="Tracé_3512" data-name="Tracé 3512" d="M-808,17478.146h672" transform="translate(1285 6245.353)" fill="none" stroke="#654219" stroke-width="1" stroke-dasharray="6" opacity="0.391"/>
    <path id="Tracé_3513" data-name="Tracé 3513" d="M-808,17478.146h672" transform="translate(1285 6205.354)" fill="none" stroke="#654219" stroke-width="1" stroke-dasharray="6" opacity="0.391"/>
    <path id="Tracé_3514" data-name="Tracé 3514" d="M-808,17478.146h672" transform="translate(1285 6165.353)" fill="none" stroke="#654219" stroke-width="1" stroke-dasharray="6" opacity="0.391"/>
    <path id="Tracé_3515" data-name="Tracé 3515" d="M-808,17478.146h672" transform="translate(1285 6125.354)" fill="none" stroke="#654219" stroke-width="1" stroke-dasharray="6" opacity="0.391"/>
    <path id="Tracé_3516" data-name="Tracé 3516" d="M-808,17478.146h672" transform="translate(1285 6085.354)" fill="none" stroke="#654219" stroke-width="1" stroke-dasharray="6" opacity="0.391"/>
    <path id="Tracé_3517" data-name="Tracé 3517" d="M-808,17478.146h672" transform="translate(1285.5 6046.354)" fill="none" stroke="#654219" stroke-width="1" stroke-dasharray="6" opacity="0.391"/>
    <path id="Tracé_3507" data-name="Tracé 3507" d="M-138.475,17524.756h-672" transform="translate(1289 6397.744)" fill="none" stroke="#000" stroke-width="1"/>
    <path id="Tracé_3522" data-name="Tracé 3522" d="M.208-9.92v-1.36H3.44V0H1.9V-9.92ZM5.5-5.712a8.384,8.384,0,0,0,.9,4.24A3.3,3.3,0,0,0,9.5.048a3.323,3.323,0,0,0,3.112-1.52,8.323,8.323,0,0,0,.9-4.24,8.247,8.247,0,0,0-.9-4.208A3.323,3.323,0,0,0,9.5-11.44,3.309,3.309,0,0,0,6.4-9.928,8.3,8.3,0,0,0,5.5-5.712Zm6.576,0a11.385,11.385,0,0,1-.2,2.328,2.92,2.92,0,0,1-.76,1.5,2.188,2.188,0,0,1-1.616.56,2.165,2.165,0,0,1-1.6-.56,2.92,2.92,0,0,1-.76-1.5,11.385,11.385,0,0,1-.2-2.328,11.17,11.17,0,0,1,.2-2.3A2.867,2.867,0,0,1,7.9-9.5a2.184,2.184,0,0,1,1.6-.552A2.207,2.207,0,0,1,11.12-9.5a2.867,2.867,0,0,1,.76,1.48A11.17,11.17,0,0,1,12.08-5.712Zm5.2-5.728a2.3,2.3,0,0,1,1.672.648,2.294,2.294,0,0,1,.664,1.72A2.282,2.282,0,0,1,18.96-7.36a2.306,2.306,0,0,1-1.68.64,2.306,2.306,0,0,1-1.68-.64,2.282,2.282,0,0,1-.656-1.712,2.309,2.309,0,0,1,.656-1.72A2.29,2.29,0,0,1,17.28-11.44Zm6.368.144L17.168,0h-1.44l6.48-11.3Zm-7.68,2.224a1.5,1.5,0,0,0,.36,1.04,1.2,1.2,0,0,0,.936.4,1.244,1.244,0,0,0,.96-.4,1.476,1.476,0,0,0,.368-1.04,1.476,1.476,0,0,0-.368-1.04,1.244,1.244,0,0,0-.96-.4,1.2,1.2,0,0,0-.936.4A1.5,1.5,0,0,0,15.968-9.072Zm6.144,4.5a2.278,2.278,0,0,1,1.672.64,2.3,2.3,0,0,1,.648,1.712A2.325,2.325,0,0,1,23.784-.5a2.263,2.263,0,0,1-1.672.648A2.3,2.3,0,0,1,20.44-.5a2.294,2.294,0,0,1-.664-1.72,2.282,2.282,0,0,1,.656-1.712A2.306,2.306,0,0,1,22.112-4.576ZM20.8-2.224a1.5,1.5,0,0,0,.36,1.04,1.219,1.219,0,0,0,.952.4,1.2,1.2,0,0,0,.936-.4,1.5,1.5,0,0,0,.36-1.04,1.5,1.5,0,0,0-.36-1.04,1.2,1.2,0,0,0-.936-.4,1.219,1.219,0,0,0-.952.4A1.5,1.5,0,0,0,20.8-2.224Z" transform="translate(477 23878)" opacity="0.387"/>
    <path id="mortalite-title-1" d="M-45.544-4.192V0H-47.8V-11.3h4.112a4.24,4.24,0,0,1,3.016.96,3.416,3.416,0,0,1,1.016,2.608A3.323,3.323,0,0,1-40.7-5.152a4.261,4.261,0,0,1-2.984.96ZM-43.928-6q1.984,0,1.984-1.728a1.719,1.719,0,0,0-.464-1.3,2.14,2.14,0,0,0-1.52-.448h-1.616V-6Zm8-1.168A3.708,3.708,0,0,1-34.616-8.5a3.485,3.485,0,0,1,1.824-.488v2.416h-.656q-2.48,0-2.48,2.3V0h-2.256V-8.864h2.256Zm12.72,2.4a4.271,4.271,0,0,1-.08.768h-6.5a2.443,2.443,0,0,0,.64,1.744,2.059,2.059,0,0,0,1.472.56,2.136,2.136,0,0,0,1.3-.384A1.7,1.7,0,0,0-25.7-3.12h2.384a3.814,3.814,0,0,1-.752,1.664A3.93,3.93,0,0,1-25.552-.3,4.747,4.747,0,0,1-27.56.112a4.718,4.718,0,0,1-2.3-.552,3.88,3.88,0,0,1-1.568-1.576,4.96,4.96,0,0,1-.56-2.416,5.007,5.007,0,0,1,.56-2.424,3.817,3.817,0,0,1,1.568-1.576,4.774,4.774,0,0,1,2.3-.544,4.67,4.67,0,0,1,2.3.544,3.834,3.834,0,0,1,1.52,1.5A4.342,4.342,0,0,1-23.208-4.768Zm-2.272-.224a1.988,1.988,0,0,0-.568-1.648A2.165,2.165,0,0,0-27.56-7.2a2.216,2.216,0,0,0-1.536.56,2.292,2.292,0,0,0-.688,1.648Zm.3-6.272-3.68,1.728v-1.536l3.68-1.92Zm7.552,2.288a4.386,4.386,0,0,1,2.856.928A4.054,4.054,0,0,1-13.336-5.52H-15.72a1.841,1.841,0,0,0-.656-1.112,2.015,2.015,0,0,0-1.3-.408,1.933,1.933,0,0,0-1.5.664,2.809,2.809,0,0,0-.6,1.944,2.809,2.809,0,0,0,.6,1.944,1.933,1.933,0,0,0,1.5.664,2.015,2.015,0,0,0,1.3-.408,1.841,1.841,0,0,0,.656-1.112h2.384A4.054,4.054,0,0,1-14.768-.816a4.386,4.386,0,0,1-2.856.928,4.718,4.718,0,0,1-2.3-.552A3.88,3.88,0,0,1-21.5-2.016a4.96,4.96,0,0,1-.56-2.416,5.007,5.007,0,0,1,.56-2.424,3.817,3.817,0,0,1,1.568-1.576A4.774,4.774,0,0,1-17.624-8.976Zm14.368.112V0H-5.512V-1.792a2.824,2.824,0,0,1-1.16,1.4,3.448,3.448,0,0,1-1.864.5A3.139,3.139,0,0,1-10.984-.9,4.047,4.047,0,0,1-11.9-3.712V-8.864h2.24v4.9a2.315,2.315,0,0,0,.544,1.64,1.914,1.914,0,0,0,1.472.584,2.009,2.009,0,0,0,1.552-.624A2.549,2.549,0,0,0-5.512-4.16v-4.7Zm4.3,1.7A3.708,3.708,0,0,1,2.36-8.5a3.485,3.485,0,0,1,1.824-.488v2.416H3.528q-2.48,0-2.48,2.3V0H-1.208V-8.864H1.048Zm7.44-1.808a3.909,3.909,0,0,1,2.592.816A3.534,3.534,0,0,1,12.3-5.984H10.184a1.756,1.756,0,0,0-.576-1.024A1.732,1.732,0,0,0,8.44-7.392a1.342,1.342,0,0,0-.9.272.916.916,0,0,0-.32.736.748.748,0,0,0,.256.592,1.844,1.844,0,0,0,.64.352q.384.128,1.1.3a11.353,11.353,0,0,1,1.64.472,2.714,2.714,0,0,1,1.088.784,2.161,2.161,0,0,1,.456,1.448,2.237,2.237,0,0,1-.888,1.84,3.745,3.745,0,0,1-2.392.7A4.52,4.52,0,0,1,6.36-.664,3.262,3.262,0,0,1,5.1-2.88h2.16a1.46,1.46,0,0,0,.576,1.032,2.089,2.089,0,0,0,1.3.376,1.254,1.254,0,0,0,.88-.28.944.944,0,0,0,.3-.728.8.8,0,0,0-.264-.624,1.782,1.782,0,0,0-.656-.368Q9-3.6,8.28-3.776a12.534,12.534,0,0,1-1.608-.456,2.567,2.567,0,0,1-1.056-.744,2.09,2.09,0,0,1-.44-1.408,2.305,2.305,0,0,1,.88-1.872A3.735,3.735,0,0,1,8.488-8.976ZM22.424-4.768a4.271,4.271,0,0,1-.08.768h-6.5a2.443,2.443,0,0,0,.64,1.744,2.059,2.059,0,0,0,1.472.56,2.136,2.136,0,0,0,1.3-.384,1.7,1.7,0,0,0,.664-1.04h2.384a3.814,3.814,0,0,1-.752,1.664A3.93,3.93,0,0,1,20.08-.3a4.747,4.747,0,0,1-2.008.416,4.718,4.718,0,0,1-2.3-.552A3.88,3.88,0,0,1,14.2-2.016a4.96,4.96,0,0,1-.56-2.416,5.007,5.007,0,0,1,.56-2.424,3.817,3.817,0,0,1,1.568-1.576,4.774,4.774,0,0,1,2.3-.544,4.67,4.67,0,0,1,2.3.544,3.834,3.834,0,0,1,1.52,1.5A4.342,4.342,0,0,1,22.424-4.768Zm-2.272-.224a1.988,1.988,0,0,0-.568-1.648,2.165,2.165,0,0,0-1.512-.56,2.216,2.216,0,0,0-1.536.56,2.292,2.292,0,0,0-.688,1.648ZM32.5-8.864V0H30.248V-1.792a2.824,2.824,0,0,1-1.16,1.4,3.448,3.448,0,0,1-1.864.5A3.139,3.139,0,0,1,24.776-.9a4.047,4.047,0,0,1-.912-2.816V-8.864H26.1v4.9a2.315,2.315,0,0,0,.544,1.64,1.914,1.914,0,0,0,1.472.584,2.009,2.009,0,0,0,1.552-.624,2.549,2.549,0,0,0,.576-1.792v-4.7Zm4.3,1.7A3.708,3.708,0,0,1,38.12-8.5a3.485,3.485,0,0,1,1.824-.488v2.416h-.656q-2.48,0-2.48,2.3V0H34.552V-8.864h2.256Zm7.44-1.808a3.909,3.909,0,0,1,2.592.816,3.534,3.534,0,0,1,1.216,2.176H45.944a1.756,1.756,0,0,0-.576-1.024A1.732,1.732,0,0,0,44.2-7.392a1.342,1.342,0,0,0-.9.272.916.916,0,0,0-.32.736.748.748,0,0,0,.256.592,1.844,1.844,0,0,0,.64.352q.384.128,1.1.3a11.353,11.353,0,0,1,1.64.472,2.714,2.714,0,0,1,1.088.784,2.161,2.161,0,0,1,.456,1.448,2.237,2.237,0,0,1-.888,1.84,3.745,3.745,0,0,1-2.392.7A4.52,4.52,0,0,1,42.12-.664,3.262,3.262,0,0,1,40.856-2.88h2.16a1.46,1.46,0,0,0,.576,1.032,2.089,2.089,0,0,0,1.3.376,1.254,1.254,0,0,0,.88-.28.944.944,0,0,0,.3-.728.8.8,0,0,0-.264-.624,1.782,1.782,0,0,0-.656-.368q-.392-.128-1.112-.3a12.534,12.534,0,0,1-1.608-.456,2.567,2.567,0,0,1-1.056-.744,2.09,2.09,0,0,1-.44-1.408,2.305,2.305,0,0,1,.88-1.872A3.735,3.735,0,0,1,44.248-8.976Z" transform="translate(604 23947)" fill="#806145"/>
    <path id="mortalite-title-2" d="M-75.376-9.5v2.928h4v1.728h-4v3.04h4.48V0h-6.736V-11.3H-70.9V-9.5Zm11.424.512A3.139,3.139,0,0,1-61.5-7.984a4.072,4.072,0,0,1,.912,2.832V0h-2.24V-4.9a2.315,2.315,0,0,0-.544-1.64,1.934,1.934,0,0,0-1.488-.584A1.99,1.99,0,0,0-66.4-6.5,2.549,2.549,0,0,0-66.976-4.7V0h-2.256V-8.864h2.256v1.776a2.824,2.824,0,0,1,1.16-1.4A3.448,3.448,0,0,1-63.952-8.992Zm10.08,7.056V0h-1.184a3.276,3.276,0,0,1-2.28-.72,3.117,3.117,0,0,1-.792-2.4V-6.96H-59.36v-1.9h1.232v-2.192h2.256v2.192h1.984v1.9h-1.984v3.872a1.249,1.249,0,0,0,.256.9,1.2,1.2,0,0,0,.864.256ZM-50-7.168A3.708,3.708,0,0,1-48.688-8.5a3.485,3.485,0,0,1,1.824-.488v2.416h-.656q-2.48,0-2.48,2.3V0h-2.256V-8.864H-50Zm12.72,2.4A4.271,4.271,0,0,1-37.36-4h-6.5a2.443,2.443,0,0,0,.64,1.744,2.059,2.059,0,0,0,1.472.56,2.136,2.136,0,0,0,1.3-.384,1.7,1.7,0,0,0,.664-1.04h2.384a3.814,3.814,0,0,1-.752,1.664A3.93,3.93,0,0,1-39.624-.3a4.747,4.747,0,0,1-2.008.416,4.718,4.718,0,0,1-2.3-.552A3.88,3.88,0,0,1-45.5-2.016a4.96,4.96,0,0,1-.56-2.416,5.007,5.007,0,0,1,.56-2.424,3.817,3.817,0,0,1,1.568-1.576,4.774,4.774,0,0,1,2.3-.544,4.67,4.67,0,0,1,2.3.544,3.834,3.834,0,0,1,1.52,1.5A4.342,4.342,0,0,1-37.28-4.768Zm-2.272-.224A1.988,1.988,0,0,0-40.12-6.64a2.165,2.165,0,0,0-1.512-.56,2.216,2.216,0,0,0-1.536.56,2.292,2.292,0,0,0-.688,1.648Zm9.616-1.648v1.872h-6.8V-6.64Zm6.1-2.336a3.368,3.368,0,0,1,1.912.528,2.981,2.981,0,0,1,1.144,1.424V-11.84h2.24V0h-2.24V-1.856A3.026,3.026,0,0,1-21.928-.424,3.33,3.33,0,0,1-23.84.112a3.808,3.808,0,0,1-2.016-.544,3.675,3.675,0,0,1-1.4-1.576,5.465,5.465,0,0,1-.5-2.424,5.465,5.465,0,0,1,.5-2.424,3.675,3.675,0,0,1,1.4-1.576A3.808,3.808,0,0,1-23.84-8.976Zm.7,1.968a2.207,2.207,0,0,0-1.7.688,2.664,2.664,0,0,0-.64,1.888,2.634,2.634,0,0,0,.64,1.88,2.22,2.22,0,0,0,1.7.68,2.232,2.232,0,0,0,1.688-.7,2.588,2.588,0,0,0,.664-1.864,2.611,2.611,0,0,0-.664-1.88A2.232,2.232,0,0,0-23.136-7.008ZM-8.16-4.768A4.271,4.271,0,0,1-8.24-4h-6.5a2.443,2.443,0,0,0,.64,1.744,2.059,2.059,0,0,0,1.472.56,2.136,2.136,0,0,0,1.3-.384,1.7,1.7,0,0,0,.664-1.04h2.384a3.814,3.814,0,0,1-.752,1.664A3.93,3.93,0,0,1-10.5-.3a4.747,4.747,0,0,1-2.008.416,4.718,4.718,0,0,1-2.3-.552,3.88,3.88,0,0,1-1.568-1.576,4.96,4.96,0,0,1-.56-2.416,5.007,5.007,0,0,1,.56-2.424,3.817,3.817,0,0,1,1.568-1.576,4.774,4.774,0,0,1,2.3-.544,4.67,4.67,0,0,1,2.3.544,3.834,3.834,0,0,1,1.52,1.5A4.342,4.342,0,0,1-8.16-4.768Zm-2.272-.224A1.988,1.988,0,0,0-11-6.64a2.165,2.165,0,0,0-1.512-.56,2.216,2.216,0,0,0-1.536.56,2.292,2.292,0,0,0-.688,1.648ZM1.92-8.864V0H-.336V-1.792A2.824,2.824,0,0,1-1.5-.392a3.448,3.448,0,0,1-1.864.5A3.139,3.139,0,0,1-5.808-.9,4.047,4.047,0,0,1-6.72-3.712V-8.864h2.24v4.9a2.315,2.315,0,0,0,.544,1.64,1.914,1.914,0,0,0,1.472.584A2.009,2.009,0,0,0-.912-2.368,2.549,2.549,0,0,0-.336-4.16v-4.7ZM9.36,0,7.344-2.848,5.648,0H3.168L6.1-4.624,3.1-8.864H5.632L7.6-6.064l1.7-2.8h2.48L8.8-4.368,11.888,0ZM20-8.976a3.406,3.406,0,0,1,1.92.528,2.876,2.876,0,0,1,1.136,1.424v-1.84H25.3v8.9a4.92,4.92,0,0,1-.488,2.216,3.6,3.6,0,0,1-1.456,1.544,4.608,4.608,0,0,1-2.344.56,4.948,4.948,0,0,1-3.1-.912A3.773,3.773,0,0,1,16.464.96h2.224a1.834,1.834,0,0,0,.744,1.048,2.464,2.464,0,0,0,1.416.376,2.213,2.213,0,0,0,1.6-.584A2.345,2.345,0,0,0,23.056.032V-1.856A2.918,2.918,0,0,1,21.92-.424,3.369,3.369,0,0,1,20,.112a3.808,3.808,0,0,1-2.016-.544,3.675,3.675,0,0,1-1.4-1.576,5.465,5.465,0,0,1-.5-2.424,5.465,5.465,0,0,1,.5-2.424,3.675,3.675,0,0,1,1.4-1.576A3.808,3.808,0,0,1,20-8.976Zm.7,1.968a2.207,2.207,0,0,0-1.7.688,2.664,2.664,0,0,0-.64,1.888,2.634,2.634,0,0,0,.64,1.88,2.22,2.22,0,0,0,1.7.68,2.232,2.232,0,0,0,1.688-.7,2.588,2.588,0,0,0,.664-1.864,2.611,2.611,0,0,0-.664-1.88A2.232,2.232,0,0,0,20.7-7.008Zm15.12-1.856V0H33.568V-1.792a2.824,2.824,0,0,1-1.16,1.4,3.448,3.448,0,0,1-1.864.5A3.139,3.139,0,0,1,28.1-.9a4.047,4.047,0,0,1-.912-2.816V-8.864h2.24v4.9a2.315,2.315,0,0,0,.544,1.64,1.914,1.914,0,0,0,1.472.584,2.009,2.009,0,0,0,1.552-.624,2.549,2.549,0,0,0,.576-1.792v-4.7Zm10.384,4.1a4.271,4.271,0,0,1-.08.768h-6.5a2.443,2.443,0,0,0,.64,1.744,2.059,2.059,0,0,0,1.472.56,2.136,2.136,0,0,0,1.3-.384,1.7,1.7,0,0,0,.664-1.04H46.1a3.814,3.814,0,0,1-.752,1.664A3.93,3.93,0,0,1,43.864-.3a4.747,4.747,0,0,1-2.008.416,4.718,4.718,0,0,1-2.3-.552,3.88,3.88,0,0,1-1.568-1.576,4.96,4.96,0,0,1-.56-2.416,5.007,5.007,0,0,1,.56-2.424,3.817,3.817,0,0,1,1.568-1.576,4.774,4.774,0,0,1,2.3-.544,4.67,4.67,0,0,1,2.3.544,3.834,3.834,0,0,1,1.52,1.5A4.342,4.342,0,0,1,46.208-4.768Zm-2.272-.224a1.988,1.988,0,0,0-.568-1.648,2.165,2.165,0,0,0-1.512-.56,2.216,2.216,0,0,0-1.536.56,2.292,2.292,0,0,0-.688,1.648Zm6.128-2.176A3.708,3.708,0,0,1,51.376-8.5,3.485,3.485,0,0,1,53.2-8.992v2.416h-.656q-2.48,0-2.48,2.3V0H47.808V-8.864h2.256Zm6.64,0A3.708,3.708,0,0,1,58.016-8.5a3.485,3.485,0,0,1,1.824-.488v2.416h-.656q-2.48,0-2.48,2.3V0H54.448V-8.864H56.7Zm12.72,2.4a4.271,4.271,0,0,1-.08.768h-6.5a2.443,2.443,0,0,0,.64,1.744,2.059,2.059,0,0,0,1.472.56,2.136,2.136,0,0,0,1.3-.384,1.7,1.7,0,0,0,.664-1.04h2.384a3.814,3.814,0,0,1-.752,1.664A3.93,3.93,0,0,1,67.08-.3a4.747,4.747,0,0,1-2.008.416,4.718,4.718,0,0,1-2.3-.552A3.88,3.88,0,0,1,61.2-2.016a4.96,4.96,0,0,1-.56-2.416,5.007,5.007,0,0,1,.56-2.424,3.817,3.817,0,0,1,1.568-1.576,4.774,4.774,0,0,1,2.3-.544,4.67,4.67,0,0,1,2.3.544,3.834,3.834,0,0,1,1.52,1.5A4.342,4.342,0,0,1,69.424-4.768Zm-2.272-.224a1.988,1.988,0,0,0-.568-1.648,2.165,2.165,0,0,0-1.512-.56,2.216,2.216,0,0,0-1.536.56,2.292,2.292,0,0,0-.688,1.648ZM74.08-8.976a3.909,3.909,0,0,1,2.592.816,3.534,3.534,0,0,1,1.216,2.176H75.776A1.756,1.756,0,0,0,75.2-7.008a1.732,1.732,0,0,0-1.168-.384,1.342,1.342,0,0,0-.9.272.916.916,0,0,0-.32.736.748.748,0,0,0,.256.592,1.844,1.844,0,0,0,.64.352q.384.128,1.1.3a11.354,11.354,0,0,1,1.64.472,2.714,2.714,0,0,1,1.088.784A2.161,2.161,0,0,1,78-2.432a2.237,2.237,0,0,1-.888,1.84,3.745,3.745,0,0,1-2.392.7,4.52,4.52,0,0,1-2.768-.776A3.262,3.262,0,0,1,70.688-2.88h2.16a1.46,1.46,0,0,0,.576,1.032,2.089,2.089,0,0,0,1.3.376,1.254,1.254,0,0,0,.88-.28.944.944,0,0,0,.3-.728A.8.8,0,0,0,75.64-3.1a1.782,1.782,0,0,0-.656-.368q-.392-.128-1.112-.3a12.534,12.534,0,0,1-1.608-.456,2.567,2.567,0,0,1-1.056-.744,2.09,2.09,0,0,1-.44-1.408,2.305,2.305,0,0,1,.88-1.872A3.735,3.735,0,0,1,74.08-8.976Z" transform="translate(760 23947)" fill="#806145"/>
    <path id="mortalite-title-3" d="M-42.752-9.184V-11.3h4.064V0h-2.368V-9.184Zm8.224,5.824Q-34.272-1.7-32.8-1.7a1.682,1.682,0,0,0,1.616-.984,6.73,6.73,0,0,0,.432-3.08,2.242,2.242,0,0,1-1,1.224,3.255,3.255,0,0,1-1.736.456,3.375,3.375,0,0,1-2.568-.984,3.892,3.892,0,0,1-.936-2.792,4.261,4.261,0,0,1,.448-1.976A3.238,3.238,0,0,1-35.208-11.2a4.352,4.352,0,0,1,2.152-.5,3.669,3.669,0,0,1,3.392,1.5,7.866,7.866,0,0,1,.928,4.152,9.088,9.088,0,0,1-.936,4.592A3.352,3.352,0,0,1-32.8.112a4.093,4.093,0,0,1-2.008-.464,3.3,3.3,0,0,1-1.3-1.256A4.157,4.157,0,0,1-36.64-3.36ZM-30.944-7.7a2.143,2.143,0,0,0-.52-1.48,1.939,1.939,0,0,0-1.528-.584,1.859,1.859,0,0,0-1.376.512,1.925,1.925,0,0,0-.512,1.424,2,2,0,0,0,.52,1.48,1.892,1.892,0,0,0,1.4.52,2.175,2.175,0,0,0,1.416-.488A1.682,1.682,0,0,0-30.944-7.7Zm3.568,5.424V-4.144l5.408-7.28h2.416v7.2h1.472v1.952h-1.472V0h-2.272V-2.272Zm5.728-6.512-3.424,4.56h3.424Zm4.832,3.04Q-16.816,0-12.5,0A3.647,3.647,0,0,0-9.2-1.536,7.6,7.6,0,0,0-8.192-5.744,7.569,7.569,0,0,0-9.2-9.936a3.647,3.647,0,0,0-3.3-1.536Q-16.816-11.472-16.816-5.744Zm6.4,0a6.7,6.7,0,0,1-.424,2.68,1.639,1.639,0,0,1-1.656.936,1.652,1.652,0,0,1-1.672-.936,6.7,6.7,0,0,1-.424-2.68,6.65,6.65,0,0,1,.424-2.664A1.652,1.652,0,0,1-12.5-9.344a1.639,1.639,0,0,1,1.656.936A6.65,6.65,0,0,1-10.416-5.744ZM2.8-6.64v1.872H-4V-6.64ZM8.08-9.184V-11.3h4.064V0H9.776V-9.184ZM16.3-3.36Q16.56-1.7,18.032-1.7a1.682,1.682,0,0,0,1.616-.984,6.73,6.73,0,0,0,.432-3.08,2.242,2.242,0,0,1-1,1.224,3.255,3.255,0,0,1-1.736.456,3.375,3.375,0,0,1-2.568-.984,3.892,3.892,0,0,1-.936-2.792,4.261,4.261,0,0,1,.448-1.976A3.238,3.238,0,0,1,15.624-11.2a4.352,4.352,0,0,1,2.152-.5,3.669,3.669,0,0,1,3.392,1.5A7.866,7.866,0,0,1,22.1-6.048a9.088,9.088,0,0,1-.936,4.592A3.352,3.352,0,0,1,18.032.112a4.093,4.093,0,0,1-2.008-.464,3.3,3.3,0,0,1-1.3-1.256,4.157,4.157,0,0,1-.536-1.752ZM19.888-7.7a2.143,2.143,0,0,0-.52-1.48A1.939,1.939,0,0,0,17.84-9.76a1.859,1.859,0,0,0-1.376.512,1.925,1.925,0,0,0-.512,1.424,2,2,0,0,0,.52,1.48,1.892,1.892,0,0,0,1.4.52,2.175,2.175,0,0,0,1.416-.488A1.682,1.682,0,0,0,19.888-7.7Zm9.68-.528q-.256-1.664-1.7-1.664A1.715,1.715,0,0,0,26.24-8.9a6.553,6.553,0,0,0-.448,3.08,2.242,2.242,0,0,1,1-1.224A3.255,3.255,0,0,1,28.528-7.5,3.375,3.375,0,0,1,31.1-6.52a3.892,3.892,0,0,1,.936,2.792,4.248,4.248,0,0,1-.448,1.984,3.249,3.249,0,0,1-1.336,1.36,4.352,4.352,0,0,1-2.152.5A3.64,3.64,0,0,1,24.7-1.416a8.116,8.116,0,0,1-.928-4.216,8.319,8.319,0,0,1,1-4.576,3.618,3.618,0,0,1,3.24-1.488,3.416,3.416,0,0,1,2.624.976,4.03,4.03,0,0,1,1.04,2.5ZM25.984-3.888a2.143,2.143,0,0,0,.52,1.48,1.939,1.939,0,0,0,1.528.584,1.859,1.859,0,0,0,1.376-.512A1.925,1.925,0,0,0,29.92-3.76a1.974,1.974,0,0,0-.52-1.472A1.909,1.909,0,0,0,28-5.744a2.19,2.19,0,0,0-1.424.48A1.669,1.669,0,0,0,25.984-3.888Zm7.6-1.856Q33.584,0,37.9,0a3.647,3.647,0,0,0,3.3-1.536,7.6,7.6,0,0,0,1.008-4.208A7.569,7.569,0,0,0,41.2-9.936a3.647,3.647,0,0,0-3.3-1.536Q33.584-11.472,33.584-5.744Zm6.4,0a6.7,6.7,0,0,1-.424,2.68,1.639,1.639,0,0,1-1.656.936,1.652,1.652,0,0,1-1.672-.936,6.7,6.7,0,0,1-.424-2.68,6.65,6.65,0,0,1,.424-2.664A1.652,1.652,0,0,1,37.9-9.344a1.639,1.639,0,0,1,1.656.936A6.65,6.65,0,0,1,39.984-5.744Z" transform="translate(923 23947)" fill="#806145"/>
    <path id="mortalite-title-4" d="M-51.464-9.184V-11.3H-47.4V0h-2.368V-9.184ZM-43.24-3.36Q-42.984-1.7-41.512-1.7A1.682,1.682,0,0,0-39.9-2.68a6.73,6.73,0,0,0,.432-3.08,2.242,2.242,0,0,1-1,1.224A3.255,3.255,0,0,1-42.2-4.08a3.375,3.375,0,0,1-2.568-.984A3.892,3.892,0,0,1-45.7-7.856a4.261,4.261,0,0,1,.448-1.976A3.238,3.238,0,0,1-43.92-11.2a4.352,4.352,0,0,1,2.152-.5,3.669,3.669,0,0,1,3.392,1.5,7.866,7.866,0,0,1,.928,4.152,9.088,9.088,0,0,1-.936,4.592A3.352,3.352,0,0,1-41.512.112,4.093,4.093,0,0,1-43.52-.352a3.3,3.3,0,0,1-1.3-1.256,4.157,4.157,0,0,1-.536-1.752ZM-39.656-7.7a2.143,2.143,0,0,0-.52-1.48A1.939,1.939,0,0,0-41.7-9.76a1.859,1.859,0,0,0-1.376.512,1.925,1.925,0,0,0-.512,1.424,2,2,0,0,0,.52,1.48,1.892,1.892,0,0,0,1.4.52,2.175,2.175,0,0,0,1.416-.488A1.682,1.682,0,0,0-39.656-7.7Zm10.72-2.016L-33.064,0H-35.4l4.176-9.456h-5.232v-1.936h7.52Zm1.1,3.968Q-27.832,0-23.512,0a3.647,3.647,0,0,0,3.3-1.536,7.6,7.6,0,0,0,1.008-4.208,7.569,7.569,0,0,0-1.008-4.192,3.647,3.647,0,0,0-3.3-1.536Q-27.832-11.472-27.832-5.744Zm6.4,0a6.7,6.7,0,0,1-.424,2.68,1.639,1.639,0,0,1-1.656.936,1.652,1.652,0,0,1-1.672-.936,6.7,6.7,0,0,1-.424-2.68,6.65,6.65,0,0,1,.424-2.664,1.652,1.652,0,0,1,1.672-.936,1.639,1.639,0,0,1,1.656.936A6.65,6.65,0,0,1-21.432-5.744Zm15.808.976A4.271,4.271,0,0,1-5.7-4h-6.5a2.443,2.443,0,0,0,.64,1.744,2.059,2.059,0,0,0,1.472.56,2.136,2.136,0,0,0,1.3-.384A1.7,1.7,0,0,0-8.12-3.12h2.384a3.814,3.814,0,0,1-.752,1.664A3.93,3.93,0,0,1-7.968-.3,4.747,4.747,0,0,1-9.976.112a4.718,4.718,0,0,1-2.3-.552,3.88,3.88,0,0,1-1.568-1.576,4.96,4.96,0,0,1-.56-2.416,5.007,5.007,0,0,1,.56-2.424A3.817,3.817,0,0,1-12.28-8.432a4.774,4.774,0,0,1,2.3-.544,4.67,4.67,0,0,1,2.3.544,3.834,3.834,0,0,1,1.52,1.5A4.342,4.342,0,0,1-5.624-4.768ZM-7.9-4.992A1.988,1.988,0,0,0-8.464-6.64,2.165,2.165,0,0,0-9.976-7.2a2.216,2.216,0,0,0-1.536.56A2.292,2.292,0,0,0-12.2-4.992ZM.712-1.936V0H-.472a3.276,3.276,0,0,1-2.28-.72,3.117,3.117,0,0,1-.792-2.4V-6.96H-4.776v-1.9h1.232v-2.192h2.256v2.192H.7v1.9H-1.288v3.872a1.249,1.249,0,0,0,.256.9,1.2,1.2,0,0,0,.864.256Zm8.576-7.04a3.406,3.406,0,0,1,1.92.528,2.876,2.876,0,0,1,1.136,1.424v-1.84h2.24V0h-2.24V-1.856A2.918,2.918,0,0,1,11.208-.424a3.369,3.369,0,0,1-1.92.536A3.808,3.808,0,0,1,7.272-.432a3.675,3.675,0,0,1-1.4-1.576,5.465,5.465,0,0,1-.5-2.424,5.465,5.465,0,0,1,.5-2.424,3.675,3.675,0,0,1,1.4-1.576A3.808,3.808,0,0,1,9.288-8.976Zm.7,1.968a2.207,2.207,0,0,0-1.7.688,2.664,2.664,0,0,0-.64,1.888,2.634,2.634,0,0,0,.64,1.88,2.22,2.22,0,0,0,1.7.68,2.232,2.232,0,0,0,1.688-.7,2.588,2.588,0,0,0,.664-1.864,2.611,2.611,0,0,0-.664-1.88A2.232,2.232,0,0,0,9.992-7.008ZM21.928-8.976a3.808,3.808,0,0,1,2.016.544,3.675,3.675,0,0,1,1.4,1.576,5.465,5.465,0,0,1,.5,2.424,5.465,5.465,0,0,1-.5,2.424,3.675,3.675,0,0,1-1.4,1.576,3.808,3.808,0,0,1-2.016.544,3.33,3.33,0,0,1-1.912-.536,2.932,2.932,0,0,1-1.128-1.432v6.08H16.632V-8.864h2.256v1.84a2.889,2.889,0,0,1,1.128-1.424A3.368,3.368,0,0,1,21.928-8.976Zm-.7,1.968a2.232,2.232,0,0,0-1.688.7,2.611,2.611,0,0,0-.664,1.88,2.588,2.588,0,0,0,.664,1.864,2.232,2.232,0,0,0,1.688.7,2.22,2.22,0,0,0,1.7-.68,2.634,2.634,0,0,0,.64-1.88,2.664,2.664,0,0,0-.64-1.888A2.207,2.207,0,0,0,21.224-7.008Zm8.48-.16A3.708,3.708,0,0,1,31.016-8.5a3.485,3.485,0,0,1,1.824-.488v2.416h-.656q-2.48,0-2.48,2.3V0H27.448V-8.864H29.7Zm12.72,2.4a4.271,4.271,0,0,1-.08.768h-6.5a2.443,2.443,0,0,0,.64,1.744,2.059,2.059,0,0,0,1.472.56,2.136,2.136,0,0,0,1.3-.384,1.7,1.7,0,0,0,.664-1.04h2.384a3.814,3.814,0,0,1-.752,1.664A3.93,3.93,0,0,1,40.08-.3a4.747,4.747,0,0,1-2.008.416,4.718,4.718,0,0,1-2.3-.552A3.88,3.88,0,0,1,34.2-2.016a4.96,4.96,0,0,1-.56-2.416,5.007,5.007,0,0,1,.56-2.424,3.817,3.817,0,0,1,1.568-1.576,4.774,4.774,0,0,1,2.3-.544,4.67,4.67,0,0,1,2.3.544,3.834,3.834,0,0,1,1.52,1.5A4.342,4.342,0,0,1,42.424-4.768Zm-2.272-.224a1.988,1.988,0,0,0-.568-1.648,2.165,2.165,0,0,0-1.512-.56,2.216,2.216,0,0,0-1.536.56,2.292,2.292,0,0,0-.688,1.648Zm-.912-6.08v1.536l-3.68-1.728v-1.728Zm7.84,2.1a3.909,3.909,0,0,1,2.592.816,3.534,3.534,0,0,1,1.216,2.176H48.776A1.756,1.756,0,0,0,48.2-7.008a1.732,1.732,0,0,0-1.168-.384,1.342,1.342,0,0,0-.9.272.916.916,0,0,0-.32.736.748.748,0,0,0,.256.592,1.844,1.844,0,0,0,.64.352q.384.128,1.1.3a11.353,11.353,0,0,1,1.64.472,2.714,2.714,0,0,1,1.088.784A2.161,2.161,0,0,1,51-2.432a2.237,2.237,0,0,1-.888,1.84,3.745,3.745,0,0,1-2.392.7,4.52,4.52,0,0,1-2.768-.776A3.262,3.262,0,0,1,43.688-2.88h2.16a1.46,1.46,0,0,0,.576,1.032,2.089,2.089,0,0,0,1.3.376,1.254,1.254,0,0,0,.88-.28.944.944,0,0,0,.3-.728A.8.8,0,0,0,48.64-3.1a1.782,1.782,0,0,0-.656-.368q-.392-.128-1.112-.3a12.534,12.534,0,0,1-1.608-.456,2.567,2.567,0,0,1-1.056-.744,2.09,2.09,0,0,1-.44-1.408,2.305,2.305,0,0,1,.88-1.872A3.735,3.735,0,0,1,47.08-8.976Z" transform="translate(1082 23947)" fill="#806145"/>
    <path id="Tracé_3523" data-name="Tracé 3523" d="M.672-1.12A23.613,23.613,0,0,0,5.024-4.744,5.209,5.209,0,0,0,6.656-8.1,2.329,2.329,0,0,0,6.168-9.64a1.943,1.943,0,0,0-1.576-.584,2.053,2.053,0,0,0-1.7.712,3.314,3.314,0,0,0-.64,1.96H.816a4.208,4.208,0,0,1,1.168-2.9A3.761,3.761,0,0,1,4.7-11.472a3.581,3.581,0,0,1,2.512.848,3.087,3.087,0,0,1,.928,2.4,4.893,4.893,0,0,1-.824,2.6A11.654,11.654,0,0,1,5.256-3.176,16,16,0,0,1,2.7-1.264H8.432v1.2H.672ZM9.984-5.712a8.384,8.384,0,0,0,.9,4.24,3.3,3.3,0,0,0,3.1,1.52A3.323,3.323,0,0,0,17.1-1.472a8.323,8.323,0,0,0,.9-4.24,8.247,8.247,0,0,0-.9-4.208,3.323,3.323,0,0,0-3.112-1.52,3.309,3.309,0,0,0-3.1,1.512A8.3,8.3,0,0,0,9.984-5.712Zm6.576,0a11.385,11.385,0,0,1-.2,2.328,2.92,2.92,0,0,1-.76,1.5,2.188,2.188,0,0,1-1.616.56,2.165,2.165,0,0,1-1.6-.56,2.92,2.92,0,0,1-.76-1.5,11.385,11.385,0,0,1-.2-2.328,11.17,11.17,0,0,1,.2-2.3,2.867,2.867,0,0,1,.76-1.48,2.184,2.184,0,0,1,1.6-.552A2.207,2.207,0,0,1,15.6-9.5a2.867,2.867,0,0,1,.76,1.48A11.17,11.17,0,0,1,16.56-5.712Zm5.2-5.728a2.3,2.3,0,0,1,1.672.648,2.294,2.294,0,0,1,.664,1.72A2.282,2.282,0,0,1,23.44-7.36a2.306,2.306,0,0,1-1.68.64,2.306,2.306,0,0,1-1.68-.64,2.282,2.282,0,0,1-.656-1.712,2.309,2.309,0,0,1,.656-1.72A2.29,2.29,0,0,1,21.76-11.44Zm6.368.144L21.648,0h-1.44l6.48-11.3Zm-7.68,2.224a1.5,1.5,0,0,0,.36,1.04,1.2,1.2,0,0,0,.936.4,1.244,1.244,0,0,0,.96-.4,1.476,1.476,0,0,0,.368-1.04,1.476,1.476,0,0,0-.368-1.04,1.244,1.244,0,0,0-.96-.4,1.2,1.2,0,0,0-.936.4A1.5,1.5,0,0,0,20.448-9.072Zm6.144,4.5a2.278,2.278,0,0,1,1.672.64,2.3,2.3,0,0,1,.648,1.712A2.325,2.325,0,0,1,28.264-.5a2.263,2.263,0,0,1-1.672.648A2.3,2.3,0,0,1,24.92-.5a2.294,2.294,0,0,1-.664-1.72,2.282,2.282,0,0,1,.656-1.712A2.306,2.306,0,0,1,26.592-4.576ZM25.28-2.224a1.5,1.5,0,0,0,.36,1.04,1.219,1.219,0,0,0,.952.4,1.2,1.2,0,0,0,.936-.4,1.5,1.5,0,0,0,.36-1.04,1.5,1.5,0,0,0-.36-1.04,1.2,1.2,0,0,0-.936-.4,1.219,1.219,0,0,0-.952.4A1.5,1.5,0,0,0,25.28-2.224Z" transform="translate(477 23839)" opacity="0.387"/>
    <path id="Tracé_3524" data-name="Tracé 3524" d="M4.784-11.584a4.217,4.217,0,0,1,1.872.384A2.731,2.731,0,0,1,7.84-10.144a2.914,2.914,0,0,1,.4,1.52,2.637,2.637,0,0,1-.616,1.776,2.69,2.69,0,0,1-1.8.864v.1A4.259,4.259,0,0,1,7.752-4.9a2.459,2.459,0,0,1,.7,1.856A2.991,2.991,0,0,1,7.52-.768a3.736,3.736,0,0,1-2.672.88,4.253,4.253,0,0,1-2.824-.9A3.838,3.838,0,0,1,.752-3.44h1.44A2.727,2.727,0,0,0,3-1.76a2.522,2.522,0,0,0,1.8.624,2.288,2.288,0,0,0,1.648-.552A1.894,1.894,0,0,0,7.024-3.12,1.815,1.815,0,0,0,6.2-4.728,4.2,4.2,0,0,0,3.856-5.28H3.472V-6.5h.384Q6.8-6.5,6.8-8.464A1.8,1.8,0,0,0,6.256-9.84a2.107,2.107,0,0,0-1.5-.512A2.425,2.425,0,0,0,3.136-9.8a2.34,2.34,0,0,0-.768,1.624H.944a3.559,3.559,0,0,1,1.112-2.5A3.917,3.917,0,0,1,4.784-11.584Zm5.552,5.872a8.384,8.384,0,0,0,.9,4.24,3.3,3.3,0,0,0,3.1,1.52,3.323,3.323,0,0,0,3.112-1.52,8.323,8.323,0,0,0,.9-4.24,8.247,8.247,0,0,0-.9-4.208,3.323,3.323,0,0,0-3.112-1.52,3.309,3.309,0,0,0-3.1,1.512A8.3,8.3,0,0,0,10.336-5.712Zm6.576,0a11.385,11.385,0,0,1-.2,2.328,2.92,2.92,0,0,1-.76,1.5,2.188,2.188,0,0,1-1.616.56,2.165,2.165,0,0,1-1.6-.56,2.92,2.92,0,0,1-.76-1.5,11.385,11.385,0,0,1-.2-2.328,11.17,11.17,0,0,1,.2-2.3,2.867,2.867,0,0,1,.76-1.48,2.184,2.184,0,0,1,1.6-.552,2.207,2.207,0,0,1,1.616.552,2.867,2.867,0,0,1,.76,1.48A11.17,11.17,0,0,1,16.912-5.712Zm5.2-5.728a2.3,2.3,0,0,1,1.672.648,2.294,2.294,0,0,1,.664,1.72,2.282,2.282,0,0,1-.656,1.712,2.306,2.306,0,0,1-1.68.64,2.306,2.306,0,0,1-1.68-.64,2.282,2.282,0,0,1-.656-1.712,2.309,2.309,0,0,1,.656-1.72A2.29,2.29,0,0,1,22.112-11.44Zm6.368.144L22,0H20.56l6.48-11.3ZM20.8-9.072a1.5,1.5,0,0,0,.36,1.04,1.2,1.2,0,0,0,.936.4,1.244,1.244,0,0,0,.96-.4,1.476,1.476,0,0,0,.368-1.04,1.476,1.476,0,0,0-.368-1.04,1.244,1.244,0,0,0-.96-.4,1.2,1.2,0,0,0-.936.4A1.5,1.5,0,0,0,20.8-9.072Zm6.144,4.5a2.278,2.278,0,0,1,1.672.64,2.3,2.3,0,0,1,.648,1.712A2.325,2.325,0,0,1,28.616-.5a2.263,2.263,0,0,1-1.672.648A2.3,2.3,0,0,1,25.272-.5a2.294,2.294,0,0,1-.664-1.72,2.282,2.282,0,0,1,.656-1.712A2.305,2.305,0,0,1,26.944-4.576ZM25.632-2.224a1.5,1.5,0,0,0,.36,1.04,1.219,1.219,0,0,0,.952.4,1.2,1.2,0,0,0,.936-.4,1.5,1.5,0,0,0,.36-1.04,1.5,1.5,0,0,0-.36-1.04,1.2,1.2,0,0,0-.936-.4,1.219,1.219,0,0,0-.952.4A1.5,1.5,0,0,0,25.632-2.224Z" transform="translate(477 23799)" opacity="0.387"/>
    <path id="Tracé_3525" data-name="Tracé 3525" d="M.5-2.592V-3.808L6.288-11.36H7.856v7.5H9.52v1.264H7.856V0H6.384V-2.592ZM6.48-9.584,2.032-3.856H6.48Zm4.352,3.872a8.384,8.384,0,0,0,.9,4.24,3.3,3.3,0,0,0,3.1,1.52,3.323,3.323,0,0,0,3.112-1.52,8.323,8.323,0,0,0,.9-4.24,8.247,8.247,0,0,0-.9-4.208,3.323,3.323,0,0,0-3.112-1.52,3.309,3.309,0,0,0-3.1,1.512A8.3,8.3,0,0,0,10.832-5.712Zm6.576,0a11.385,11.385,0,0,1-.2,2.328,2.92,2.92,0,0,1-.76,1.5,2.188,2.188,0,0,1-1.616.56,2.165,2.165,0,0,1-1.6-.56,2.92,2.92,0,0,1-.76-1.5,11.385,11.385,0,0,1-.2-2.328,11.17,11.17,0,0,1,.2-2.3,2.867,2.867,0,0,1,.76-1.48,2.184,2.184,0,0,1,1.6-.552,2.207,2.207,0,0,1,1.616.552,2.867,2.867,0,0,1,.76,1.48A11.17,11.17,0,0,1,17.408-5.712Zm5.2-5.728a2.3,2.3,0,0,1,1.672.648,2.294,2.294,0,0,1,.664,1.72,2.282,2.282,0,0,1-.656,1.712,2.306,2.306,0,0,1-1.68.64,2.306,2.306,0,0,1-1.68-.64,2.282,2.282,0,0,1-.656-1.712,2.309,2.309,0,0,1,.656-1.72A2.29,2.29,0,0,1,22.608-11.44Zm6.368.144L22.5,0h-1.44l6.48-11.3ZM21.3-9.072a1.5,1.5,0,0,0,.36,1.04,1.2,1.2,0,0,0,.936.4,1.244,1.244,0,0,0,.96-.4,1.476,1.476,0,0,0,.368-1.04,1.476,1.476,0,0,0-.368-1.04,1.244,1.244,0,0,0-.96-.4,1.2,1.2,0,0,0-.936.4A1.5,1.5,0,0,0,21.3-9.072Zm6.144,4.5a2.278,2.278,0,0,1,1.672.64,2.3,2.3,0,0,1,.648,1.712A2.325,2.325,0,0,1,29.112-.5,2.263,2.263,0,0,1,27.44.144,2.3,2.3,0,0,1,25.768-.5a2.294,2.294,0,0,1-.664-1.72,2.282,2.282,0,0,1,.656-1.712A2.306,2.306,0,0,1,27.44-4.576ZM26.128-2.224a1.5,1.5,0,0,0,.36,1.04,1.219,1.219,0,0,0,.952.4,1.2,1.2,0,0,0,.936-.4,1.5,1.5,0,0,0,.36-1.04,1.5,1.5,0,0,0-.36-1.04,1.2,1.2,0,0,0-.936-.4,1.219,1.219,0,0,0-.952.4A1.5,1.5,0,0,0,26.128-2.224Z" transform="translate(477 23759)" opacity="0.387"/>
    <path id="Tracé_3526" data-name="Tracé 3526" d="M8.512-10.128H2.72v3.776a2.7,2.7,0,0,1,1.152-.864,4.166,4.166,0,0,1,1.648-.32,3.645,3.645,0,0,1,1.992.5A3.051,3.051,0,0,1,8.68-5.7a4.362,4.362,0,0,1,.376,1.832A4.14,4.14,0,0,1,8.08-1.024,3.621,3.621,0,0,1,5.216.08,4.1,4.1,0,0,1,2.448-.84a3.493,3.493,0,0,1-1.2-2.472h1.44a2.529,2.529,0,0,0,.824,1.544,2.441,2.441,0,0,0,1.64.552,2.3,2.3,0,0,0,1.856-.736,2.892,2.892,0,0,0,.624-1.936,2.5,2.5,0,0,0-.64-1.824,2.41,2.41,0,0,0-1.808-.656,2.862,2.862,0,0,0-1.456.36,2.388,2.388,0,0,0-.944.968H1.376v-6.384H8.512Zm2.256,4.416a8.384,8.384,0,0,0,.9,4.24,3.3,3.3,0,0,0,3.1,1.52,3.323,3.323,0,0,0,3.112-1.52,8.323,8.323,0,0,0,.9-4.24,8.247,8.247,0,0,0-.9-4.208,3.323,3.323,0,0,0-3.112-1.52,3.309,3.309,0,0,0-3.1,1.512A8.3,8.3,0,0,0,10.768-5.712Zm6.576,0a11.385,11.385,0,0,1-.2,2.328,2.92,2.92,0,0,1-.76,1.5,2.188,2.188,0,0,1-1.616.56,2.165,2.165,0,0,1-1.6-.56,2.92,2.92,0,0,1-.76-1.5,11.385,11.385,0,0,1-.2-2.328,11.17,11.17,0,0,1,.2-2.3,2.867,2.867,0,0,1,.76-1.48,2.184,2.184,0,0,1,1.6-.552,2.207,2.207,0,0,1,1.616.552,2.867,2.867,0,0,1,.76,1.48A11.17,11.17,0,0,1,17.344-5.712Zm5.2-5.728a2.3,2.3,0,0,1,1.672.648,2.294,2.294,0,0,1,.664,1.72,2.282,2.282,0,0,1-.656,1.712,2.306,2.306,0,0,1-1.68.64,2.306,2.306,0,0,1-1.68-.64,2.282,2.282,0,0,1-.656-1.712,2.309,2.309,0,0,1,.656-1.72A2.29,2.29,0,0,1,22.544-11.44Zm6.368.144L22.432,0h-1.44l6.48-11.3Zm-7.68,2.224a1.5,1.5,0,0,0,.36,1.04,1.2,1.2,0,0,0,.936.4,1.244,1.244,0,0,0,.96-.4,1.476,1.476,0,0,0,.368-1.04,1.476,1.476,0,0,0-.368-1.04,1.244,1.244,0,0,0-.96-.4,1.2,1.2,0,0,0-.936.4A1.5,1.5,0,0,0,21.232-9.072Zm6.144,4.5a2.278,2.278,0,0,1,1.672.64A2.3,2.3,0,0,1,29.7-2.224,2.325,2.325,0,0,1,29.048-.5a2.263,2.263,0,0,1-1.672.648A2.3,2.3,0,0,1,25.7-.5a2.294,2.294,0,0,1-.664-1.72A2.282,2.282,0,0,1,25.7-3.936,2.306,2.306,0,0,1,27.376-4.576ZM26.064-2.224a1.5,1.5,0,0,0,.36,1.04,1.219,1.219,0,0,0,.952.4,1.2,1.2,0,0,0,.936-.4,1.5,1.5,0,0,0,.36-1.04,1.5,1.5,0,0,0-.36-1.04,1.2,1.2,0,0,0-.936-.4,1.219,1.219,0,0,0-.952.4A1.5,1.5,0,0,0,26.064-2.224Z" transform="translate(477 23719)" opacity="0.387"/>
    <path id="Tracé_3527" data-name="Tracé 3527" d="M7.28-8.272a2.6,2.6,0,0,0-.68-1.56,2.065,2.065,0,0,0-1.528-.552A2.3,2.3,0,0,0,3.016-9.328a6.226,6.226,0,0,0-.7,3.344l.016.592A2.508,2.508,0,0,1,3.44-6.92a3.614,3.614,0,0,1,2.032-.568A3.446,3.446,0,0,1,8.1-6.48a3.939,3.939,0,0,1,.952,2.816A4.317,4.317,0,0,1,8.64-1.752,3.156,3.156,0,0,1,7.368-.392a4.117,4.117,0,0,1-2.12.5,3.536,3.536,0,0,1-3.32-1.52,8.06,8.06,0,0,1-.9-4.128,8.486,8.486,0,0,1,.968-4.52,3.468,3.468,0,0,1,3.16-1.512,3.28,3.28,0,0,1,2.488.912A3.955,3.955,0,0,1,8.672-8.272ZM2.5-3.9a2.9,2.9,0,0,0,.68,1.96,2.542,2.542,0,0,0,2.04.792,2.438,2.438,0,0,0,1.792-.664A2.5,2.5,0,0,0,7.68-3.68a2.7,2.7,0,0,0-.672-1.976,2.491,2.491,0,0,0-1.856-.68,3.1,3.1,0,0,0-1.28.272,2.364,2.364,0,0,0-.992.824A2.281,2.281,0,0,0,2.5-3.9Zm8.352-1.808a8.384,8.384,0,0,0,.9,4.24,3.3,3.3,0,0,0,3.1,1.52,3.323,3.323,0,0,0,3.112-1.52,8.323,8.323,0,0,0,.9-4.24,8.247,8.247,0,0,0-.9-4.208,3.323,3.323,0,0,0-3.112-1.52,3.309,3.309,0,0,0-3.1,1.512A8.3,8.3,0,0,0,10.848-5.712Zm6.576,0a11.385,11.385,0,0,1-.2,2.328,2.92,2.92,0,0,1-.76,1.5,2.188,2.188,0,0,1-1.616.56,2.165,2.165,0,0,1-1.6-.56,2.92,2.92,0,0,1-.76-1.5,11.385,11.385,0,0,1-.2-2.328,11.17,11.17,0,0,1,.2-2.3,2.867,2.867,0,0,1,.76-1.48,2.184,2.184,0,0,1,1.6-.552,2.207,2.207,0,0,1,1.616.552,2.867,2.867,0,0,1,.76,1.48A11.17,11.17,0,0,1,17.424-5.712Zm5.2-5.728a2.3,2.3,0,0,1,1.672.648,2.294,2.294,0,0,1,.664,1.72A2.282,2.282,0,0,1,24.3-7.36a2.306,2.306,0,0,1-1.68.64,2.306,2.306,0,0,1-1.68-.64,2.282,2.282,0,0,1-.656-1.712,2.309,2.309,0,0,1,.656-1.72A2.29,2.29,0,0,1,22.624-11.44Zm6.368.144L22.512,0h-1.44l6.48-11.3Zm-7.68,2.224a1.5,1.5,0,0,0,.36,1.04,1.2,1.2,0,0,0,.936.4,1.244,1.244,0,0,0,.96-.4,1.476,1.476,0,0,0,.368-1.04,1.476,1.476,0,0,0-.368-1.04,1.244,1.244,0,0,0-.96-.4,1.2,1.2,0,0,0-.936.4A1.5,1.5,0,0,0,21.312-9.072Zm6.144,4.5a2.278,2.278,0,0,1,1.672.64,2.3,2.3,0,0,1,.648,1.712A2.325,2.325,0,0,1,29.128-.5a2.263,2.263,0,0,1-1.672.648A2.3,2.3,0,0,1,25.784-.5a2.294,2.294,0,0,1-.664-1.72,2.282,2.282,0,0,1,.656-1.712A2.305,2.305,0,0,1,27.456-4.576ZM26.144-2.224a1.5,1.5,0,0,0,.36,1.04,1.219,1.219,0,0,0,.952.4,1.2,1.2,0,0,0,.936-.4,1.5,1.5,0,0,0,.36-1.04,1.5,1.5,0,0,0-.36-1.04,1.2,1.2,0,0,0-.936-.4,1.219,1.219,0,0,0-.952.4A1.5,1.5,0,0,0,26.144-2.224Z" transform="translate(477 23679)" opacity="0.387"/>
    <path id="Tracé_3528" data-name="Tracé 3528" d="M7.616-10.224,3.344,0H1.808L6.144-10.08H.224v-1.264H7.616ZM9.008-5.712a8.384,8.384,0,0,0,.9,4.24,3.3,3.3,0,0,0,3.1,1.52,3.323,3.323,0,0,0,3.112-1.52,8.323,8.323,0,0,0,.9-4.24,8.247,8.247,0,0,0-.9-4.208,3.323,3.323,0,0,0-3.112-1.52A3.309,3.309,0,0,0,9.9-9.928,8.3,8.3,0,0,0,9.008-5.712Zm6.576,0a11.385,11.385,0,0,1-.2,2.328,2.92,2.92,0,0,1-.76,1.5,2.188,2.188,0,0,1-1.616.56,2.165,2.165,0,0,1-1.6-.56,2.92,2.92,0,0,1-.76-1.5,11.385,11.385,0,0,1-.2-2.328,11.17,11.17,0,0,1,.2-2.3,2.867,2.867,0,0,1,.76-1.48,2.184,2.184,0,0,1,1.6-.552,2.207,2.207,0,0,1,1.616.552,2.867,2.867,0,0,1,.76,1.48A11.17,11.17,0,0,1,15.584-5.712Zm5.2-5.728a2.3,2.3,0,0,1,1.672.648,2.294,2.294,0,0,1,.664,1.72,2.282,2.282,0,0,1-.656,1.712,2.306,2.306,0,0,1-1.68.64,2.306,2.306,0,0,1-1.68-.64,2.282,2.282,0,0,1-.656-1.712,2.309,2.309,0,0,1,.656-1.72A2.29,2.29,0,0,1,20.784-11.44Zm6.368.144L20.672,0h-1.44l6.48-11.3Zm-7.68,2.224a1.5,1.5,0,0,0,.36,1.04,1.2,1.2,0,0,0,.936.4,1.244,1.244,0,0,0,.96-.4,1.476,1.476,0,0,0,.368-1.04,1.476,1.476,0,0,0-.368-1.04,1.244,1.244,0,0,0-.96-.4,1.2,1.2,0,0,0-.936.4A1.5,1.5,0,0,0,19.472-9.072Zm6.144,4.5a2.278,2.278,0,0,1,1.672.64,2.3,2.3,0,0,1,.648,1.712A2.325,2.325,0,0,1,27.288-.5a2.263,2.263,0,0,1-1.672.648A2.3,2.3,0,0,1,23.944-.5a2.294,2.294,0,0,1-.664-1.72,2.282,2.282,0,0,1,.656-1.712A2.305,2.305,0,0,1,25.616-4.576ZM24.3-2.224a1.5,1.5,0,0,0,.36,1.04,1.219,1.219,0,0,0,.952.4,1.2,1.2,0,0,0,.936-.4,1.5,1.5,0,0,0,.36-1.04,1.5,1.5,0,0,0-.36-1.04,1.2,1.2,0,0,0-.936-.4,1.219,1.219,0,0,0-.952.4A1.5,1.5,0,0,0,24.3-2.224Z" transform="translate(477 23639)" opacity="0.387"/>
    <path id="Tracé_3529" data-name="Tracé 3529" d="M1.136-8.624a2.728,2.728,0,0,1,.448-1.52,3.024,3.024,0,0,1,1.328-1.088,5.033,5.033,0,0,1,2.1-.4,4.978,4.978,0,0,1,2.088.4,3.031,3.031,0,0,1,1.32,1.088,2.728,2.728,0,0,1,.448,1.52,2.657,2.657,0,0,1-.512,1.632A2.779,2.779,0,0,1,6.8-6.016,3.32,3.32,0,0,1,8.544-4.96,2.809,2.809,0,0,1,9.168-3.1,3.045,3.045,0,0,1,8.032-.592,4.689,4.689,0,0,1,5.008.32,4.689,4.689,0,0,1,1.984-.592,3.045,3.045,0,0,1,.848-3.1,2.833,2.833,0,0,1,1.464-4.96,3.276,3.276,0,0,1,3.2-6.016a2.779,2.779,0,0,1-1.552-.976A2.657,2.657,0,0,1,1.136-8.624Zm1.44.208a1.779,1.779,0,0,0,.656,1.48,2.782,2.782,0,0,0,1.776.52,2.748,2.748,0,0,0,1.768-.52,1.788,1.788,0,0,0,.648-1.48A1.779,1.779,0,0,0,6.768-9.9a2.755,2.755,0,0,0-1.76-.52A2.789,2.789,0,0,0,3.24-9.9,1.77,1.77,0,0,0,2.576-8.416Zm-.3,5.232A2.055,2.055,0,0,0,3.008-1.5a3.074,3.074,0,0,0,2,.6A3.02,3.02,0,0,0,6.992-1.5a2.06,2.06,0,0,0,.736-1.68A1.91,1.91,0,0,0,6.96-4.832a3.228,3.228,0,0,0-1.952-.56,3.257,3.257,0,0,0-1.968.56A1.91,1.91,0,0,0,2.272-3.184Zm8.64-2.528a8.384,8.384,0,0,0,.9,4.24,3.3,3.3,0,0,0,3.1,1.52,3.323,3.323,0,0,0,3.112-1.52,8.323,8.323,0,0,0,.9-4.24,8.247,8.247,0,0,0-.9-4.208,3.323,3.323,0,0,0-3.112-1.52,3.309,3.309,0,0,0-3.1,1.512A8.3,8.3,0,0,0,10.912-5.712Zm6.576,0a11.385,11.385,0,0,1-.2,2.328,2.92,2.92,0,0,1-.76,1.5,2.188,2.188,0,0,1-1.616.56,2.165,2.165,0,0,1-1.6-.56,2.92,2.92,0,0,1-.76-1.5,11.385,11.385,0,0,1-.2-2.328,11.17,11.17,0,0,1,.2-2.3,2.867,2.867,0,0,1,.76-1.48,2.184,2.184,0,0,1,1.6-.552,2.207,2.207,0,0,1,1.616.552,2.867,2.867,0,0,1,.76,1.48A11.17,11.17,0,0,1,17.488-5.712Zm5.2-5.728a2.3,2.3,0,0,1,1.672.648,2.294,2.294,0,0,1,.664,1.72,2.282,2.282,0,0,1-.656,1.712,2.306,2.306,0,0,1-1.68.64,2.306,2.306,0,0,1-1.68-.64,2.282,2.282,0,0,1-.656-1.712,2.309,2.309,0,0,1,.656-1.72A2.29,2.29,0,0,1,22.688-11.44Zm6.368.144L22.576,0h-1.44l6.48-11.3Zm-7.68,2.224a1.5,1.5,0,0,0,.36,1.04,1.2,1.2,0,0,0,.936.4,1.244,1.244,0,0,0,.96-.4A1.476,1.476,0,0,0,24-9.072a1.476,1.476,0,0,0-.368-1.04,1.244,1.244,0,0,0-.96-.4,1.2,1.2,0,0,0-.936.4A1.5,1.5,0,0,0,21.376-9.072Zm6.144,4.5a2.278,2.278,0,0,1,1.672.64,2.3,2.3,0,0,1,.648,1.712A2.325,2.325,0,0,1,29.192-.5,2.263,2.263,0,0,1,27.52.144,2.3,2.3,0,0,1,25.848-.5a2.294,2.294,0,0,1-.664-1.72,2.282,2.282,0,0,1,.656-1.712A2.305,2.305,0,0,1,27.52-4.576ZM26.208-2.224a1.5,1.5,0,0,0,.36,1.04,1.219,1.219,0,0,0,.952.4,1.2,1.2,0,0,0,.936-.4,1.5,1.5,0,0,0,.36-1.04,1.5,1.5,0,0,0-.36-1.04,1.2,1.2,0,0,0-.936-.4,1.219,1.219,0,0,0-.952.4A1.5,1.5,0,0,0,26.208-2.224Z" transform="translate(477 23599)" opacity="0.387"/>
    <path id="Tracé_3530" data-name="Tracé 3530" d="M2.56-3.168a2.6,2.6,0,0,0,.7,1.552A2.111,2.111,0,0,0,4.8-1.072a2.279,2.279,0,0,0,2.032-1.04,6.12,6.12,0,0,0,.688-3.3q0-.432-.016-.656A2.473,2.473,0,0,1,6.416-4.528a3.577,3.577,0,0,1-2.032.576A3.472,3.472,0,0,1,1.744-4.96a3.919,3.919,0,0,1-.96-2.816A4.368,4.368,0,0,1,1.2-9.7a3.146,3.146,0,0,1,1.272-1.368,4.117,4.117,0,0,1,2.12-.5,3.574,3.574,0,0,1,3.336,1.5,7.924,7.924,0,0,1,.9,4.1A8.987,8.987,0,0,1,7.9-1.432,3.323,3.323,0,0,1,4.8.128a3.427,3.427,0,0,1-2.536-.92,3.838,3.838,0,0,1-1.08-2.376Zm4.8-4.384A2.912,2.912,0,0,0,6.68-9.5a2.529,2.529,0,0,0-2.04-.8,2.422,2.422,0,0,0-1.792.672A2.53,2.53,0,0,0,2.176-7.76a2.7,2.7,0,0,0,.672,1.968,2.454,2.454,0,0,0,1.84.688,3.155,3.155,0,0,0,1.288-.272,2.334,2.334,0,0,0,1-.832A2.318,2.318,0,0,0,7.36-7.552Zm3.28,1.84a8.384,8.384,0,0,0,.9,4.24,3.3,3.3,0,0,0,3.1,1.52,3.323,3.323,0,0,0,3.112-1.52,8.323,8.323,0,0,0,.9-4.24,8.247,8.247,0,0,0-.9-4.208,3.323,3.323,0,0,0-3.112-1.52,3.309,3.309,0,0,0-3.1,1.512A8.3,8.3,0,0,0,10.64-5.712Zm6.576,0a11.385,11.385,0,0,1-.2,2.328,2.92,2.92,0,0,1-.76,1.5,2.188,2.188,0,0,1-1.616.56,2.165,2.165,0,0,1-1.6-.56,2.92,2.92,0,0,1-.76-1.5,11.385,11.385,0,0,1-.2-2.328,11.17,11.17,0,0,1,.2-2.3,2.867,2.867,0,0,1,.76-1.48,2.184,2.184,0,0,1,1.6-.552,2.207,2.207,0,0,1,1.616.552,2.867,2.867,0,0,1,.76,1.48A11.17,11.17,0,0,1,17.216-5.712Zm5.2-5.728a2.3,2.3,0,0,1,1.672.648,2.294,2.294,0,0,1,.664,1.72A2.282,2.282,0,0,1,24.1-7.36a2.306,2.306,0,0,1-1.68.64,2.306,2.306,0,0,1-1.68-.64,2.282,2.282,0,0,1-.656-1.712,2.309,2.309,0,0,1,.656-1.72A2.29,2.29,0,0,1,22.416-11.44Zm6.368.144L22.3,0h-1.44l6.48-11.3ZM21.1-9.072a1.5,1.5,0,0,0,.36,1.04,1.2,1.2,0,0,0,.936.4,1.244,1.244,0,0,0,.96-.4,1.476,1.476,0,0,0,.368-1.04,1.476,1.476,0,0,0-.368-1.04,1.244,1.244,0,0,0-.96-.4,1.2,1.2,0,0,0-.936.4A1.5,1.5,0,0,0,21.1-9.072Zm6.144,4.5a2.278,2.278,0,0,1,1.672.64,2.3,2.3,0,0,1,.648,1.712A2.325,2.325,0,0,1,28.92-.5a2.263,2.263,0,0,1-1.672.648A2.3,2.3,0,0,1,25.576-.5a2.294,2.294,0,0,1-.664-1.72,2.282,2.282,0,0,1,.656-1.712A2.305,2.305,0,0,1,27.248-4.576ZM25.936-2.224a1.5,1.5,0,0,0,.36,1.04,1.219,1.219,0,0,0,.952.4,1.2,1.2,0,0,0,.936-.4,1.5,1.5,0,0,0,.36-1.04,1.5,1.5,0,0,0-.36-1.04,1.2,1.2,0,0,0-.936-.4,1.219,1.219,0,0,0-.952.4A1.5,1.5,0,0,0,25.936-2.224Z" transform="translate(477 23559)" opacity="0.387"/>
    <path id="Tracé_3531" data-name="Tracé 3531" d="M.208-9.92v-1.36H3.44V0H1.9V-9.92ZM5.5-5.712a8.384,8.384,0,0,0,.9,4.24A3.3,3.3,0,0,0,9.5.048a3.323,3.323,0,0,0,3.112-1.52,8.323,8.323,0,0,0,.9-4.24,8.247,8.247,0,0,0-.9-4.208A3.323,3.323,0,0,0,9.5-11.44,3.309,3.309,0,0,0,6.4-9.928,8.3,8.3,0,0,0,5.5-5.712Zm6.576,0a11.385,11.385,0,0,1-.2,2.328,2.92,2.92,0,0,1-.76,1.5,2.188,2.188,0,0,1-1.616.56,2.165,2.165,0,0,1-1.6-.56,2.92,2.92,0,0,1-.76-1.5,11.385,11.385,0,0,1-.2-2.328,11.17,11.17,0,0,1,.2-2.3A2.867,2.867,0,0,1,7.9-9.5a2.184,2.184,0,0,1,1.6-.552A2.207,2.207,0,0,1,11.12-9.5a2.867,2.867,0,0,1,.76,1.48A11.17,11.17,0,0,1,12.08-5.712Zm3.248,0a8.384,8.384,0,0,0,.9,4.24,3.3,3.3,0,0,0,3.1,1.52,3.323,3.323,0,0,0,3.112-1.52,8.323,8.323,0,0,0,.9-4.24,8.247,8.247,0,0,0-.9-4.208,3.323,3.323,0,0,0-3.112-1.52,3.309,3.309,0,0,0-3.1,1.512A8.3,8.3,0,0,0,15.328-5.712Zm6.576,0a11.385,11.385,0,0,1-.2,2.328,2.92,2.92,0,0,1-.76,1.5,2.188,2.188,0,0,1-1.616.56,2.165,2.165,0,0,1-1.6-.56,2.92,2.92,0,0,1-.76-1.5,11.385,11.385,0,0,1-.2-2.328,11.17,11.17,0,0,1,.2-2.3,2.867,2.867,0,0,1,.76-1.48,2.184,2.184,0,0,1,1.6-.552,2.207,2.207,0,0,1,1.616.552,2.867,2.867,0,0,1,.76,1.48A11.17,11.17,0,0,1,21.9-5.712Zm5.2-5.728a2.3,2.3,0,0,1,1.672.648,2.294,2.294,0,0,1,.664,1.72,2.282,2.282,0,0,1-.656,1.712,2.306,2.306,0,0,1-1.68.64,2.306,2.306,0,0,1-1.68-.64,2.282,2.282,0,0,1-.656-1.712,2.309,2.309,0,0,1,.656-1.72A2.29,2.29,0,0,1,27.1-11.44Zm6.368.144L26.992,0h-1.44l6.48-11.3Zm-7.68,2.224a1.5,1.5,0,0,0,.36,1.04,1.2,1.2,0,0,0,.936.4,1.244,1.244,0,0,0,.96-.4,1.476,1.476,0,0,0,.368-1.04,1.476,1.476,0,0,0-.368-1.04,1.244,1.244,0,0,0-.96-.4,1.2,1.2,0,0,0-.936.4A1.5,1.5,0,0,0,25.792-9.072Zm6.144,4.5a2.278,2.278,0,0,1,1.672.64,2.3,2.3,0,0,1,.648,1.712A2.325,2.325,0,0,1,33.608-.5a2.263,2.263,0,0,1-1.672.648A2.3,2.3,0,0,1,30.264-.5a2.294,2.294,0,0,1-.664-1.72,2.282,2.282,0,0,1,.656-1.712A2.305,2.305,0,0,1,31.936-4.576ZM30.624-2.224a1.5,1.5,0,0,0,.36,1.04,1.219,1.219,0,0,0,.952.4,1.2,1.2,0,0,0,.936-.4,1.5,1.5,0,0,0,.36-1.04,1.5,1.5,0,0,0-.36-1.04,1.2,1.2,0,0,0-.936-.4,1.219,1.219,0,0,0-.952.4A1.5,1.5,0,0,0,30.624-2.224Z" transform="translate(477 23520)" opacity="0.387"/>
    <g id="mortalite-bar-1" transform="translate(561 23890)" fill="#fffaf4" stroke="#806145" stroke-width="1">
      <rect width="87" height="33" stroke="none"/>
      <rect x="0.5" y="0.5" width="86" height="32" fill="none"/>
    </g>
    <g id="mortalite-bar-2" transform="translate(720 23858)" fill="#fffaf4" stroke="#806145" stroke-width="1">
      <rect width="87" height="65" stroke="none"/>
      <rect x="0.5" y="0.5" width="86" height="64" fill="none"/>
    </g>
    <g id="mortalite-bar-3" transform="translate(879 23824)" fill="#fffaf4" stroke="#806145" stroke-width="1">
      <rect width="87" height="99" stroke="none"/>
      <rect x="0.5" y="0.5" width="86" height="98" fill="none"/>
    </g>
    <g id="mortalite-bar-4" transform="translate(1038 23683)" fill="#fffaf4" stroke="#806145" stroke-width="1">
      <rect width="87" height="240" stroke="none"/>
      <rect x="0.5" y="0.5" width="86" height="239" fill="none"/>
    </g>
  </g>
</svg>
